<svg width="405" height="280" viewBox="0 0 405 280" fill="none" xmlns="http://www.w3.org/2000/svg">
<g clip-path="url(#clip0_344_3425)">
<path d="M121.577 36.3004L121.29 36.228L30.269 226.788L351.136 251.557L351.498 251.585L363.255 96.8935L363.278 96.5893L121.577 36.3004ZM213.752 158.847L31.5319 225.822L121.559 37.3426L213.752 158.847ZM214.286 159.421L349.826 250.729L32.5054 226.235L214.286 159.421ZM214.454 158.577L122.398 37.2493L361.748 96.9513L214.454 158.577ZM350.851 250.548L215.093 159.093L362.488 97.4262L350.851 250.548Z" fill="white"/>
<path d="M404.265 100.114C403.974 107.45 401.913 114.607 398.255 120.973C394.598 127.339 389.453 132.724 383.262 136.67C377.07 140.615 370.015 143.003 362.7 143.628C355.385 144.254 348.028 143.1 341.256 140.264C338.08 138.933 335.067 137.24 332.278 135.22C326.948 131.372 322.511 126.418 319.272 120.696V120.691C315.818 114.572 313.83 107.735 313.464 100.717C313.098 93.7 314.365 86.6934 317.164 80.2481C319.963 73.8028 324.218 68.0943 329.596 63.5712C334.973 59.048 341.326 55.8334 348.156 54.18C354.986 52.5265 362.106 52.4791 368.956 54.0417C375.807 55.6042 382.203 58.7341 387.64 63.1853C393.077 67.6366 397.408 73.288 400.293 79.6955C403.177 86.1031 404.537 93.0922 404.264 100.114L404.265 100.114Z" fill="white"/>
<path opacity="0.09" d="M404.265 100.114C403.974 107.45 401.913 114.607 398.255 120.973C394.598 127.339 389.453 132.724 383.262 136.67C377.07 140.615 370.015 143.003 362.7 143.628C355.385 144.254 348.028 143.1 341.256 140.264C338.08 138.933 335.067 137.24 332.278 135.22C326.948 131.372 322.511 126.418 319.272 120.696V120.691C315.818 114.572 313.83 107.735 313.464 100.717C313.098 93.7 314.365 86.6934 317.164 80.2481C319.963 73.8028 324.218 68.0943 329.596 63.5712C334.973 59.048 341.326 55.8334 348.156 54.18C354.986 52.5265 362.106 52.4791 368.956 54.0417C375.807 55.6042 382.203 58.7341 387.64 63.1853C393.077 67.6366 397.408 73.288 400.293 79.6955C403.177 86.1031 404.537 93.0922 404.264 100.114L404.265 100.114Z" fill="#367CFF"/>
<path d="M369.596 63.7412C369.596 63.7412 380.462 63.8743 376.715 78.848L375.695 78.8979L373.624 78.9988" fill="#0C0C0C"/>
<path d="M357.463 94.5579C357.514 94.5532 357.714 103.893 368.57 103.501C376.086 103.23 379.067 95.3828 379.239 95.3893C378.437 95.1865 377.086 94.883 376.735 94.6784C375.58 93.9988 374.145 93.2824 373.854 90.9759C373.686 89.6465 374.32 82.9041 374.257 81.5635L362.654 83.6845C362.706 86.5132 363.577 93.0994 359.589 94.1044C358.925 94.2708 358.212 94.4194 357.463 94.5579Z" fill="#E98862"/>
<path opacity="0.52" d="M362.189 91.5284C362.392 90.9546 362.532 90.3604 362.605 89.7563C362.785 88.3784 362.814 86.9849 362.691 85.6007C365.041 85.3759 367.281 84.4964 369.156 83.062C369.339 83.8576 370.381 87.3518 370.024 88.0888C369.356 89.4826 366.377 91.6911 362.189 91.5284Z" fill="#0C0C0C"/>
<path d="M364.823 89.8774C369.371 89.5519 374.858 86.7828 375.049 80.6194L375.221 75.0592C375.411 68.8968 372.328 63.801 366.527 63.6216C360.725 63.4408 356.234 68.3034 356.043 74.4657L355.967 76.9274C355.956 77.7734 356.002 78.6192 356.105 79.4589C356.363 81.6793 356.763 85.0556 358.225 87.3611C359.605 89.5374 361.917 90.0846 364.823 89.8774Z" fill="#E98862"/>
<path d="M374.63 82.4858C376.393 82.54 377.881 80.698 377.935 78.9353C377.99 77.1725 376.591 76.1557 374.828 76.1011L373.883 77.2542L373.114 82.4388L374.63 82.4858Z" fill="#E98862"/>
<path d="M356.341 81.3205C356.66 81.6982 357.068 81.9902 357.528 82.17C357.988 82.3497 358.486 82.4115 358.976 82.3497C360.025 82.2177 360.72 82.6481 361.596 82.5616C362.331 82.4893 362.458 82.1497 363.712 82.0756C368.553 81.7888 372.186 81.4836 372.422 75.4084L375.503 72.6719C375.503 72.6719 376.88 89.5069 367.774 91.7448C362.179 93.119 356.931 92.6167 356.256 87.3617C355.708 83.0918 356.341 81.3205 356.341 81.3205Z" fill="#0C0C0C"/>
<path d="M358.634 77.8038C359.029 77.8038 359.349 77.4837 359.349 77.0889C359.349 76.6941 359.029 76.374 358.634 76.374C358.239 76.374 357.919 76.6941 357.919 77.0889C357.919 77.4837 358.239 77.8038 358.634 77.8038Z" fill="#0C0C0C"/>
<path d="M365.022 77.671C365.417 77.671 365.737 77.3509 365.737 76.9561C365.737 76.5613 365.417 76.2412 365.022 76.2412C364.627 76.2412 364.307 76.5613 364.307 76.9561C364.307 77.3509 364.627 77.671 365.022 77.671Z" fill="#0C0C0C"/>
<path d="M372.927 79.6207C372.927 79.6207 372.49 70.8885 369.855 70.3016C368.1 69.9107 363.784 72.3315 359.841 71.5048C358.116 71.1431 356.465 71.5409 356.283 72.3561C356.211 72.6787 354.846 69.8177 357.621 66.3366C359.83 63.565 367.015 62.7853 370.211 63.7653C379.061 66.4798 375.185 76.4925 375.185 76.4925L374.733 79.4919L372.927 79.6207Z" fill="#0C0C0C"/>
<path d="M376.949 72.579C379.554 72.579 381.665 70.4674 381.665 67.8625C381.665 65.2577 379.554 63.146 376.949 63.146C374.344 63.146 372.232 65.2577 372.232 67.8625C372.232 70.4674 374.344 72.579 376.949 72.579Z" fill="#0C0C0C"/>
<g opacity="0.52">
<path d="M361.682 82.2792H361.671C361.103 82.263 360.152 82.1726 360.163 81.7477C360.173 81.3955 361.245 77.6211 361.367 77.1916C361.378 77.1546 361.403 77.1234 361.436 77.1047C361.47 77.086 361.509 77.0814 361.546 77.0919C361.583 77.1024 361.614 77.1272 361.633 77.1607C361.652 77.1943 361.656 77.2338 361.646 77.2708C361.17 78.9424 360.46 81.5163 360.452 81.7546C360.506 81.8565 361.091 81.9715 361.679 81.9885C361.717 81.9881 361.754 82.0029 361.782 82.0297C361.809 82.0565 361.825 82.0932 361.825 82.1315C361.826 82.1699 361.811 82.2068 361.784 82.2343C361.757 82.2617 361.721 82.2774 361.682 82.2778V82.2792Z" fill="#0C0C0C"/>
</g>
<path d="M359.952 74.6598C359.365 74.486 358.742 74.4735 358.148 74.6236C357.856 74.6954 357.577 74.8107 357.319 74.9657C357.064 75.1176 356.829 75.3012 356.619 75.5121C356.583 75.5446 356.561 75.5902 356.558 75.6388C356.556 75.6875 356.572 75.7352 356.605 75.7715C356.637 75.8078 356.683 75.8297 356.732 75.8324C356.78 75.8351 356.828 75.8183 356.864 75.7858L356.876 75.7764C357.071 75.6004 357.287 75.4496 357.52 75.3276C357.749 75.2062 357.995 75.1202 358.25 75.0724C358.753 74.974 359.273 75.0103 359.758 75.1776L359.776 75.1845C359.81 75.1977 359.847 75.204 359.883 75.203C359.92 75.202 359.956 75.1937 359.99 75.1786C360.023 75.1635 360.053 75.1419 360.078 75.115C360.103 75.0881 360.122 75.0566 360.135 75.0221C360.148 74.9877 360.153 74.9511 360.152 74.9145C360.15 74.8778 360.141 74.8419 360.125 74.8087C360.11 74.7755 360.088 74.7458 360.06 74.7213C360.033 74.6968 360.001 74.678 359.967 74.6659L359.952 74.6598Z" fill="#0C0C0C"/>
<path d="M364.165 75.1787C364.631 74.9648 365.145 74.8781 365.655 74.9274C365.913 74.95 366.167 75.0118 366.407 75.1107C366.65 75.2094 366.88 75.3383 367.091 75.4944L367.103 75.5023C367.142 75.528 367.19 75.5376 367.236 75.5292C367.282 75.5208 367.324 75.495 367.351 75.4571C367.379 75.4192 367.391 75.3722 367.385 75.3256C367.38 75.279 367.356 75.2364 367.32 75.2066C367.091 75.0171 366.839 74.8572 366.57 74.7307C366.299 74.6016 366.009 74.5139 365.711 74.4707C365.106 74.3795 364.487 74.4528 363.92 74.683C363.853 74.7118 363.801 74.7656 363.774 74.8329C363.746 74.9002 363.747 74.9755 363.775 75.0425C363.802 75.1096 363.856 75.163 363.922 75.1912C363.989 75.2193 364.065 75.2201 364.132 75.1932L364.145 75.1874L364.165 75.1787Z" fill="#0C0C0C"/>
<path d="M393.13 117.879C392.726 120.932 392.331 125.126 391.979 129.463C390.602 130.929 389.129 132.302 387.57 133.573C386.58 134.378 385.557 135.143 384.503 135.868C378.802 139.76 372.292 142.304 365.463 143.309C358.634 144.315 351.666 143.754 345.086 141.671C344.996 137.643 344.874 132.21 344.753 127.232C344.613 121.49 344.473 116.349 344.397 114.66C344.085 107.956 342.308 103.483 343.652 99.8253C344.053 98.7426 344.699 97.7671 345.539 96.9745C348.669 93.9111 356.444 93.9809 359.563 94.102C359.617 94.1042 358.653 101.301 368.913 101.214C376.455 101.153 377.02 94.7794 377.02 94.7794C377.02 94.7794 380.737 95.166 383.204 95.5945C387.241 96.3015 389.865 97.7821 391.908 99.9931C393.813 102.055 394.937 104.243 393.13 117.879Z" fill="#367CFF"/>
<path d="M332.811 94.8121L333.121 87.1327C333.128 86.9638 333.1 86.7953 333.038 86.6379C332.977 86.4806 332.883 86.3378 332.763 86.2187C332.643 86.0996 332.499 86.0068 332.342 85.9462C332.184 85.8857 332.015 85.8587 331.846 85.867C331.535 85.8921 331.245 86.0318 331.031 86.259C330.817 86.4861 330.695 86.7846 330.689 87.0965L330.622 88.7435L328.454 83.4697C328.223 82.8791 327.562 82.3019 326.916 82.6046C326.66 82.7048 326.446 82.8888 326.308 83.1266C326.17 83.3643 326.117 83.6418 326.157 83.9138C326.151 83.9145 326.145 83.9159 326.139 83.9177C326.135 83.92 326.131 83.9227 326.127 83.9257L325.771 83.0151C325.705 82.8464 325.603 82.6946 325.471 82.5707C325.338 82.4467 325.18 82.3539 325.008 82.2988C324.835 82.2438 324.653 82.2279 324.473 82.2524C324.294 82.2769 324.122 82.3411 323.97 82.4404C323.735 82.6015 323.562 82.8386 323.48 83.112C323.399 83.3854 323.414 83.6785 323.522 83.9423L323.674 84.3296C323.665 84.3393 323.657 84.3504 323.652 84.3625C323.489 84.1247 323.247 83.9526 322.968 83.8769C322.69 83.8012 322.394 83.8268 322.133 83.9492C321.851 84.0919 321.633 84.3356 321.523 84.6317C321.413 84.9277 321.419 85.2544 321.539 85.5466L321.915 86.5092C321.9 86.4994 321.883 86.4932 321.866 86.4911C321.848 86.4891 321.83 86.4914 321.813 86.4977C321.794 86.5063 321.777 86.5204 321.766 86.5382C321.561 86.3665 321.306 86.2665 321.04 86.2538C320.774 86.2411 320.51 86.3162 320.291 86.4677C320.063 86.6315 319.898 86.8673 319.821 87.1369C319.745 87.4064 319.761 87.6939 319.868 87.9529L323.042 96.075C323.486 97.2112 324.26 98.189 325.263 98.8829C326.266 99.5768 327.454 99.9553 328.674 99.9698C329.726 99.9823 330.741 99.5841 331.504 98.86C332.267 98.1358 332.718 97.1427 332.76 96.0916L332.811 94.8121Z" fill="#E98862"/>
<g opacity="0.2">
<path d="M328.277 89.1432C328.249 89.1539 328.219 89.1533 328.192 89.1417C328.165 89.13 328.143 89.1083 328.132 89.081L326.077 84.0632C326.071 84.0494 326.067 84.0344 326.066 84.0191C326.066 84.0039 326.069 83.9887 326.074 83.9745C326.08 83.9602 326.088 83.9473 326.099 83.9364C326.109 83.9256 326.122 83.917 326.136 83.9112C326.15 83.9054 326.166 83.9026 326.181 83.9028C326.196 83.9031 326.211 83.9065 326.225 83.9128C326.239 83.919 326.251 83.9281 326.262 83.9393C326.272 83.9506 326.28 83.9638 326.285 83.9782L328.34 88.9961C328.346 89.0097 328.348 89.0243 328.348 89.0391C328.348 89.0538 328.345 89.0684 328.34 89.082C328.334 89.0957 328.326 89.108 328.315 89.1184C328.305 89.1287 328.292 89.1369 328.279 89.1425L328.277 89.1432Z" fill="#0C0C0C"/>
</g>
<g opacity="0.2">
<path d="M326.088 90.1109C326.061 90.1216 326.03 90.121 326.003 90.1093C325.976 90.0976 325.955 90.0757 325.944 90.0483L323.65 84.4483C323.64 84.4209 323.64 84.3904 323.652 84.3634C323.663 84.3363 323.685 84.3149 323.712 84.3036C323.739 84.2939 323.769 84.2947 323.796 84.306C323.823 84.3173 323.844 84.3383 323.856 84.3648L326.15 89.9648C326.161 89.9924 326.161 90.0233 326.149 90.0507C326.138 90.0782 326.116 90.0999 326.088 90.1112V90.1109Z" fill="#0C0C0C"/>
</g>
<g opacity="0.2">
<path d="M323.724 91.1728C323.697 91.1835 323.666 91.1829 323.639 91.1712C323.612 91.1595 323.591 91.1376 323.58 91.1102L321.751 86.6434C321.739 86.6159 321.739 86.585 321.751 86.5576C321.762 86.5301 321.784 86.5084 321.812 86.4971C321.839 86.4859 321.87 86.486 321.898 86.4975C321.925 86.509 321.947 86.5309 321.958 86.5584L323.789 91.0241C323.8 91.0517 323.8 91.0826 323.788 91.1101C323.777 91.1375 323.755 91.1593 323.727 91.1706L323.724 91.1728Z" fill="#0C0C0C"/>
</g>
<path d="M358.231 106.851L339.541 135.586C338.861 136.63 337.951 137.505 336.88 138.143C335.287 137.264 333.75 136.289 332.277 135.221C329.138 132.956 326.302 130.299 323.837 127.315L319.911 96.8777L335.622 94.3604L337.413 109.011L344.591 97.9764L358.231 106.851Z" fill="#367CFF"/>
<path d="M360.422 83.8483C362.137 83.9621 363.84 83.5014 365.263 82.5389C365.312 82.5058 365.37 82.4874 365.429 82.4859C365.489 82.4844 365.547 82.4999 365.598 82.5305C365.649 82.5611 365.691 82.6056 365.717 82.6588C365.744 82.7119 365.755 82.7716 365.749 82.8307C365.634 83.8432 365.134 85.7054 363.01 85.9426C361.638 86.0956 360.644 85.0423 360.143 84.3419C360.109 84.2934 360.089 84.236 360.085 84.1766C360.082 84.1171 360.096 84.058 360.125 84.0061C360.155 83.9543 360.198 83.9119 360.251 83.8839C360.304 83.856 360.363 83.8436 360.422 83.8483Z" fill="white"/>
<path d="M398.198 121.109C395.436 125.87 391.835 130.093 387.57 133.573C386.579 134.378 385.557 135.143 384.502 135.868L377.203 108.098L393.642 103.773L398.198 121.109Z" fill="#367CFF"/>
<path d="M384.662 135.76C384.61 135.794 384.554 135.832 384.502 135.868C384.451 135.904 384.398 135.94 384.346 135.974L378.783 114.818L379.134 114.727L384.662 135.76Z" fill="#0C0C0C"/>
<path d="M344.796 128.54C344.751 128.538 344.708 128.519 344.676 128.487C344.644 128.455 344.625 128.413 344.623 128.367L344.264 120.485C344.262 120.437 344.279 120.39 344.312 120.354C344.344 120.319 344.389 120.298 344.437 120.296C344.485 120.293 344.532 120.31 344.567 120.343C344.603 120.375 344.624 120.42 344.626 120.468L344.984 128.351C344.986 128.399 344.97 128.446 344.937 128.481C344.905 128.516 344.86 128.538 344.812 128.54H344.796Z" fill="#0C0C0C"/>
<path d="M209.59 201.493C235.178 201.493 255.921 180.75 255.921 155.162C255.921 129.573 235.178 108.83 209.59 108.83C184.002 108.83 163.258 129.573 163.258 155.162C163.258 180.75 184.002 201.493 209.59 201.493Z" fill="white"/>
<path opacity="0.09" d="M255.921 155.16C255.921 164.324 253.204 173.281 248.113 180.9C243.022 188.519 235.786 194.458 227.321 197.964C218.855 201.471 209.539 202.388 200.552 200.601C191.565 198.813 183.309 194.4 176.83 187.921C170.35 181.442 165.938 173.186 164.15 164.199C162.362 155.212 163.28 145.896 166.787 137.43C170.293 128.964 176.231 121.728 183.851 116.638C191.47 111.547 200.427 108.829 209.591 108.829C215.681 108.807 221.716 109.99 227.347 112.31C232.978 114.631 238.095 118.042 242.402 122.349C246.708 126.656 250.12 131.772 252.44 137.404C254.761 143.035 255.944 149.07 255.921 155.16Z" fill="#367CFF"/>
<path d="M189.081 127.835C189.081 127.835 188.615 134.829 187.041 137.366C182.511 144.672 181.199 152.89 185.735 157.184C190.272 161.479 219.207 161.538 221.399 151.662C223.243 143.348 219.284 142.454 218.321 135.595C217.884 132.492 216.685 125.985 216.685 125.985" fill="#0A0A0A"/>
<path d="M213.909 150.212C213.859 150.205 213.305 159.402 202.621 158.602C195.225 158.048 192.588 150.2 192.418 150.2C193.215 150.031 194.558 149.785 194.913 149.596C196.078 148.97 197.519 148.319 197.894 146.057C198.111 144.755 197.743 138.084 197.858 136.765L209.211 139.299C209.053 142.084 207.942 148.543 211.834 149.685C212.48 149.873 213.177 150.047 213.909 150.212Z" fill="#E98862"/>
<path opacity="0.5" d="M209.369 147.046C209.191 146.472 209.077 145.882 209.028 145.283C208.903 143.919 208.928 142.544 209.102 141.185C206.794 140.874 204.62 139.922 202.827 138.437C202.616 139.215 201.457 142.617 201.778 143.357C202.386 144.755 205.236 147.046 209.369 147.046Z" fill="#0C0C0C"/>
<path d="M207.901 144.181C203.425 144.615 197.633 142.823 196.433 136.862L195.351 131.484C194.151 125.523 196.309 120.06 201.922 118.931C207.534 117.801 212.702 121.788 213.902 127.75L214.381 130.131C214.842 132.419 215.887 143.408 207.901 144.181Z" fill="#E98862"/>
<path opacity="0.1" d="M205.055 136.37C205.791 136.282 206.336 135.773 206.272 135.232C206.207 134.692 205.558 134.325 204.821 134.413C204.085 134.501 203.54 135.01 203.605 135.551C203.669 136.091 204.318 136.458 205.055 136.37Z" fill="#0C0C0C"/>
<path opacity="0.1" d="M212.839 134.209C212.905 134.748 213.554 135.113 214.291 135.028C214.418 135.012 214.544 134.984 214.665 134.943C214.699 134.3 214.701 133.681 214.682 133.108C214.478 133.057 214.266 133.045 214.057 133.072C213.32 133.158 212.775 133.667 212.839 134.209Z" fill="#0C0C0C"/>
<path opacity="0.5" d="M209.584 135.876H209.595C209.823 135.828 210.047 135.768 210.268 135.695C210.597 135.587 211.027 135.404 210.969 135.106C210.9 134.766 209.233 131.289 209.042 130.894C209.025 130.861 208.995 130.837 208.96 130.826C208.925 130.814 208.886 130.817 208.853 130.833C208.82 130.849 208.794 130.877 208.781 130.912C208.767 130.946 208.768 130.985 208.782 131.019C209.493 132.502 210.639 134.934 210.685 135.163C210.649 135.27 210.103 135.478 209.538 135.592C209.502 135.6 209.471 135.621 209.451 135.652C209.43 135.682 209.422 135.72 209.428 135.756C209.434 135.792 209.453 135.825 209.482 135.847C209.511 135.87 209.548 135.88 209.584 135.877V135.876Z" fill="#0C0C0C"/>
<path d="M190.872 133.414L195.904 132.431C199.705 130.84 200.784 124.217 200.784 124.217C200.784 124.217 205.474 128.685 216.685 125.983C216.685 125.983 214.25 110.333 197.696 115.083C192.358 116.615 188.578 122.056 189.14 129.262C189.534 134.313 190.872 133.414 190.872 133.414Z" fill="#0A0A0A"/>
<path d="M197.147 138.607C195.442 138.95 193.692 137.404 193.35 135.698C193.008 133.992 194.2 132.774 195.906 132.431L197.014 133.396L198.615 138.312L197.147 138.607Z" fill="#E98862"/>
<path d="M210.252 128.121C210.678 127.819 211.178 127.635 211.698 127.589C211.96 127.564 212.223 127.579 212.48 127.632C212.74 127.685 212.991 127.77 213.23 127.885L213.237 127.889C213.263 127.899 213.293 127.899 213.319 127.889C213.345 127.879 213.367 127.859 213.379 127.833C213.391 127.808 213.393 127.778 213.384 127.751C213.375 127.725 213.356 127.702 213.331 127.689C213.079 127.555 212.811 127.455 212.533 127.389C212.254 127.32 211.966 127.295 211.679 127.313C211.098 127.345 210.536 127.532 210.052 127.855C210.033 127.867 210.017 127.882 210.004 127.901C209.991 127.919 209.982 127.94 209.978 127.962C209.974 127.983 209.973 128.006 209.978 128.028C209.982 128.049 209.991 128.07 210.003 128.089C210.016 128.107 210.032 128.123 210.051 128.135C210.07 128.147 210.09 128.155 210.112 128.159C210.134 128.162 210.157 128.162 210.178 128.157C210.2 128.152 210.22 128.142 210.238 128.129L210.242 128.127L210.252 128.121Z" fill="#0C0C0C"/>
<path d="M205.656 128.756C205.084 128.642 204.493 128.684 203.944 128.877C203.672 128.971 203.416 129.105 203.184 129.275C202.953 129.442 202.744 129.638 202.562 129.858C202.543 129.879 202.534 129.908 202.536 129.936C202.538 129.965 202.551 129.992 202.572 130.011C202.593 130.03 202.621 130.041 202.649 130.04C202.678 130.039 202.705 130.027 202.725 130.007L202.731 130C202.907 129.802 203.106 129.627 203.326 129.479C203.543 129.331 203.781 129.217 204.032 129.14C204.531 128.983 205.062 128.962 205.572 129.077L205.584 129.08C205.606 129.086 205.628 129.087 205.65 129.084C205.672 129.081 205.693 129.074 205.712 129.062C205.731 129.051 205.747 129.036 205.761 129.018C205.774 129.001 205.783 128.98 205.788 128.959C205.794 128.937 205.794 128.915 205.791 128.893C205.787 128.871 205.779 128.851 205.768 128.832C205.756 128.813 205.741 128.797 205.723 128.784C205.705 128.771 205.684 128.762 205.663 128.758L205.656 128.756Z" fill="#0C0C0C"/>
<path d="M195.908 132.348C199.29 131.089 200.412 128.753 200.758 127.015C200.982 125.856 200.961 124.662 200.697 123.512L200.592 123.541C200.852 124.676 200.872 125.854 200.651 126.998C200.31 128.707 199.204 131.006 195.87 132.246L195.908 132.348Z" fill="#0C0C0C"/>
<path d="M238.672 148.381L240.697 141.509C240.742 141.359 240.817 141.219 240.919 141.098C241.02 140.978 241.146 140.88 241.287 140.811C241.429 140.742 241.583 140.703 241.74 140.697C241.897 140.691 242.054 140.718 242.2 140.775C242.467 140.89 242.682 141.1 242.803 141.365C242.924 141.629 242.942 141.929 242.855 142.206L242.421 143.679L245.912 139.673C246.292 139.221 247.048 138.909 247.527 139.369C247.723 139.534 247.857 139.761 247.908 140.012C247.959 140.263 247.923 140.524 247.806 140.752C247.811 140.754 247.816 140.757 247.82 140.761C247.823 140.764 247.826 140.768 247.828 140.771L248.415 140.074C248.524 139.945 248.66 139.842 248.813 139.772C248.967 139.702 249.134 139.667 249.303 139.67C249.472 139.673 249.638 139.714 249.789 139.789C249.94 139.865 250.072 139.973 250.176 140.106C250.336 140.318 250.417 140.579 250.408 140.845C250.398 141.11 250.297 141.365 250.122 141.565L249.873 141.862C249.878 141.873 249.881 141.885 249.882 141.898C250.097 141.737 250.363 141.657 250.631 141.674C250.9 141.69 251.153 141.802 251.347 141.988C251.553 142.198 251.673 142.478 251.681 142.772C251.69 143.067 251.587 143.353 251.394 143.575L250.774 144.312C250.79 144.308 250.807 144.307 250.823 144.311C250.839 144.314 250.854 144.322 250.867 144.332C250.882 144.346 250.892 144.363 250.897 144.383C251.129 144.292 251.384 144.281 251.623 144.35C251.862 144.419 252.072 144.564 252.22 144.764C252.371 144.977 252.446 145.234 252.433 145.495C252.42 145.756 252.319 146.005 252.147 146.201L246.917 152.421C246.185 153.291 245.21 153.923 244.117 154.235C243.024 154.547 241.862 154.526 240.781 154.174C239.849 153.87 239.073 153.215 238.616 152.348C238.159 151.481 238.059 150.469 238.336 149.529L238.672 148.381Z" fill="#E98862"/>
<g opacity="0.2">
<path d="M244.368 144.735C244.389 144.752 244.416 144.76 244.443 144.758C244.47 144.756 244.495 144.743 244.513 144.723L247.827 140.909C247.845 140.888 247.854 140.861 247.852 140.834C247.85 140.806 247.838 140.78 247.817 140.762C247.796 140.744 247.768 140.735 247.741 140.737C247.713 140.739 247.687 140.751 247.669 140.772L244.355 144.586C244.346 144.596 244.339 144.608 244.334 144.621C244.33 144.634 244.328 144.648 244.329 144.662C244.33 144.675 244.334 144.689 244.34 144.701C244.346 144.713 244.355 144.724 244.365 144.733L244.368 144.735Z" fill="#0C0C0C"/>
</g>
<g opacity="0.2">
<path d="M246.011 146.244C246.032 146.261 246.058 146.269 246.085 146.267C246.112 146.265 246.137 146.252 246.155 146.232L249.854 141.976C249.863 141.965 249.87 141.953 249.874 141.94C249.879 141.927 249.88 141.914 249.879 141.9C249.878 141.886 249.875 141.873 249.869 141.861C249.862 141.848 249.854 141.837 249.843 141.828C249.822 141.811 249.795 141.803 249.768 141.804C249.74 141.806 249.715 141.819 249.696 141.839L246 146.095C245.991 146.105 245.984 146.117 245.98 146.13C245.975 146.143 245.973 146.157 245.974 146.171C245.975 146.184 245.979 146.198 245.985 146.21C245.991 146.222 246 146.233 246.01 146.242L246.011 146.244Z" fill="#0C0C0C"/>
</g>
<g opacity="0.2">
<path d="M247.779 147.888C247.8 147.905 247.826 147.913 247.853 147.911C247.88 147.909 247.906 147.896 247.923 147.876L250.874 144.481C250.89 144.46 250.898 144.433 250.896 144.407C250.893 144.38 250.88 144.355 250.86 144.338C250.84 144.32 250.814 144.311 250.787 144.312C250.76 144.313 250.735 144.325 250.716 144.344L247.765 147.739C247.756 147.749 247.749 147.761 247.745 147.774C247.741 147.787 247.739 147.801 247.74 147.815C247.741 147.828 247.745 147.842 247.751 147.854C247.757 147.866 247.765 147.877 247.776 147.886L247.779 147.888Z" fill="#0C0C0C"/>
</g>
<path d="M250.997 151.38L243.168 186.901C243.15 186.98 243.132 187.063 243.11 187.143C241.352 188.983 239.447 190.677 237.414 192.209C237.006 192.513 236.597 192.813 236.177 193.103C235.918 193.132 235.657 193.146 235.396 193.146C234.001 193.146 232.63 192.778 231.421 192.081C230.213 191.383 229.209 190.38 228.511 189.172L213.589 163.353L227.368 155.394L232.037 163.473L235.458 147.955L250.997 151.38Z" fill="#003D2B"/>
<path d="M226.902 167.575C226.855 168.138 226.761 169.144 226.63 170.468C225.979 177.234 224.457 192.314 223.752 199.283C214.843 202.131 205.282 202.228 196.318 199.562H196.314C189.693 197.58 183.601 194.14 178.485 189.494C178.514 183.263 178.424 176.254 178.004 171.748C176.749 158.284 177.936 156.176 179.885 154.227C180.044 154.067 180.21 153.912 180.377 153.76C182.391 151.93 184.919 150.737 188.604 150.237C191.041 149.909 194.708 149.67 194.708 149.67C194.708 149.67 195.019 155.955 202.422 156.302C212.501 156.776 211.828 149.67 211.879 149.67C214.414 149.67 220.056 149.829 223.614 151.641C223.618 151.641 223.618 151.641 223.621 151.644C224.338 151.993 224.99 152.462 225.549 153.03C229.625 157.348 227.614 159.194 226.902 167.575Z" fill="#003D2B"/>
<path d="M211.084 137.051C209.63 137.791 207.971 138.024 206.369 137.716C206.313 137.705 206.256 137.711 206.203 137.732C206.151 137.753 206.106 137.788 206.072 137.834C206.039 137.879 206.02 137.934 206.017 137.99C206.013 138.046 206.026 138.103 206.053 138.152C206.532 138.993 207.664 140.432 209.607 139.846C210.862 139.467 211.336 138.177 211.512 137.378C211.524 137.322 211.52 137.265 211.501 137.212C211.481 137.159 211.447 137.112 211.402 137.078C211.357 137.044 211.303 137.023 211.247 137.018C211.191 137.013 211.134 137.025 211.084 137.051Z" fill="white"/>
<path d="M211.176 130.582C211.564 130.582 211.879 130.268 211.879 129.88C211.879 129.492 211.564 129.177 211.176 129.177C210.788 129.177 210.474 129.492 210.474 129.88C210.474 130.268 210.788 130.582 211.176 130.582Z" fill="#0C0C0C"/>
<path d="M204.423 131.765C204.811 131.765 205.125 131.45 205.125 131.062C205.125 130.674 204.811 130.36 204.423 130.36C204.035 130.36 203.72 130.674 203.72 131.062C203.72 131.45 204.035 131.765 204.423 131.765Z" fill="#0C0C0C"/>
<path d="M225.347 182.743C225.343 182.743 225.338 182.743 225.333 182.743C225.305 182.739 225.279 182.724 225.262 182.701C225.244 182.678 225.237 182.649 225.241 182.621L226.483 170.105C226.485 170.09 226.489 170.077 226.496 170.064C226.503 170.052 226.513 170.041 226.525 170.032C226.536 170.024 226.549 170.017 226.563 170.014C226.577 170.01 226.591 170.01 226.606 170.012C226.634 170.016 226.66 170.031 226.677 170.054C226.695 170.077 226.702 170.106 226.698 170.134L225.456 182.65C225.452 182.676 225.439 182.7 225.419 182.717C225.399 182.734 225.373 182.743 225.347 182.743Z" fill="#0C0C0C"/>
<path d="M217.828 182.14L224.618 179.108C224.767 179.042 224.928 179.007 225.091 179.006C225.255 179.006 225.416 179.039 225.566 179.104C225.715 179.169 225.85 179.265 225.961 179.385C226.071 179.504 226.156 179.646 226.209 179.8C226.298 180.088 226.278 180.399 226.151 180.673C226.024 180.947 225.8 181.163 225.522 181.281L224.066 181.932L229.583 181.989C230.198 181.985 230.952 182.372 230.912 183.06C230.914 183.326 230.825 183.585 230.661 183.794C230.497 184.003 230.267 184.151 230.008 184.212C230.009 184.218 230.01 184.224 230.01 184.23C230.01 184.234 230.009 184.239 230.008 184.243L230.954 184.237C231.129 184.235 231.302 184.273 231.461 184.348C231.619 184.422 231.759 184.53 231.87 184.665C231.982 184.8 232.061 184.959 232.104 185.128C232.146 185.298 232.15 185.475 232.116 185.647C232.055 185.916 231.904 186.156 231.688 186.328C231.471 186.499 231.203 186.59 230.927 186.587L230.524 186.59C230.519 186.602 230.512 186.613 230.503 186.622C230.775 186.683 231.017 186.839 231.185 187.062C231.353 187.285 231.436 187.561 231.419 187.839C231.392 188.144 231.251 188.427 231.025 188.632C230.798 188.837 230.503 188.949 230.197 188.946L229.197 188.953C229.211 188.963 229.223 188.976 229.231 188.991C229.239 189.006 229.243 189.023 229.244 189.041C229.243 189.061 229.236 189.081 229.224 189.098C229.452 189.22 229.634 189.413 229.741 189.649C229.848 189.884 229.874 190.148 229.816 190.4C229.751 190.663 229.598 190.896 229.384 191.061C229.169 191.227 228.905 191.315 228.634 191.312L220.197 191.372C219.017 191.381 217.861 191.036 216.877 190.383C215.894 189.731 215.128 188.799 214.678 187.708C214.289 186.767 214.282 185.712 214.66 184.767C215.037 183.821 215.768 183.06 216.697 182.645L217.828 182.14Z" fill="#E98862"/>
<g opacity="0.2">
<path d="M224.547 184.183C224.547 184.212 224.558 184.24 224.579 184.26C224.599 184.28 224.627 184.292 224.655 184.292L229.901 184.339C229.93 184.339 229.958 184.328 229.978 184.308C229.999 184.288 230.011 184.26 230.011 184.231C230.011 184.203 230 184.175 229.98 184.154C229.959 184.134 229.932 184.122 229.903 184.122L224.656 184.075C224.628 184.075 224.6 184.086 224.58 184.106C224.559 184.127 224.548 184.154 224.548 184.183H224.547Z" fill="#0C0C0C"/>
</g>
<g opacity="0.2">
<path d="M224.462 186.498C224.462 186.526 224.474 186.554 224.494 186.574C224.514 186.595 224.542 186.606 224.571 186.606L230.425 186.659C230.454 186.659 230.481 186.647 230.502 186.627C230.522 186.607 230.533 186.579 230.533 186.55C230.533 186.522 230.521 186.495 230.501 186.475C230.481 186.454 230.454 186.443 230.425 186.442L224.57 186.389C224.542 186.389 224.514 186.401 224.494 186.421C224.473 186.441 224.462 186.469 224.462 186.498Z" fill="#0C0C0C"/>
</g>
<g opacity="0.2">
<path d="M224.356 189.001C224.356 189.03 224.367 189.058 224.388 189.078C224.408 189.098 224.436 189.11 224.464 189.11L229.134 189.152C229.163 189.152 229.191 189.141 229.211 189.12C229.232 189.1 229.243 189.072 229.243 189.043C229.243 189.015 229.232 188.987 229.211 188.967C229.191 188.946 229.163 188.935 229.134 188.935L224.464 188.893C224.436 188.893 224.408 188.905 224.388 188.925C224.367 188.945 224.356 188.973 224.356 189.002V189.001Z" fill="#0C0C0C"/>
</g>
<path d="M219.773 194.231L196.317 199.561H196.314C189.693 197.58 183.601 194.139 178.485 189.493C177.935 188.994 177.397 188.483 176.872 187.96C175.956 187.045 175.079 186.094 174.243 185.107L177.526 158.692C177.885 156.563 179.074 154.663 180.833 153.411C182.592 152.159 184.776 151.656 186.905 152.015C189.035 152.373 190.935 153.562 192.187 155.321C193.439 157.08 193.941 159.265 193.583 161.394L191.507 186.195L217.661 180.275L219.773 194.231Z" fill="#003D2B"/>
<path d="M186.217 187.169C186.203 187.17 186.188 187.169 186.175 187.164C186.161 187.16 186.149 187.153 186.138 187.143C186.127 187.134 186.118 187.123 186.112 187.11C186.105 187.097 186.101 187.083 186.1 187.069C186.099 187.055 186.101 187.04 186.106 187.027C186.11 187.013 186.117 187.001 186.126 186.99C186.136 186.979 186.147 186.97 186.16 186.964C186.173 186.957 186.186 186.953 186.201 186.952L191.444 185.831C191.458 185.829 191.472 185.83 191.486 185.833C191.5 185.837 191.513 185.843 191.525 185.851C191.536 185.86 191.546 185.87 191.553 185.883C191.561 185.895 191.565 185.908 191.568 185.922C191.57 185.937 191.569 185.951 191.565 185.965C191.562 185.979 191.556 185.992 191.547 186.003C191.539 186.015 191.528 186.024 191.516 186.032C191.504 186.039 191.49 186.044 191.476 186.046L186.231 187.167C186.226 187.168 186.222 187.169 186.217 187.169Z" fill="#0C0C0C"/>
<path d="M219.773 194.231C219.779 194.259 219.774 194.288 219.759 194.312C219.744 194.336 219.721 194.354 219.693 194.361L196.907 199.732C196.762 199.692 196.621 199.652 196.48 199.608L219.534 194.18L217.48 180.438L191.482 186.047C191.465 186.05 191.448 186.048 191.432 186.043C191.415 186.039 191.4 186.03 191.388 186.018C191.377 186.005 191.369 185.99 191.364 185.974C191.359 185.958 191.357 185.941 191.359 185.924L192.816 171.752C192.819 171.738 192.824 171.724 192.832 171.712C192.84 171.7 192.85 171.69 192.862 171.682C192.873 171.674 192.887 171.668 192.901 171.665C192.915 171.662 192.929 171.662 192.943 171.664C192.971 171.669 192.997 171.684 193.014 171.707C193.031 171.731 193.038 171.759 193.033 171.788L191.598 185.816L217.527 180.196C217.541 180.192 217.556 180.191 217.57 180.194C217.585 180.196 217.599 180.202 217.61 180.21C217.623 180.217 217.634 180.226 217.643 180.237C217.651 180.249 217.658 180.261 217.661 180.275L219.773 194.231Z" fill="#0C0C0C"/>
<path d="M43.4354 254.876C66.8983 254.876 85.9187 235.855 85.9187 212.392C85.9187 188.93 66.8983 169.909 43.4354 169.909C19.9726 169.909 0.952148 188.93 0.952148 212.392C0.952148 235.855 19.9726 254.876 43.4354 254.876Z" fill="white"/>
<path opacity="0.09" d="M43.4354 254.876C66.8983 254.876 85.9187 235.855 85.9187 212.392C85.9187 188.93 66.8983 169.909 43.4354 169.909C19.9726 169.909 0.952148 188.93 0.952148 212.392C0.952148 235.855 19.9726 254.876 43.4354 254.876Z" fill="#367CFF"/>
<path d="M31.7358 188.296C31.7358 188.296 32.1962 201.091 40.7363 201.679L42.1829 184.807L31.7358 188.296Z" fill="#0A0A0A"/>
<path d="M33.3801 204.293C36.1743 204.293 38.4395 202.027 38.4395 199.233C38.4395 196.439 36.1743 194.174 33.3801 194.174C30.5859 194.174 28.3208 196.439 28.3208 199.233C28.3208 202.027 30.5859 204.293 33.3801 204.293Z" fill="#0A0A0A"/>
<path d="M53.1766 207.617C53.1314 207.61 52.6316 215.907 42.9932 215.184C36.3205 214.685 33.9417 207.606 33.7891 207.606C34.5516 207.479 35.3037 207.297 36.0395 207.06C37.0901 206.495 38.3902 205.908 38.7287 203.868C38.924 202.692 38.5931 196.675 38.6947 195.485L48.9371 197.772C48.7924 200.284 47.7921 206.11 51.3029 207.141C51.8866 207.312 52.5159 207.469 53.1766 207.617Z" fill="#E98862"/>
<path opacity="0.5" d="M49.0791 204.759C48.9185 204.242 48.8152 203.708 48.771 203.168C48.6585 201.937 48.681 200.698 48.8379 199.472C46.7564 199.191 44.7955 198.331 43.1778 196.992C42.9876 197.694 41.9419 200.763 42.2315 201.43C42.779 202.694 45.351 204.759 49.0791 204.759Z" fill="#0C0C0C"/>
<path d="M47.4754 202.525C43.4188 202.577 38.3476 200.53 37.719 195.081L37.152 190.163C36.5231 184.713 38.8756 179.964 44.0065 179.374C49.1371 178.782 53.4815 182.757 54.1104 188.206L54.3613 190.383C54.6026 192.475 54.7132 202.433 47.4754 202.525Z" fill="#E98862"/>
<path d="M52.8904 190.236C53.2414 190.236 53.526 189.951 53.526 189.6C53.526 189.249 53.2414 188.965 52.8904 188.965C52.5394 188.965 52.2549 189.249 52.2549 189.6C52.2549 189.951 52.5394 190.236 52.8904 190.236Z" fill="#0C0C0C"/>
<path d="M46.3885 190.979C46.7395 190.979 47.024 190.695 47.024 190.344C47.024 189.993 46.7395 189.708 46.3885 189.708C46.0375 189.708 45.7529 189.993 45.7529 190.344C45.7529 190.695 46.0375 190.979 46.3885 190.979Z" fill="#0C0C0C"/>
<path opacity="0.5" d="M49.6159 195.187H49.626C49.8338 195.162 50.0401 195.125 50.244 195.077C50.5484 195.003 50.9498 194.873 50.9183 194.6C50.8822 194.29 49.6459 191.038 49.5049 190.668C49.4988 190.652 49.4896 190.638 49.4778 190.625C49.4661 190.613 49.452 190.603 49.4364 190.596C49.4207 190.589 49.4039 190.585 49.3868 190.585C49.3697 190.584 49.3527 190.587 49.3367 190.593C49.3207 190.599 49.3061 190.608 49.2937 190.62C49.2813 190.632 49.2713 190.646 49.2643 190.662C49.2573 190.677 49.2535 190.694 49.253 190.711C49.2525 190.728 49.2554 190.745 49.2615 190.761C49.7891 192.146 50.6356 194.421 50.6594 194.63C50.334 194.813 49.9693 194.916 49.596 194.929C49.5615 194.932 49.5296 194.948 49.5071 194.974C49.4846 195 49.4735 195.034 49.4761 195.069C49.4787 195.103 49.495 195.135 49.5212 195.158C49.5474 195.18 49.5814 195.191 49.6159 195.189V195.187Z" fill="#0C0C0C"/>
<path opacity="0.5" d="M48.698 197.455C49.5313 197.407 50.3416 197.164 51.064 196.746C51.0924 196.729 51.113 196.701 51.1214 196.668C51.1299 196.636 51.1255 196.602 51.1093 196.572C51.0931 196.543 51.0663 196.521 51.0343 196.511C51.0024 196.501 50.9678 196.503 50.9378 196.518C49.3778 197.381 47.8859 197.431 46.6239 196.663C46.5984 196.646 46.5721 196.632 46.5451 196.618C46.5138 196.606 46.4791 196.606 46.448 196.619C46.417 196.632 46.3921 196.656 46.3784 196.687C46.3648 196.717 46.3635 196.752 46.3748 196.784C46.3861 196.815 46.4091 196.841 46.4391 196.856C46.4489 196.861 46.4655 196.871 46.4883 196.886C47.1518 197.291 47.9212 197.489 48.698 197.455Z" fill="#0C0C0C"/>
<path d="M32.9802 191.561L37.5777 191.057C41.1142 189.915 42.5835 184.041 42.5835 184.041C42.5835 184.041 45.7526 187.645 55.1436 186C55.1436 186 54.7798 173.893 40.4972 175.597C35.5243 176.191 31.7745 181.178 31.7358 187.699C31.709 192.268 32.9802 191.561 32.9802 191.561Z" fill="#0A0A0A"/>
<path d="M38.2285 196.704C36.6693 196.885 35.2132 195.361 35.0335 193.802C34.8537 192.243 36.0181 191.238 37.5773 191.058L38.5012 192.01L39.569 196.549L38.2285 196.704Z" fill="#E98862"/>
<path d="M50.6409 188.014C51.1008 187.759 51.6205 187.633 52.1459 187.648C52.4053 187.653 52.6624 187.698 52.9085 187.78C53.153 187.861 53.3864 187.972 53.6031 188.11C53.6248 188.124 53.6404 188.146 53.6465 188.171C53.6527 188.196 53.6489 188.222 53.6361 188.245C53.6233 188.267 53.6024 188.283 53.5777 188.291C53.553 188.298 53.5265 188.295 53.5037 188.283L53.4972 188.28C53.2918 188.158 53.072 188.062 52.8427 187.995C52.6156 187.927 52.3796 187.894 52.1427 187.897C51.6711 187.9 51.2087 188.027 50.8022 188.266L50.7925 188.272C50.7757 188.283 50.7568 188.29 50.737 188.294C50.7173 188.298 50.697 188.297 50.6774 188.293C50.6577 188.288 50.6392 188.28 50.6229 188.268C50.6066 188.257 50.5928 188.242 50.5823 188.224C50.5719 188.207 50.565 188.188 50.5621 188.168C50.5592 188.148 50.5603 188.128 50.5654 188.109C50.5705 188.089 50.5795 188.071 50.5918 188.055C50.6041 188.039 50.6194 188.026 50.637 188.016L50.6409 188.014Z" fill="#0C0C0C"/>
<path d="M46.5198 188.772C46.0703 188.629 45.591 188.609 45.1309 188.712C44.8992 188.763 44.6764 188.848 44.4703 188.965C44.2619 189.082 44.069 189.224 43.896 189.389L43.8906 189.394C43.871 189.408 43.8466 189.415 43.8223 189.413C43.7979 189.411 43.7752 189.4 43.7584 189.382C43.7417 189.364 43.7321 189.34 43.7315 189.316C43.7308 189.292 43.7392 189.268 43.755 189.249C43.9353 189.065 44.1379 188.905 44.3582 188.772C44.5798 188.637 44.8204 188.536 45.072 188.472C45.5807 188.34 46.1156 188.348 46.6207 188.493C46.6402 188.498 46.6585 188.507 46.6745 188.519C46.6905 188.531 46.7039 188.547 46.7138 188.564C46.7238 188.582 46.7301 188.601 46.7323 188.621C46.7346 188.641 46.7328 188.661 46.7271 188.681C46.7213 188.7 46.7117 188.718 46.6989 188.733C46.686 188.749 46.6702 188.762 46.6523 188.771C46.6344 188.78 46.6148 188.786 46.5947 188.787C46.5746 188.789 46.5544 188.786 46.5353 188.78H46.5314L46.5198 188.772Z" fill="#0C0C0C"/>
<path opacity="0.52" d="M48.7855 198.687C48.9363 198.681 49.0863 198.662 49.2339 198.63C49.2667 198.622 49.2951 198.601 49.3131 198.573C49.331 198.544 49.3371 198.51 49.3302 198.477C49.3232 198.443 49.3036 198.414 49.2756 198.395C49.2476 198.376 49.2133 198.369 49.18 198.375C48.9496 198.442 48.7074 198.46 48.4697 198.426C48.232 198.392 48.0042 198.308 47.8016 198.179C47.7748 198.157 47.7405 198.147 47.7061 198.151C47.6717 198.154 47.6401 198.171 47.6183 198.198C47.5964 198.224 47.5861 198.259 47.5895 198.293C47.593 198.328 47.61 198.359 47.6367 198.381C47.9728 198.613 48.3787 198.721 48.7855 198.687Z" fill="#0C0C0C"/>
<path opacity="0.1" d="M45.507 195.288C46.1758 195.264 46.7041 194.848 46.6869 194.357C46.6697 193.867 46.1137 193.488 45.4449 193.511C44.7761 193.535 44.2478 193.951 44.265 194.442C44.2822 194.933 44.8382 195.311 45.507 195.288Z" fill="#0C0C0C"/>
<path opacity="0.1" d="M52.6668 193.934C52.6856 194.424 53.2414 194.802 53.9104 194.779C54.026 194.775 54.1408 194.759 54.2531 194.731C54.3323 194.156 54.3808 193.6 54.4072 193.083C54.2271 193.022 54.0372 192.995 53.8471 193.003C53.1796 193.025 52.6516 193.441 52.6668 193.934Z" fill="#0C0C0C"/>
<path d="M67.5721 216.356C67.5432 219.253 66.5487 222.707 66.1943 226.88C66.1003 227.994 63.7095 231.216 63.3623 234.8C62.9247 239.364 63.8979 246.481 64.0281 249.558C57.3081 253.277 49.7065 255.106 42.0306 254.851C34.3547 254.596 26.8911 252.267 20.4324 248.112C20.2588 240.206 20.0527 230.446 19.7887 228.106C18.9316 220.381 19.163 215.495 20.3998 213.21C22.4214 209.478 26.0197 208.339 29.7844 207.825C32.0844 207.514 35.5381 207.293 35.5381 207.293C35.5381 207.293 35.831 213.214 42.8107 213.543C52.3109 213.991 51.6781 207.293 51.7251 207.293C55.1715 207.293 61.7027 208.118 64.2053 209.825C66.8597 211.63 67.6047 213.77 67.5721 216.356Z" fill="#FFC239"/>
<path d="M34.7484 220.862L21.8595 248.989C16.9108 246.067 12.6051 242.174 9.20215 237.543L19.9537 214.08L34.7484 220.862Z" fill="#FFC239"/>
<path d="M77.9833 237.118C75.4583 240.641 72.4108 243.758 68.9459 246.362C67.8055 247.223 66.6213 248.024 65.3982 248.763L52.1694 219.68L66.9822 212.939L77.9833 237.118Z" fill="#FFC239"/>
<path d="M131.849 88.4636C156.278 88.4636 176.081 68.6604 176.081 44.2318C176.081 19.8033 156.278 0 131.849 0C107.42 0 87.6172 19.8033 87.6172 44.2318C87.6172 68.6604 107.42 88.4636 131.849 88.4636Z" fill="white"/>
<path opacity="0.09" d="M131.849 88.4636C156.278 88.4636 176.081 68.6604 176.081 44.2318C176.081 19.8033 156.278 0 131.849 0C107.42 0 87.6172 19.8033 87.6172 44.2318C87.6172 68.6604 107.42 88.4636 131.849 88.4636Z" fill="#367CFF"/>
<path d="M140.402 17.7461C140.402 17.7461 143.203 14.7105 142.987 8.9286C142.819 4.45186 139.306 8.00786 139.306 8.00786C139.306 8.00786 139.153 4.78565 136.919 5.51255C134.684 6.23944 133.997 9.77773 133.997 9.77773" fill="#0C0C0C"/>
<path d="M125.136 8.02539C125.136 8.02539 113.981 11.3037 120.883 25.9739L121.902 25.8589L123.97 25.626" fill="#0C0C0C"/>
<path d="M140.944 41.1916C140.893 41.1851 140.329 50.5436 129.457 49.7263C121.93 49.1625 119.247 41.1772 119.074 41.1772C119.886 41.0047 120.889 40.7432 121.287 40.6532C122.156 40.4516 122.942 39.9903 123.543 39.3306C124.143 38.671 124.528 37.8443 124.646 36.9604C124.867 35.6339 124.493 28.8474 124.608 27.5054L136.161 30.0839C136 32.9188 134.87 39.4901 138.83 40.6532C139.489 40.8459 140.199 41.0231 140.944 41.1916Z" fill="#E98862"/>
<path opacity="0.52" d="M136.323 37.9681C136.142 37.3849 136.026 36.7836 135.976 36.1751C135.849 34.7864 135.874 33.3879 136.051 32.0047C133.703 31.6877 131.491 30.7185 129.666 29.207C129.451 29.9994 128.272 33.4614 128.598 34.2143C129.216 35.6377 132.117 37.9681 136.323 37.9681Z" fill="#0C0C0C"/>
<path d="M134.437 34.9887C129.88 35.3984 123.998 33.5363 122.819 27.4622L121.754 21.9816C120.575 15.906 122.809 10.3639 128.528 9.25364C134.247 8.14304 139.478 12.2372 140.658 18.3113L141.128 20.7375C141.275 21.5734 141.365 22.4183 141.398 23.2665C141.5 25.5086 141.646 28.9164 140.568 31.4355C139.551 33.8144 137.349 34.7272 134.437 34.9887Z" fill="#E98862"/>
<path opacity="0.5" d="M135.125 28.9833C135.959 28.9676 136.779 28.7561 137.516 28.3657C137.532 28.3585 137.547 28.348 137.559 28.3351C137.57 28.3221 137.58 28.3068 137.586 28.2902C137.591 28.2736 137.594 28.256 137.593 28.2385C137.592 28.2209 137.587 28.2037 137.579 28.188C137.571 28.1723 137.56 28.1583 137.547 28.147C137.533 28.1357 137.517 28.1272 137.501 28.122C137.484 28.1169 137.466 28.1152 137.449 28.117C137.431 28.1189 137.414 28.1243 137.399 28.1329C135.808 28.936 134.315 28.9284 133.083 28.1133C133.058 28.0961 133.032 28.0802 133.006 28.0656C132.99 28.0581 132.974 28.0536 132.957 28.0525C132.939 28.0514 132.922 28.0537 132.906 28.0592C132.89 28.0647 132.875 28.0734 132.862 28.0847C132.849 28.096 132.839 28.1097 132.831 28.1251C132.824 28.1405 132.819 28.1572 132.818 28.1742C132.817 28.1913 132.819 28.2084 132.825 28.2246C132.83 28.2408 132.839 28.2558 132.85 28.2687C132.862 28.2815 132.875 28.292 132.891 28.2996C132.9 28.305 132.916 28.3158 132.939 28.3307C133.586 28.761 134.348 28.9883 135.125 28.9833Z" fill="#0C0C0C"/>
<path opacity="0.52" d="M135.166 30.2184C135.317 30.2179 135.467 30.2046 135.616 30.1786C135.633 30.1757 135.649 30.1696 135.663 30.1605C135.678 30.1514 135.69 30.1395 135.7 30.1255C135.71 30.1116 135.717 30.0958 135.721 30.0792C135.725 30.0625 135.725 30.0452 135.722 30.0284C135.719 30.0115 135.713 29.9954 135.704 29.9809C135.695 29.9664 135.683 29.9539 135.669 29.944C135.655 29.9341 135.64 29.9271 135.623 29.9233C135.606 29.9195 135.589 29.919 135.572 29.9219C135.339 29.9802 135.097 29.9883 134.86 29.9455C134.624 29.9027 134.4 29.8101 134.202 29.6738C134.176 29.6518 134.142 29.6409 134.108 29.6434C134.074 29.6459 134.043 29.6616 134.02 29.6872C133.998 29.7127 133.986 29.7461 133.988 29.7801C133.99 29.8141 134.005 29.846 134.03 29.8691C134.357 30.1134 134.758 30.2368 135.166 30.2184Z" fill="#0C0C0C"/>
<path d="M139.289 22.2673C139.685 22.2673 140.006 21.9461 140.006 21.5499C140.006 21.1537 139.685 20.8325 139.289 20.8325C138.892 20.8325 138.571 21.1537 138.571 21.5499C138.571 21.9461 138.892 22.2673 139.289 22.2673Z" fill="#0C0C0C"/>
<path d="M132.312 23.0823C132.708 23.0823 133.03 22.7611 133.03 22.3649C133.03 21.9687 132.708 21.6475 132.312 21.6475C131.916 21.6475 131.595 21.9687 131.595 22.3649C131.595 22.7611 131.916 23.0823 132.312 23.0823Z" fill="#0C0C0C"/>
<path d="M123.533 29.2426C121.795 29.5799 120.025 27.9943 119.688 26.2565C119.35 24.5187 120.573 23.2871 122.311 22.9497L123.432 23.9401L125.026 28.9526L123.533 29.2426Z" fill="#E98862"/>
<path d="M124.76 26.1301C124.76 26.1301 123.789 17.4092 126.305 16.4045C127.98 15.7351 132.646 17.4392 136.419 15.9868C138.069 15.3511 139.769 15.4806 140.08 16.2584C140.203 16.5662 140.437 11.7784 137.128 8.77575C134.494 6.38531 127.377 6.86376 124.368 8.34865C116.037 12.4601 122.021 23.3929 122.021 23.3929L122.95 26.2918L124.76 26.1301Z" fill="#0C0C0C"/>
<g opacity="0.52">
<path d="M136.195 26.8223H136.207C136.767 26.7138 137.695 26.4726 137.617 26.0535C137.55 25.7061 135.881 22.1393 135.692 21.7339C135.684 21.7167 135.672 21.7012 135.658 21.6883C135.644 21.6755 135.627 21.6655 135.61 21.659C135.592 21.6526 135.573 21.6497 135.554 21.6505C135.535 21.6514 135.516 21.656 135.499 21.6641C135.481 21.6722 135.466 21.6836 135.453 21.6977C135.44 21.7118 135.43 21.7283 135.424 21.7462C135.417 21.7642 135.414 21.7832 135.415 21.8022C135.416 21.8213 135.421 21.84 135.429 21.8572C136.169 23.4367 137.286 25.8709 137.332 26.1078C137.295 26.2163 136.734 26.4256 136.154 26.5366C136.116 26.5423 136.081 26.5631 136.058 26.5942C136.035 26.6254 136.025 26.6644 136.031 26.7028C136.037 26.7412 136.057 26.7757 136.089 26.7988C136.12 26.8219 136.159 26.8316 136.197 26.8259L136.195 26.8223Z" fill="#0C0C0C"/>
</g>
<path d="M136.592 18.0821C137.153 17.8132 137.776 17.7008 138.395 17.7566C138.699 17.7822 138.997 17.8531 139.28 17.9671C139.559 18.0781 139.823 18.2239 140.066 18.401C140.111 18.4321 140.142 18.4796 140.153 18.5333C140.164 18.587 140.153 18.6428 140.124 18.6889C140.094 18.7351 140.048 18.768 139.995 18.7807C139.941 18.7934 139.885 18.785 139.838 18.7572L139.822 18.7514C139.602 18.6108 139.365 18.4984 139.117 18.4169C138.873 18.3354 138.618 18.2914 138.36 18.2864C137.853 18.2722 137.352 18.3924 136.906 18.6346L136.888 18.6451C136.851 18.6658 136.811 18.6791 136.77 18.6844C136.729 18.6896 136.687 18.6867 136.646 18.6757C136.606 18.6647 136.568 18.6459 136.535 18.6203C136.502 18.5947 136.475 18.5629 136.454 18.5266C136.433 18.4904 136.42 18.4504 136.415 18.409C136.409 18.3676 136.412 18.3255 136.423 18.2852C136.434 18.245 136.453 18.2073 136.479 18.1743C136.504 18.1413 136.536 18.1136 136.572 18.0929L136.592 18.0821Z" fill="#0C0C0C"/>
<path d="M132.478 19.194C131.99 19.0573 131.474 19.052 130.983 19.1784C130.733 19.2405 130.495 19.3401 130.275 19.4738C130.051 19.6085 129.844 19.7706 129.66 19.9566L129.649 19.9682C129.609 20.0065 129.556 20.0279 129.501 20.0277C129.446 20.0275 129.393 20.0058 129.353 19.9672C129.314 19.9286 129.291 19.8761 129.29 19.821C129.289 19.7658 129.309 19.7124 129.347 19.672C129.544 19.4448 129.769 19.2435 130.016 19.0728C130.267 18.8988 130.542 18.7631 130.832 18.6704C131.123 18.5746 131.425 18.5191 131.73 18.5055C132.043 18.4883 132.357 18.5155 132.662 18.5865C132.744 18.6057 132.815 18.6567 132.86 18.7283C132.904 18.7999 132.919 18.8862 132.899 18.9683C132.88 19.0504 132.829 19.1215 132.758 19.166C132.686 19.2105 132.6 19.2247 132.518 19.2055L132.499 19.2005L132.478 19.194Z" fill="#0C0C0C"/>
<path d="M134.678 12.3048C135.918 11.8021 136.324 9.91441 135.584 8.08857C134.844 6.26272 133.238 5.19011 131.998 5.69281C130.758 6.19551 130.352 8.08316 131.092 9.90901C131.832 11.7348 133.437 12.8075 134.678 12.3048Z" fill="#0C0C0C"/>
<path d="M155.969 50.8619C156.013 53.8599 154.841 57.2304 154.45 61.7943C154.371 62.7201 154.183 64.7597 153.933 67.4178C153.525 71.819 152.946 77.9054 152.44 83.3914C145.199 87.1917 137.048 88.9134 128.889 88.3658C120.73 87.8181 112.882 85.0224 106.215 80.2886C106.056 80.1692 105.897 80.0535 105.737 79.9414C105.314 73.7393 104.815 67.2297 104.36 63.1179C103.503 55.4403 102.334 51.6178 102.989 49.0356C103.041 48.8158 103.112 48.6005 103.199 48.3919C105.083 43.8208 111.083 41.7811 115.147 41.2315C117.628 40.8951 121.36 40.6528 121.36 40.6528C121.36 40.6528 121.675 47.0466 129.208 47.401C139.464 47.8856 138.781 40.6528 138.831 40.6528C140.491 40.6528 149.536 41.8607 151.796 43.3362C152.175 43.5822 152.537 43.8528 152.881 44.1463C153.863 44.9653 154.65 45.9933 155.184 47.1551C155.718 48.3169 155.987 49.5833 155.969 50.8619Z" fill="#383838"/>
<path d="M118.207 55.4975L106.215 80.2879C106.056 80.1686 105.897 80.0529 105.738 79.9407C101.089 76.532 97.1463 72.253 94.1289 67.3412L102.989 49.035L103.34 48.3081L118.207 55.4975Z" fill="#383838"/>
<path d="M117.05 58.3511L106.143 80.2339C106.07 80.1797 106.002 80.129 105.929 80.082L116.822 58.239C116.837 58.2086 116.864 58.1855 116.897 58.1747C116.929 58.1639 116.965 58.1662 116.995 58.1811C117.025 58.1965 117.048 58.223 117.058 58.2549C117.068 58.2867 117.065 58.3214 117.05 58.3511Z" fill="white"/>
<path d="M172.351 62.0402C170.177 66.967 167.125 71.457 163.343 75.2907L153.933 67.4178L141.98 57.4148L152.88 44.1462L152.913 44.1064L172.351 62.0402Z" fill="#383838"/>
<path d="M154.077 67.5131C154.108 67.5116 154.137 67.4989 154.159 67.4776C154.182 67.4563 154.195 67.4277 154.198 67.397L154.819 60.1181C154.822 60.0845 154.811 60.0511 154.789 60.0253C154.768 59.9994 154.737 59.9833 154.703 59.9803C154.67 59.9779 154.636 59.9886 154.611 60.0102C154.585 60.0319 154.569 60.0626 154.566 60.096L153.945 67.3753C153.942 67.4089 153.953 67.4422 153.974 67.4679C153.996 67.4937 154.027 67.5098 154.06 67.5127L154.077 67.5131Z" fill="white"/>
<path d="M340.127 280C363.426 280 382.315 261.112 382.315 237.812C382.315 214.512 363.426 195.624 340.127 195.624C316.827 195.624 297.939 214.512 297.939 237.812C297.939 261.112 316.827 280 340.127 280Z" fill="white"/>
<path opacity="0.09" d="M297.938 237.811C297.938 246.155 300.412 254.311 305.048 261.249C309.683 268.187 316.272 273.594 323.981 276.787C331.69 279.98 340.172 280.816 348.355 279.188C356.539 277.56 364.056 273.542 369.956 267.642C375.856 261.742 379.874 254.225 381.502 246.042C383.13 237.858 382.294 229.376 379.101 221.667C375.908 213.958 370.501 207.37 363.563 202.734C356.626 198.099 348.469 195.624 340.125 195.624C334.58 195.604 329.085 196.681 323.957 198.794C318.829 200.907 314.171 204.014 310.249 207.935C306.328 211.856 303.221 216.515 301.108 221.643C298.995 226.77 297.918 232.265 297.938 237.811Z" fill="#367CFF"/>
<path d="M359.27 214.531C358.596 222.342 359.221 224.991 362.464 229.467C365.2 233.24 349.634 230.033 342.747 228.806L348.824 211.043C348.824 211.043 359.507 211.788 359.27 214.531Z" fill="#0A0A0A"/>
<path d="M335.508 211.281C333.476 218.853 333.704 221.196 329.728 225.173C326.432 228.469 339.277 229.139 346.169 230.336L346.518 211.567C346.518 211.567 336.222 208.622 335.508 211.281Z" fill="#0A0A0A"/>
<path d="M336.193 233.306C336.239 233.3 336.743 241.674 346.472 240.944C353.207 240.44 355.608 233.294 355.762 233.294C354.993 233.166 354.234 232.982 353.491 232.743C352.431 232.173 351.118 231.58 350.776 229.521C350.579 228.334 350.914 222.261 350.811 221.059L340.473 223.366C340.617 225.903 341.63 231.783 338.086 232.823C337.495 232.997 336.86 233.155 336.193 233.306Z" fill="#E98862"/>
<path opacity="0.5" d="M340.328 230.421C340.49 229.899 340.594 229.361 340.639 228.816C340.752 227.574 340.73 226.323 340.571 225.085C342.672 224.801 344.652 223.934 346.285 222.582C346.477 223.291 347.532 226.388 347.24 227.062C346.687 228.335 344.091 230.421 340.328 230.421Z" fill="#0C0C0C"/>
<path d="M341.665 227.812C345.741 228.206 351.014 226.576 352.107 221.148L353.093 216.251C354.185 210.823 352.22 205.849 347.109 204.82C341.998 203.792 337.293 207.424 336.2 212.851L335.764 215.021C335.345 217.102 334.392 227.109 341.665 227.812Z" fill="#E98862"/>
<path d="M358.025 217.797L353.428 217.293C344.431 215.639 342.228 208.38 342.228 208.38C342.228 208.38 338.455 213.418 335.25 212.261C335.25 212.261 336.283 200.113 350.507 202.248C356.096 203.086 359.27 207.719 359.27 213.934C359.27 218.502 358.025 217.797 358.025 217.797Z" fill="#0A0A0A"/>
<path opacity="0.1" d="M345.573 219.952C345.632 219.46 345.136 218.997 344.465 218.916C343.795 218.836 343.204 219.17 343.145 219.662C343.086 220.154 343.582 220.618 344.253 220.698C344.924 220.778 345.515 220.444 345.573 219.952Z" fill="#0C0C0C"/>
<path opacity="0.1" d="M337.169 218.733C337.109 219.224 336.518 219.558 335.847 219.479C335.731 219.465 335.617 219.439 335.507 219.401C335.475 218.816 335.474 218.252 335.491 217.73C335.677 217.684 335.87 217.673 336.061 217.697C336.73 217.776 337.226 218.24 337.169 218.733Z" fill="#0C0C0C"/>
<path opacity="0.5" d="M340.132 220.251H340.122C339.915 220.208 339.71 220.154 339.51 220.088C339.209 219.987 338.817 219.823 338.871 219.551C338.934 219.242 340.452 216.076 340.625 215.716C340.632 215.7 340.643 215.686 340.655 215.674C340.668 215.662 340.683 215.652 340.7 215.646C340.716 215.64 340.734 215.637 340.752 215.638C340.769 215.639 340.786 215.644 340.802 215.651C340.818 215.659 340.832 215.67 340.844 215.683C340.856 215.696 340.864 215.711 340.87 215.728C340.876 215.745 340.878 215.762 340.877 215.78C340.875 215.797 340.87 215.814 340.862 215.83C340.214 217.178 339.171 219.395 339.129 219.603C339.441 219.815 339.799 219.949 340.173 219.994C340.207 220 340.236 220.02 340.255 220.048C340.274 220.076 340.282 220.11 340.276 220.143C340.271 220.177 340.253 220.207 340.226 220.227C340.199 220.248 340.165 220.257 340.132 220.253V220.251Z" fill="#0C0C0C"/>
<path d="M351.456 222.738C353.009 223.051 354.602 221.643 354.915 220.09C355.228 218.537 354.141 217.427 352.588 217.115L351.578 217.994L350.121 222.47L351.456 222.738Z" fill="#E98862"/>
<path d="M339.524 213.189C339.332 213.053 339.123 212.944 338.902 212.864C338.679 212.78 338.445 212.727 338.207 212.707C337.968 212.684 337.728 212.698 337.494 212.747C337.258 212.795 337.029 212.872 336.812 212.978L336.805 212.98C336.782 212.989 336.756 212.988 336.733 212.979C336.71 212.969 336.691 212.951 336.681 212.929C336.67 212.906 336.668 212.881 336.675 212.857C336.682 212.833 336.698 212.813 336.72 212.8C336.949 212.678 337.193 212.586 337.446 212.526C337.701 212.464 337.963 212.441 338.225 212.457C338.754 212.487 339.266 212.658 339.707 212.952C339.739 212.975 339.761 213.01 339.768 213.049C339.775 213.087 339.766 213.127 339.744 213.16C339.722 213.192 339.688 213.215 339.649 213.223C339.611 213.231 339.57 213.223 339.537 213.202L339.534 213.2L339.524 213.189Z" fill="#0C0C0C"/>
<path d="M343.709 213.768C344.229 213.664 344.767 213.702 345.268 213.878C345.515 213.963 345.749 214.085 345.96 214.24C346.171 214.392 346.361 214.57 346.527 214.77C346.545 214.79 346.555 214.816 346.553 214.843C346.552 214.869 346.54 214.894 346.521 214.912C346.501 214.93 346.475 214.94 346.448 214.939C346.422 214.937 346.396 214.926 346.378 214.906L346.373 214.9C346.213 214.72 346.031 214.561 345.831 214.426C345.633 214.291 345.416 214.187 345.187 214.117C344.733 213.974 344.25 213.955 343.785 214.06L343.774 214.063C343.735 214.072 343.694 214.066 343.66 214.045C343.626 214.024 343.601 213.991 343.591 213.952C343.582 213.913 343.588 213.872 343.609 213.838C343.629 213.803 343.663 213.779 343.702 213.769L343.709 213.768Z" fill="#0C0C0C"/>
<path d="M320.525 275.176C318.867 274.452 317.626 273.678 314.794 271.545C312.75 270.011 310.851 268.294 309.12 266.414L323.662 238.744L324.294 237.542L337.41 244.437L326.033 266.088L325.98 266.184L326.079 266.569" fill="#EA394A"/>
<path d="M368.885 252.916C368.503 257.019 368.421 263.401 368.447 269.074C362.964 274.048 356.268 277.49 349.033 279.055C341.798 280.62 334.278 280.252 327.229 277.989C326.367 269.432 325.084 256.858 324.361 249.116C323.629 241.096 321.474 238.448 327.355 234.607C330.595 232.958 335.732 232.812 338.04 232.812C337.257 240.414 353.277 241.35 353.675 232.812C365.657 233.933 371.205 234.211 368.885 252.916Z" fill="#EA394A"/>
<path d="M338.765 221.321C340.089 221.995 341.6 222.207 343.059 221.926C343.109 221.917 343.162 221.922 343.209 221.941C343.257 221.96 343.299 221.992 343.329 222.034C343.359 222.075 343.376 222.125 343.379 222.176C343.383 222.228 343.371 222.279 343.346 222.324C342.912 223.09 341.879 224.4 340.11 223.866C338.967 223.522 338.535 222.348 338.374 221.619C338.363 221.569 338.366 221.516 338.384 221.467C338.402 221.419 338.433 221.376 338.474 221.345C338.515 221.314 338.565 221.295 338.616 221.29C338.668 221.286 338.719 221.297 338.765 221.321Z" fill="white"/>
<path d="M338.681 215.431C339.034 215.431 339.32 215.145 339.32 214.792C339.32 214.439 339.034 214.152 338.681 214.152C338.328 214.152 338.042 214.439 338.042 214.792C338.042 215.145 338.328 215.431 338.681 215.431Z" fill="#0C0C0C"/>
<path d="M344.831 216.507C345.184 216.507 345.47 216.221 345.47 215.868C345.47 215.515 345.184 215.229 344.831 215.229C344.478 215.229 344.192 215.515 344.192 215.868C344.192 216.221 344.478 216.507 344.831 216.507Z" fill="#0C0C0C"/>
<path d="M325.778 262.927H325.79C325.816 262.923 325.84 262.91 325.856 262.889C325.871 262.868 325.878 262.841 325.875 262.815L324.744 251.419C324.742 251.406 324.738 251.393 324.731 251.382C324.725 251.371 324.716 251.361 324.706 251.353C324.695 251.345 324.684 251.339 324.671 251.336C324.658 251.333 324.645 251.333 324.632 251.335C324.619 251.336 324.607 251.341 324.596 251.347C324.584 251.354 324.575 251.363 324.567 251.373C324.559 251.383 324.553 251.395 324.55 251.408C324.547 251.42 324.546 251.433 324.548 251.446L325.679 262.843C325.682 262.867 325.694 262.888 325.713 262.904C325.731 262.919 325.754 262.927 325.778 262.927Z" fill="#0C0C0C"/>
<path d="M324.3 254.248H312.753V268.41H324.3V254.248Z" fill="white"/>
<path d="M319.57 261.328C319.571 260.393 319.848 259.479 320.368 258.701C320.888 257.924 321.626 257.318 322.49 256.96C323.354 256.602 324.305 256.509 325.222 256.692C326.14 256.874 326.982 257.325 327.643 257.986C328.305 258.648 328.755 259.49 328.937 260.407C329.12 261.325 329.026 262.276 328.668 263.14C328.31 264.004 327.704 264.742 326.926 265.262C326.148 265.781 325.234 266.058 324.299 266.058C323.045 266.057 321.843 265.558 320.956 264.671C320.07 263.784 319.571 262.582 319.57 261.328ZM321.507 261.328C321.507 261.88 321.671 262.42 321.977 262.879C322.284 263.338 322.72 263.696 323.23 263.908C323.74 264.119 324.302 264.174 324.843 264.067C325.385 263.959 325.882 263.693 326.273 263.302C326.663 262.912 326.929 262.415 327.037 261.873C327.145 261.331 327.089 260.77 326.878 260.26C326.667 259.75 326.309 259.314 325.85 259.007C325.391 258.7 324.851 258.536 324.299 258.536C323.559 258.537 322.849 258.832 322.326 259.355C321.802 259.879 321.508 260.588 321.507 261.328Z" fill="white"/>
<path d="M324.208 263.08C324.247 262.841 324.369 262.623 324.552 262.464C324.736 262.305 324.97 262.216 325.212 262.212C325.206 262.203 325.201 262.192 325.198 262.18L324.854 262.106C324.615 262.058 324.399 261.93 324.243 261.741C324.087 261.553 324.001 261.317 324 261.072C324.002 260.919 324.038 260.768 324.106 260.631C324.174 260.493 324.271 260.372 324.391 260.277C324.511 260.181 324.65 260.114 324.8 260.079C324.949 260.044 325.104 260.043 325.254 260.075L326.065 260.25C326.065 260.247 326.065 260.244 326.065 260.241C326.067 260.235 326.069 260.228 326.072 260.222C325.861 260.123 325.689 259.955 325.586 259.746C325.482 259.536 325.452 259.298 325.502 259.07C325.59 258.47 326.31 258.272 326.837 258.386L328.939 258.762L328.229 258.292C328.006 258.137 327.849 257.903 327.791 257.637C327.734 257.371 327.779 257.093 327.918 256.859C327.994 256.741 328.093 256.64 328.21 256.561C328.327 256.483 328.458 256.429 328.596 256.403C328.734 256.377 328.876 256.379 329.013 256.41C329.15 256.44 329.28 256.498 329.394 256.581L337.863 266.273L335.983 265.42C335.399 266.278 334.572 266.942 333.609 267.328C332.645 267.713 331.588 267.802 330.573 267.583L325.98 266.582C325.741 266.534 325.525 266.406 325.369 266.217C325.213 266.029 325.127 265.793 325.126 265.548C325.129 265.328 325.203 265.114 325.336 264.939C325.469 264.763 325.655 264.634 325.867 264.572C325.86 264.556 325.858 264.539 325.86 264.523C325.862 264.507 325.869 264.492 325.879 264.479C325.888 264.467 325.901 264.457 325.916 264.45L325.068 264.267C324.801 264.215 324.564 264.064 324.404 263.843C324.244 263.623 324.174 263.35 324.208 263.08Z" fill="#E98862"/>
<path opacity="0.2" d="M327.599 260.592C327.621 260.587 327.64 260.575 327.654 260.557C327.668 260.539 327.676 260.517 327.675 260.495C327.675 260.472 327.667 260.451 327.652 260.433C327.637 260.416 327.617 260.405 327.595 260.401L326.176 260.161C326.164 260.158 326.15 260.158 326.138 260.161C326.125 260.163 326.112 260.168 326.102 260.176C326.091 260.183 326.082 260.192 326.074 260.203C326.067 260.214 326.063 260.227 326.06 260.24C326.058 260.253 326.059 260.266 326.062 260.279C326.065 260.291 326.07 260.303 326.078 260.314C326.086 260.324 326.096 260.333 326.107 260.34C326.118 260.346 326.131 260.351 326.144 260.352L327.562 260.593C327.574 260.595 327.587 260.594 327.599 260.592Z" fill="#0C0C0C"/>
<path opacity="0.2" d="M327.255 262.599C327.277 262.594 327.297 262.582 327.311 262.565C327.325 262.547 327.333 262.525 327.332 262.502C327.332 262.48 327.324 262.458 327.309 262.441C327.295 262.424 327.275 262.412 327.252 262.408L325.309 262.064C325.296 262.061 325.283 262.06 325.27 262.063C325.257 262.065 325.245 262.07 325.234 262.077C325.223 262.084 325.213 262.094 325.206 262.105C325.199 262.116 325.194 262.128 325.191 262.141C325.189 262.154 325.189 262.168 325.192 262.18C325.196 262.193 325.201 262.205 325.209 262.216C325.217 262.227 325.227 262.236 325.238 262.242C325.249 262.249 325.262 262.253 325.275 262.255L327.218 262.6C327.231 262.602 327.243 262.602 327.255 262.599Z" fill="#0C0C0C"/>
<path opacity="0.2" d="M326.898 264.774C326.92 264.769 326.94 264.757 326.954 264.739C326.968 264.721 326.976 264.699 326.975 264.676C326.974 264.653 326.966 264.632 326.951 264.614C326.936 264.597 326.915 264.586 326.893 264.583L325.972 264.442C325.947 264.439 325.922 264.447 325.903 264.462C325.883 264.477 325.87 264.499 325.866 264.524C325.863 264.548 325.868 264.574 325.883 264.594C325.897 264.614 325.918 264.629 325.942 264.634L326.863 264.775C326.875 264.777 326.887 264.776 326.898 264.774Z" fill="#0C0C0C"/>
<path d="M374.769 261.883C369.573 269.355 362.106 274.952 353.476 277.844L353.473 277.84C351.556 277.465 333.272 270.246 330.854 269.772L333.5 257.426C340.295 258.778 352.689 263.991 359.522 265.348L354.701 243.488C354.526 242.522 354.545 241.532 354.756 240.573C354.967 239.615 355.367 238.708 355.931 237.905C356.495 237.102 357.213 236.42 358.043 235.896C358.873 235.373 359.799 235.02 360.767 234.857C361.734 234.694 362.725 234.725 363.68 234.948C364.636 235.171 365.538 235.581 366.334 236.156C367.129 236.73 367.803 237.456 368.316 238.292C368.829 239.129 369.171 240.059 369.322 241.029L374.769 261.883Z" fill="#EA394A"/>
<path d="M364.702 266.957C364.726 266.956 364.75 266.947 364.768 266.93C364.786 266.913 364.797 266.89 364.798 266.865C364.8 266.841 364.793 266.816 364.778 266.797C364.763 266.778 364.741 266.764 364.716 266.76L359.579 265.017C359.566 265.015 359.553 265.016 359.54 265.019C359.527 265.022 359.516 265.027 359.505 265.035C359.495 265.043 359.486 265.053 359.479 265.064C359.472 265.075 359.468 265.088 359.466 265.101C359.463 265.126 359.469 265.153 359.485 265.174C359.5 265.195 359.524 265.209 359.55 265.213L364.687 266.956C364.692 266.957 364.697 266.957 364.702 266.957Z" fill="#0C0C0C"/>
<path d="M359.658 265.101C359.661 265.132 359.651 265.163 359.632 265.187C359.62 265.197 359.607 265.205 359.592 265.21C359.577 265.214 359.561 265.216 359.546 265.213L333.665 257.574L331.071 269.725L353.358 277.879C353.289 277.903 353.216 277.925 353.147 277.948C353.098 277.965 353.048 277.981 352.996 277.995L330.926 269.892C330.901 269.885 330.88 269.869 330.866 269.847C330.853 269.825 330.848 269.798 330.854 269.773L333.5 257.427C333.503 257.414 333.509 257.403 333.517 257.392C333.525 257.382 333.535 257.374 333.546 257.368C333.557 257.36 333.57 257.355 333.583 257.353C333.596 257.35 333.609 257.351 333.622 257.355L359.441 265.003L356.518 252.952C356.514 252.926 356.521 252.9 356.536 252.879C356.552 252.858 356.575 252.844 356.6 252.84C356.613 252.838 356.626 252.838 356.639 252.84C356.652 252.843 356.664 252.848 356.675 252.855C356.685 252.863 356.695 252.872 356.702 252.883C356.709 252.894 356.713 252.906 356.716 252.919L359.658 265.101Z" fill="#0C0C0C"/>
<path d="M22.1687 249.353C22.1446 249.353 22.1208 249.348 22.0985 249.339C22.0766 249.329 22.0568 249.316 22.0401 249.299C22.0234 249.282 22.0101 249.262 22.0012 249.24C21.9922 249.218 21.9877 249.195 21.9878 249.171C21.9879 249.147 21.9928 249.124 22.002 249.102L29.0879 232.259C29.1066 232.215 29.1421 232.18 29.1865 232.162C29.231 232.144 29.2808 232.144 29.325 232.163C29.3692 232.181 29.4042 232.217 29.4223 232.261C29.4404 232.306 29.44 232.356 29.4214 232.4L22.3354 249.242C22.3216 249.275 22.2985 249.303 22.2688 249.322C22.2392 249.342 22.2043 249.353 22.1687 249.353Z" fill="#0C0C0C"/>
<path d="M63.8645 249.544H63.8565C63.8328 249.545 63.8091 249.542 63.7868 249.534C63.7645 249.526 63.744 249.513 63.7264 249.497C63.7089 249.481 63.6947 249.462 63.6846 249.44C63.6746 249.419 63.6688 249.395 63.6678 249.372L62.8779 232.145C62.8773 232.098 62.8948 232.052 62.9267 232.017C62.9587 231.982 63.0028 231.96 63.0501 231.956C63.0738 231.955 63.0976 231.959 63.1199 231.967C63.1423 231.975 63.1629 231.987 63.1804 232.003C63.198 232.019 63.2122 232.039 63.2223 232.06C63.2324 232.082 63.2382 232.105 63.2392 232.129L64.029 249.355C64.0314 249.402 64.0155 249.448 63.9849 249.483C63.9542 249.518 63.9111 249.54 63.8645 249.544Z" fill="#0C0C0C"/>
</g>
<defs>
<clipPath id="clip0_344_3425">
<rect width="403.347" height="280" fill="white" transform="translate(0.95166)"/>
</clipPath>
</defs>
</svg>
