<svg width="24" height="24" viewBox="0 0 24 24" fill="none" xmlns="http://www.w3.org/2000/svg">
<path d="M8.43829 16.6884L4.27309 12.0024C4.1146 11.8239 3.89167 11.7156 3.65335 11.7014C3.41502 11.6872 3.18083 11.7683 3.00229 11.9268C2.82374 12.0853 2.71547 12.3082 2.7013 12.5466C2.68712 12.7849 2.76819 13.0191 2.92669 13.1976L7.72669 18.5976C7.80817 18.6893 7.90754 18.7633 8.01868 18.8152C8.12982 18.8671 8.2504 18.8957 8.373 18.8993C8.49561 18.9029 8.61765 18.8814 8.73165 18.8361C8.84564 18.7909 8.94917 18.7228 9.03589 18.636L21.6359 6.03601C21.7949 5.8654 21.8814 5.63975 21.8773 5.40658C21.8732 5.17342 21.7787 4.95096 21.6138 4.78607C21.4489 4.62117 21.2265 4.52672 20.9933 4.5226C20.7602 4.51849 20.5345 4.60504 20.3639 4.76401L8.43829 16.6884Z" fill="#003D2B"/>
</svg>
