<svg width="207" height="240" viewBox="0 0 207 240" fill="none" xmlns="http://www.w3.org/2000/svg">
<path d="M197.051 33.3378C163.225 33.3932 130.305 22.412 103.287 2.06065C76.2688 22.4126 43.3482 33.3939 9.52229 33.3378C6.74251 33.3378 3.96853 33.2693 1.22559 33.1161V91.9228C1.25985 144.784 22.3003 193.489 68.4822 219.195L103.285 238.513L138.089 219.196C184.272 193.489 205.311 144.785 205.345 91.9234V33.1141C202.603 33.2673 199.825 33.3378 197.051 33.3378Z" fill="white"/>
<path d="M103.286 239.62L68.0113 220.041C45.6359 207.586 28.3663 189.463 16.6821 166.175C5.9541 144.793 0.274937 119.117 0.256836 91.9217V32.089L1.28082 32.1459C3.89188 32.292 6.66521 32.3663 9.52322 32.3663C43.1462 32.4724 75.8771 21.5542 102.703 1.28377L103.285 0.845459L103.867 1.28377C130.694 21.5555 163.426 32.4744 197.051 32.3683C199.91 32.3683 202.682 32.2939 205.293 32.1478L206.317 32.0909V91.923C206.299 119.12 200.62 144.796 189.892 166.177C178.207 189.465 160.938 207.588 138.563 220.042L103.286 239.62ZM2.19557 34.1357V91.921C2.23242 148.671 26.5672 194.751 68.9538 218.346L103.286 237.402L137.619 218.345C180.006 194.749 204.339 148.671 204.375 91.9204V34.1357C202.033 34.2482 199.573 34.3057 197.049 34.3057C163.254 34.4127 130.343 23.5191 103.286 3.27034C76.2288 23.5196 43.3173 34.4139 9.52259 34.3076C6.9988 34.3076 4.53965 34.2482 2.19557 34.1357Z" fill="#292A2E"/>
<path d="M127.833 78.3624V101.124C127.833 102.035 127.471 102.908 126.827 103.552C126.183 104.195 125.31 104.557 124.4 104.557C123.489 104.557 122.616 104.195 121.973 103.552C121.329 102.908 120.967 102.035 120.967 101.124V78.3624C120.967 69.5253 113.035 62.3301 103.286 62.3301C93.5378 62.3301 85.6057 69.5253 85.6057 78.3624V102.805C85.6057 103.716 85.244 104.589 84.6003 105.232C83.9565 105.876 83.0834 106.238 82.1729 106.238C81.2625 106.238 80.3894 105.876 79.7457 105.232C79.1019 104.589 78.7402 103.716 78.7402 102.805V78.3624C78.7402 65.737 89.7495 55.4647 103.286 55.4647C116.823 55.4647 127.833 65.737 127.833 78.3624Z" fill="#292A2E"/>
<path d="M127.833 101.124C127.833 102.035 127.471 102.908 126.827 103.552C126.183 104.195 125.31 104.557 124.4 104.557C123.489 104.557 122.616 104.195 121.973 103.552C121.329 102.908 120.967 102.035 120.967 101.124V78.3624C120.967 69.5253 113.035 62.3301 103.286 62.3301C93.5378 62.3301 85.6057 69.5253 85.6057 78.3624V102.805C85.6057 103.716 85.244 104.589 84.6003 105.232C83.9565 105.876 83.0834 106.238 82.1729 106.238C81.2625 106.238 80.3894 105.876 79.7457 105.232C79.1019 104.589 78.7402 103.716 78.7402 102.805V78.3624C78.7402 65.737 89.7495 55.4647 103.286 55.4647C116.823 55.4647 127.833 65.737 127.833 78.3624V101.124Z" fill="#292A2E"/>
<path d="M135.494 98.5767H71.0797C67.3234 98.5767 64.2783 101.622 64.2783 105.378V166.052C64.2783 169.808 67.3234 172.853 71.0797 172.853H135.494C139.25 172.853 142.295 169.808 142.295 166.052V105.378C142.295 101.622 139.25 98.5767 135.494 98.5767Z" fill="#95CEA5"/>
<path d="M96.873 129.708C96.8733 130.912 97.2122 132.092 97.851 133.113C98.4898 134.133 99.4027 134.953 100.485 135.48V145.333C100.497 146.069 100.797 146.77 101.32 147.286C101.844 147.802 102.55 148.091 103.286 148.091C104.021 148.091 104.727 147.802 105.251 147.286C105.775 146.77 106.075 146.069 106.086 145.333V135.479C107.116 134.979 107.994 134.213 108.628 133.259C109.262 132.305 109.629 131.199 109.691 130.055C109.753 128.911 109.507 127.772 108.98 126.755C108.452 125.739 107.662 124.882 106.692 124.274C105.721 123.666 104.605 123.329 103.46 123.298C102.315 123.267 101.183 123.543 100.181 124.097C99.1789 124.652 98.3436 125.465 97.7619 126.451C97.1801 127.438 96.8733 128.563 96.873 129.708Z" fill="#003D2B"/>
</svg>
