<svg width="100" height="100" viewBox="0 0 100 100" fill="none" xmlns="http://www.w3.org/2000/svg">
<path d="M85.4163 45.8333H79.1663V29.1667C79.1663 26.9565 78.2884 24.8369 76.7256 23.2741C75.1628 21.7113 73.0431 20.8333 70.833 20.8333H54.1663V14.5833C54.1663 11.8207 53.0689 9.17115 51.1154 7.21764C49.1619 5.26414 46.5123 4.16667 43.7497 4.16667C40.987 4.16667 38.3375 5.26414 36.384 7.21764C34.4305 9.17115 33.333 11.8207 33.333 14.5833V20.8333H16.6663C14.4562 20.8333 12.3366 21.7113 10.7738 23.2741C9.21098 24.8369 8.33301 26.9565 8.33301 29.1667V45H14.583C20.833 45 25.833 50 25.833 56.25C25.833 62.5 20.833 67.5 14.583 67.5H8.33301V83.3333C8.33301 85.5435 9.21098 87.6631 10.7738 89.2259C12.3366 90.7887 14.4562 91.6667 16.6663 91.6667H32.4997V85.4167C32.4997 79.1667 37.4997 74.1667 43.7497 74.1667C49.9997 74.1667 54.9997 79.1667 54.9997 85.4167V91.6667H70.833C73.0431 91.6667 75.1628 90.7887 76.7256 89.2259C78.2884 87.6631 79.1663 85.5435 79.1663 83.3333V66.6667H85.4163C88.179 66.6667 90.8285 65.5692 92.782 63.6157C94.7355 61.6622 95.833 59.0127 95.833 56.25C95.833 53.4873 94.7355 50.8378 92.782 48.8843C90.8285 46.9308 88.179 45.8333 85.4163 45.8333Z" fill="#F2F2F2"/>
</svg>
