<svg width="100" height="100" viewBox="0 0 100 100" fill="none" xmlns="http://www.w3.org/2000/svg">
<path d="M91.6664 56.25C91.6664 63.5833 86.2497 69.6667 79.1663 70.6667V83.3333C79.1663 85.5435 78.2884 87.6631 76.7256 89.2259C75.1628 90.7887 73.0432 91.6667 70.833 91.6667H54.9997V90.4167C54.9997 87.433 53.8144 84.5715 51.7046 82.4617C49.5948 80.3519 46.7334 79.1667 43.7497 79.1667C37.4997 79.1667 32.4997 84.2083 32.4997 90.4167V91.6667H16.6663C14.4562 91.6667 12.3366 90.7887 10.7738 89.2259C9.21098 87.6631 8.33301 85.5435 8.33301 83.3333V67.5H9.58301C15.7913 67.5 20.833 62.5 20.833 56.25C20.833 50 15.7913 45 9.58301 45H8.33301V29.1667C8.33301 26.9565 9.21098 24.8369 10.7738 23.2741C12.3366 21.7113 14.4562 20.8333 16.6663 20.8333H29.333C30.333 13.75 36.4163 8.33333 43.7497 8.33333C51.083 8.33333 57.1663 13.75 58.1663 20.8333H70.833C73.0432 20.8333 75.1628 21.7113 76.7256 23.2741C78.2884 24.8369 79.1663 26.9565 79.1663 29.1667V41.8333C86.2497 42.8333 91.6664 48.9167 91.6664 56.25ZM70.833 62.5H77.083C78.7406 62.5 80.3303 61.8415 81.5024 60.6694C82.6745 59.4973 83.333 57.9076 83.333 56.25C83.333 54.5924 82.6745 53.0027 81.5024 51.8306C80.3303 50.6585 78.7406 50 77.083 50H70.833V29.1667H49.9997V22.9167C49.9997 21.2591 49.3412 19.6693 48.1691 18.4972C46.997 17.3251 45.4073 16.6667 43.7497 16.6667C42.0921 16.6667 40.5024 17.3251 39.3303 18.4972C38.1582 19.6693 37.4997 21.2591 37.4997 22.9167V29.1667H16.6663V38C23.9997 40.8333 29.1663 47.9167 29.1663 56.25C29.1663 64.5833 23.958 71.6667 16.6663 74.5V83.3333H25.4997C26.9275 79.6532 29.4341 76.4905 32.6908 74.2598C35.9475 72.0292 39.8023 70.8348 43.7497 70.8333C52.083 70.8333 59.1663 76.0417 61.9997 83.3333H70.833V62.5Z" fill="white"/>
</svg>
