<svg width="170" height="122" viewBox="0 0 170 122" fill="none" xmlns="http://www.w3.org/2000/svg">
<g clip-path="url(#clip0_292_415)">
<path d="M69.0018 6.85449H9.23242V66.6239H69.0018V6.85449Z" fill="#F4F4F4"/>
<path d="M9.23233 6.85449H8.54736V66.6239H9.23233V6.85449Z" fill="#F4F4F4"/>
<path opacity="0.05" d="M9.23233 6.85449H8.54736V66.6239H9.23233V6.85449Z" fill="#292A2E"/>
<path opacity="0.05" d="M23.7116 48.0409V32.4033H36.5211V41.4884H56.3632V57.5746H64.7963V66.6242H56.3632H54.7386H12.1074V48.0409H23.7116Z" fill="#292A2E"/>
<path opacity="0.34" d="M34.8768 34.1016H25.5488V35.7995H34.8768V34.1016Z" fill="#FFFFFA"/>
<path opacity="0.34" d="M34.8768 37.6201H25.5488V39.3181H34.8768V37.6201Z" fill="#FFFFFA"/>
<path opacity="0.34" d="M34.8768 41.1377H25.5488V42.8356H34.8768V41.1377Z" fill="#FFFFFA"/>
<path opacity="0.34" d="M15.4811 49.6885H13.7617V51.3864H15.4811V49.6885Z" fill="#FFFFFA"/>
<path opacity="0.34" d="M15.4811 53.207H13.7617V54.905H15.4811V53.207Z" fill="#FFFFFA"/>
<path opacity="0.34" d="M15.4811 56.7246H13.7617V58.4226H15.4811V56.7246Z" fill="#FFFFFA"/>
<path opacity="0.34" d="M18.6612 49.6885H16.9419V51.3864H18.6612V49.6885Z" fill="#FFFFFA"/>
<path opacity="0.34" d="M18.6612 53.207H16.9419V54.905H18.6612V53.207Z" fill="#FFFFFA"/>
<path opacity="0.34" d="M18.6612 56.7246H16.9419V58.4226H18.6612V56.7246Z" fill="#FFFFFA"/>
<path opacity="0.34" d="M21.7565 49.6885H20.0371V51.3864H21.7565V49.6885Z" fill="#FFFFFA"/>
<path opacity="0.34" d="M21.7565 53.207H20.0371V54.905H21.7565V53.207Z" fill="#FFFFFA"/>
<path opacity="0.34" d="M21.7565 56.7246H20.0371V58.4226H21.7565V56.7246Z" fill="#FFFFFA"/>
<path d="M9.23242 36.4039H21.2589V6.85449H22.2536V36.4039H54.7387V6.85449H55.7333V36.4039H69.0018V37.3985H55.7333V66.6239H54.7387V37.3985H22.2536V66.6239H21.2589V37.3985H9.23242V36.4039Z" fill="white"/>
<path d="M71.3825 66.5518H6.85107V68.5394H71.3825V66.5518Z" fill="#F4F4F4"/>
<path opacity="0.1" d="M71.3825 66.5518H6.85107V68.5394H71.3825V66.5518Z" fill="#292A2E"/>
<path opacity="0.1" d="M6.85106 66.5518H5.91943V68.5394H6.85106V66.5518Z" fill="#292A2E"/>
<path opacity="0.1" d="M6.85106 66.5518H5.91943V68.5394H6.85106V66.5518Z" fill="#292A2E"/>
<path d="M8.54737 9.39941L69.002 9.39941V7.92156L8.54737 7.92156V9.39941Z" fill="white"/>
<path d="M8.54737 12.1602L69.002 12.1602V10.6823L8.54737 10.6823V12.1602Z" fill="white"/>
<path d="M8.54737 14.9199L69.002 14.9199V13.4421L8.54737 13.4421V14.9199Z" fill="white"/>
<path d="M8.54737 17.6807L69.002 17.6807V16.2028L8.54737 16.2028V17.6807Z" fill="white"/>
<path d="M8.54737 20.4404L69.002 20.4404V18.9626L8.54737 18.9626V20.4404Z" fill="white"/>
<path d="M14.968 22.1074H15.874L15.874 6.85433H14.968L14.968 22.1074Z" fill="white"/>
<path d="M15.3447 24.2978C16.0321 24.2978 16.5893 23.7406 16.5893 23.0532C16.5893 22.3658 16.0321 21.8086 15.3447 21.8086C14.6573 21.8086 14.1001 22.3658 14.1001 23.0532C14.1001 23.7406 14.6573 24.2978 15.3447 24.2978Z" fill="white"/>
<path d="M145.921 6.52148H120.773V39.2551H145.921V6.52148Z" fill="#F4F4F4"/>
<path d="M145.921 39.2549H146.737V6.52122H145.921V39.2549Z" fill="#F4F4F4"/>
<path opacity="0.05" d="M145.921 39.2549H146.737V6.52122H145.921V39.2549Z" fill="#292A2E"/>
<path opacity="0.05" d="M141.34 12.4844H125.354V33.2924H141.34V12.4844Z" fill="#292A2E"/>
<path opacity="0.03" d="M141.34 12.4844H140.507V33.2924H141.34V12.4844Z" fill="#292A2E"/>
<path d="M166.489 47.3047H145.922V68.061H166.489V47.3047Z" fill="#F4F4F4"/>
<path opacity="0.05" d="M162.742 51.0869H149.668V64.2811H162.742V51.0869Z" fill="#292A2E"/>
<path d="M166.489 68.0605H167.305V47.3042H166.489V68.0605Z" fill="#F4F4F4"/>
<path opacity="0.05" d="M166.489 68.0605H167.305V47.3042H166.489V68.0605Z" fill="#292A2E"/>
<path opacity="0.03" d="M162.742 51.0869H161.909V64.2811H162.742V51.0869Z" fill="#292A2E"/>
<path d="M98.2837 82.4634C98.2565 82.4634 98.2297 82.4571 98.2054 82.4451L57.7116 62.4306C57.6851 62.4176 57.6624 62.3981 57.6454 62.374C57.6284 62.3499 57.6178 62.3219 57.6144 62.2926C57.6111 62.2633 57.6151 62.2336 57.6262 62.2063C57.6373 62.179 57.6551 62.1549 57.678 62.1362L98.159 28.9219C98.1905 28.896 98.23 28.8818 98.2708 28.8818C98.3116 28.8818 98.3512 28.896 98.3827 28.9219L138.889 62.1362C138.912 62.155 138.93 62.1791 138.941 62.2064C138.952 62.2337 138.956 62.2633 138.953 62.2926C138.949 62.3218 138.939 62.3498 138.922 62.3739C138.905 62.398 138.882 62.4175 138.856 62.4306L98.3617 82.446C98.3374 82.4577 98.3107 82.4637 98.2837 82.4634ZM58.1128 62.2357L98.2837 82.0912L138.454 62.2357L98.2707 29.2857L58.1128 62.2357Z" fill="#292A2E"/>
<path d="M141.919 0.176758L133.859 10.9789V102.898C133.859 103.767 133.514 104.6 132.9 105.214C132.286 105.828 131.452 106.174 130.584 106.174H65.9581C65.528 106.174 65.102 106.089 64.7046 105.924C64.3072 105.76 63.9461 105.518 63.6419 105.214C63.3377 104.91 63.0965 104.549 62.9319 104.151C62.7673 103.754 62.6826 103.328 62.6826 102.898V9.02697C62.6826 6.67979 63.615 4.42874 65.2747 2.76901C66.9344 1.10928 69.1854 0.17682 71.5326 0.176758H141.919Z" fill="white"/>
<path d="M130.583 106.348H65.958C65.043 106.347 64.1658 105.983 63.5187 105.336C62.8716 104.689 62.5074 103.812 62.5059 102.897V9.02657C62.5086 6.63341 63.4605 4.33906 65.1527 2.64685C66.8449 0.954628 69.1393 0.00273831 71.5324 0L141.919 0C141.952 8.68937e-05 141.984 0.00926006 142.012 0.0264964C142.039 0.0437328 142.062 0.0683547 142.077 0.0976162C142.091 0.126878 142.097 0.159628 142.095 0.192215C142.092 0.224802 142.08 0.255944 142.06 0.282168L134.036 11.037V102.897C134.034 103.812 133.67 104.689 133.023 105.336C132.376 105.983 131.498 106.347 130.583 106.348ZM71.5324 0.352711C69.2328 0.355324 67.0281 1.27001 65.402 2.89611C63.7759 4.52221 62.8612 6.72692 62.8586 9.02657V102.897C62.8598 103.719 63.1867 104.507 63.7677 105.088C64.3487 105.669 65.1363 105.996 65.958 105.997H130.583C131.405 105.996 132.193 105.669 132.774 105.088C133.355 104.507 133.682 103.719 133.683 102.897V10.9785C133.683 10.9404 133.695 10.9034 133.718 10.8729L141.567 0.352711H71.5324Z" fill="#292A2E"/>
<path opacity="0.3" d="M120.694 11.9033H75.873C75.7279 11.9033 75.6104 12.0209 75.6104 12.166V12.5953C75.6104 12.7404 75.7279 12.858 75.873 12.858H120.694C120.839 12.858 120.957 12.7404 120.957 12.5953V12.166C120.957 12.0209 120.839 11.9033 120.694 11.9033Z" fill="#262626"/>
<path d="M133.859 8.23666C133.859 6.09904 134.709 4.04898 136.22 2.53745C137.732 1.02592 139.782 0.176758 141.919 0.176758C144.057 0.176758 146.107 1.02592 147.619 2.53745C149.13 4.04898 149.979 6.09904 149.979 8.23666V15.0414H133.859V8.23666Z" fill="white"/>
<path d="M149.979 15.2174H133.86C133.813 15.2174 133.768 15.1988 133.735 15.1658C133.702 15.1327 133.683 15.0878 133.683 15.0411V8.23632C133.677 7.15104 133.886 6.0753 134.297 5.07095C134.709 4.06661 135.315 3.15345 136.08 2.38398C136.845 1.61451 137.755 1.00389 138.757 0.58722C139.759 0.170553 140.834 -0.0439453 141.919 -0.0439453C143.005 -0.0439453 144.079 0.170553 145.081 0.58722C146.084 1.00389 146.993 1.61451 147.759 2.38398C148.524 3.15345 149.13 4.06661 149.541 5.07095C149.953 6.0753 150.161 7.15104 150.156 8.23632V15.0411C150.156 15.0878 150.137 15.1327 150.104 15.1658C150.071 15.1988 150.026 15.2174 149.979 15.2174ZM134.037 14.8647H149.804V8.23632C149.809 7.19743 149.609 6.16767 149.216 5.20622C148.822 4.24478 148.242 3.37062 147.51 2.634C146.777 1.89738 145.906 1.31283 144.947 0.913943C143.988 0.515061 142.959 0.309718 141.92 0.309718C140.881 0.309718 139.853 0.515061 138.893 0.913943C137.934 1.31283 137.063 1.89738 136.33 2.634C135.598 3.37062 135.018 4.24478 134.624 5.20622C134.231 6.16767 134.031 7.19743 134.037 8.23632V14.8647Z" fill="#292A2E"/>
<path opacity="0.3" d="M127.867 31.9453H97.4706C97.3496 31.9453 97.2515 32.0434 97.2515 32.1645V32.1647C97.2515 32.2857 97.3496 32.3838 97.4706 32.3838H127.867C127.988 32.3838 128.087 32.2857 128.087 32.1647V32.1645C128.087 32.0434 127.988 31.9453 127.867 31.9453Z" fill="#262626"/>
<path opacity="0.3" d="M127.867 28.8311H97.4706C97.3496 28.8311 97.2515 28.9292 97.2515 29.0502V29.0504C97.2515 29.1715 97.3496 29.2696 97.4706 29.2696H127.867C127.988 29.2696 128.087 29.1715 128.087 29.0504V29.0502C128.087 28.9292 127.988 28.8311 127.867 28.8311Z" fill="#262626"/>
<path opacity="0.3" d="M127.867 25.7168H97.4706C97.3496 25.7168 97.2515 25.8149 97.2515 25.9359V25.9362C97.2515 26.0572 97.3496 26.1553 97.4706 26.1553H127.867C127.988 26.1553 128.087 26.0572 128.087 25.9362V25.9359C128.087 25.8149 127.988 25.7168 127.867 25.7168Z" fill="#262626"/>
<path opacity="0.3" d="M127.867 22.6035H97.4706C97.3496 22.6035 97.2515 22.7016 97.2515 22.8227V22.8229C97.2515 22.9439 97.3496 23.0421 97.4706 23.0421H127.867C127.988 23.0421 128.087 22.9439 128.087 22.8229V22.8227C128.087 22.7016 127.988 22.6035 127.867 22.6035Z" fill="#262626"/>
<path opacity="0.3" d="M127.867 19.4756H97.4706C97.3496 19.4756 97.2515 19.5737 97.2515 19.6947V19.695C97.2515 19.816 97.3496 19.9141 97.4706 19.9141H127.867C127.988 19.9141 128.087 19.816 128.087 19.695V19.6947C128.087 19.5737 127.988 19.4756 127.867 19.4756Z" fill="#262626"/>
<path opacity="0.3" d="M115.3 35.0586H97.4706C97.3496 35.0586 97.2515 35.1567 97.2515 35.2777V35.278C97.2515 35.399 97.3496 35.4971 97.4706 35.4971H115.3C115.421 35.4971 115.519 35.399 115.519 35.278V35.2777C115.519 35.1567 115.421 35.0586 115.3 35.0586Z" fill="#262626"/>
<path opacity="0.9" d="M92.5252 16.9727H69.2002C68.803 16.9727 68.481 17.2947 68.481 17.692V36.8117C68.481 37.2089 68.803 37.531 69.2002 37.531H92.5252C92.9225 37.531 93.2445 37.2089 93.2445 36.8117V17.692C93.2445 17.2947 92.9225 16.9727 92.5252 16.9727Z" fill="#0CBC8B"/>
<path opacity="0.8" d="M77.1175 25.1324C78.107 25.1324 78.9092 24.3302 78.9092 23.3406C78.9092 22.351 78.107 21.5488 77.1175 21.5488C76.1279 21.5488 75.3257 22.351 75.3257 23.3406C75.3257 24.3302 76.1279 25.1324 77.1175 25.1324Z" fill="white"/>
<path opacity="0.5" d="M79.585 31.719L84.7794 25.9242C85.1038 25.5625 85.5576 25.3432 86.0426 25.3139C86.5275 25.2846 87.0044 25.4476 87.37 25.7676L93.2445 30.911V37.5312H86.1433" fill="white"/>
<path opacity="0.8" d="M86.1433 37.5308L74.8801 27.5491C74.5472 27.2541 74.1189 27.0894 73.6742 27.085C73.2295 27.0807 72.7981 27.2371 72.4595 27.5255L68.481 30.9116V37.5317" fill="white"/>
<path opacity="0.3" d="M127.846 52.5186H68.7211C68.6001 52.5186 68.502 52.6167 68.502 52.7377V52.7379C68.502 52.859 68.6001 52.9571 68.7211 52.9571H127.846C127.967 52.9571 128.066 52.859 128.066 52.7379V52.7377C128.066 52.6167 127.967 52.5186 127.846 52.5186Z" fill="#262626"/>
<path opacity="0.3" d="M127.846 49.4043H68.7211C68.6001 49.4043 68.502 49.5024 68.502 49.6234V49.6237C68.502 49.7447 68.6001 49.8428 68.7211 49.8428H127.846C127.967 49.8428 128.066 49.7447 128.066 49.6237V49.6234C128.066 49.5024 127.967 49.4043 127.846 49.4043Z" fill="#262626"/>
<path opacity="0.3" d="M127.846 46.29H68.7211C68.6001 46.29 68.502 46.3882 68.502 46.5092V46.5094C68.502 46.6305 68.6001 46.7286 68.7211 46.7286H127.846C127.967 46.7286 128.066 46.6305 128.066 46.5094V46.5092C128.066 46.3882 127.967 46.29 127.846 46.29Z" fill="#262626"/>
<path opacity="0.3" d="M127.846 43.1768H68.7211C68.6001 43.1768 68.502 43.2749 68.502 43.3959V43.3961C68.502 43.5172 68.6001 43.6153 68.7211 43.6153H127.846C127.967 43.6153 128.066 43.5172 128.066 43.3961V43.3959C128.066 43.2749 127.967 43.1768 127.846 43.1768Z" fill="#262626"/>
<path opacity="0.3" d="M86.5504 55.6318H68.7211C68.6001 55.6318 68.502 55.73 68.502 55.851V55.8512C68.502 55.9723 68.6001 56.0704 68.7211 56.0704H86.5504C86.6714 56.0704 86.7695 55.9723 86.7695 55.8512V55.851C86.7695 55.73 86.6714 55.6318 86.5504 55.6318Z" fill="#262626"/>
<path opacity="0.3" d="M127.846 70.4746H68.7211C68.6001 70.4746 68.502 70.5727 68.502 70.6938V70.694C68.502 70.815 68.6001 70.9131 68.7211 70.9131H127.846C127.967 70.9131 128.066 70.815 128.066 70.694V70.6938C128.066 70.5727 127.967 70.4746 127.846 70.4746Z" fill="#262626"/>
<path opacity="0.3" d="M127.846 67.3604H68.7211C68.6001 67.3604 68.502 67.4585 68.502 67.5795V67.5797C68.502 67.7008 68.6001 67.7989 68.7211 67.7989H127.846C127.967 67.7989 128.066 67.7008 128.066 67.5797V67.5795C128.066 67.4585 127.967 67.3604 127.846 67.3604Z" fill="#262626"/>
<path opacity="0.3" d="M127.846 64.2461H68.7211C68.6001 64.2461 68.502 64.3442 68.502 64.4652V64.4655C68.502 64.5865 68.6001 64.6846 68.7211 64.6846H127.846C127.967 64.6846 128.066 64.5865 128.066 64.4655V64.4652C128.066 64.3442 127.967 64.2461 127.846 64.2461Z" fill="#262626"/>
<path opacity="0.3" d="M127.846 61.1328H68.7211C68.6001 61.1328 68.502 61.2309 68.502 61.352V61.3522C68.502 61.4732 68.6001 61.5714 68.7211 61.5714H127.846C127.967 61.5714 128.066 61.4732 128.066 61.3522V61.352C128.066 61.2309 127.967 61.1328 127.846 61.1328Z" fill="#262626"/>
<path opacity="0.3" d="M86.5504 73.5879H68.7211C68.6001 73.5879 68.502 73.686 68.502 73.807V73.8073C68.502 73.9283 68.6001 74.0264 68.7211 74.0264H86.5504C86.6714 74.0264 86.7695 73.9283 86.7695 73.8073V73.807C86.7695 73.686 86.6714 73.5879 86.5504 73.5879Z" fill="#262626"/>
<path d="M134.823 109.098H61.7434C60.6948 109.098 59.6891 108.682 58.9476 107.94C58.2061 107.199 57.7896 106.193 57.7896 105.144V62.2734L98.2835 82.2888L138.777 62.2734V105.144C138.777 105.663 138.675 106.178 138.476 106.657C138.278 107.137 137.986 107.573 137.619 107.94C137.252 108.307 136.816 108.598 136.337 108.797C135.857 108.996 135.343 109.098 134.823 109.098Z" fill="#95CEA5"/>
<path opacity="0.78" d="M134.823 109.098H61.7434C60.6948 109.098 59.6891 108.682 58.9476 107.94C58.2061 107.199 57.7896 106.193 57.7896 105.144V62.2734L98.2835 82.2888L138.777 62.2734V105.144C138.777 105.663 138.675 106.178 138.476 106.657C138.278 107.137 137.986 107.573 137.619 107.94C137.252 108.307 136.816 108.598 136.337 108.797C135.857 108.996 135.343 109.098 134.823 109.098Z" fill="white"/>
<path d="M134.824 109.274H61.7435C60.6485 109.273 59.5987 108.837 58.8244 108.063C58.0501 107.289 57.6145 106.239 57.6133 105.144V62.2731C57.6133 62.2431 57.6209 62.2135 57.6355 62.1873C57.6501 62.1611 57.6712 62.139 57.6967 62.1232C57.7222 62.1074 57.7513 62.0983 57.7812 62.0969C57.8112 62.0955 57.8411 62.1017 57.8679 62.115L98.2836 82.0916L138.699 62.115C138.726 62.1017 138.756 62.0955 138.786 62.0969C138.816 62.0983 138.845 62.1074 138.871 62.1232C138.896 62.139 138.917 62.1611 138.932 62.1873C138.946 62.2135 138.954 62.2431 138.954 62.2731V105.144C138.952 106.239 138.517 107.289 137.743 108.063C136.968 108.837 135.919 109.273 134.824 109.274ZM57.966 62.5571V105.144C57.9672 106.145 58.3655 107.105 59.0737 107.814C59.7819 108.522 60.742 108.92 61.7435 108.921H134.824C135.825 108.92 136.785 108.522 137.493 107.814C138.202 107.106 138.6 106.145 138.601 105.144V62.5571L98.3617 82.4465C98.3374 82.4584 98.3106 82.4646 98.2835 82.4646C98.2564 82.4646 98.2297 82.4584 98.2053 82.4465L57.966 62.5571Z" fill="#292A2E"/>
<path d="M157.255 118.857C157.284 118.857 157.312 118.849 157.336 118.834C157.36 118.819 157.38 118.797 157.393 118.771L161.413 110.522C161.43 110.486 161.431 110.445 161.418 110.407C161.404 110.37 161.377 110.34 161.341 110.322C161.306 110.305 161.265 110.302 161.227 110.314C161.189 110.327 161.158 110.353 161.139 110.388L157.118 118.637C157.107 118.661 157.102 118.686 157.103 118.712C157.105 118.738 157.112 118.763 157.126 118.785C157.14 118.807 157.159 118.825 157.181 118.838C157.204 118.85 157.229 118.857 157.255 118.857Z" fill="#292A2E"/>
<path d="M150.457 118.378C150.491 118.378 150.523 118.367 150.55 118.346C150.577 118.326 150.596 118.297 150.604 118.264L155.258 100.496C155.263 100.476 155.264 100.456 155.262 100.436C155.259 100.417 155.252 100.397 155.242 100.38C155.232 100.363 155.219 100.348 155.203 100.336C155.187 100.324 155.169 100.315 155.149 100.31C155.13 100.305 155.11 100.303 155.09 100.306C155.07 100.309 155.051 100.315 155.034 100.326C155.017 100.336 155.001 100.349 154.989 100.365C154.977 100.381 154.968 100.399 154.963 100.418L150.309 118.187C150.299 118.226 150.305 118.268 150.325 118.302C150.345 118.337 150.379 118.363 150.418 118.373C150.431 118.376 150.444 118.378 150.457 118.378Z" fill="#292A2E"/>
<path d="M141.578 119.166C141.604 119.166 141.628 119.16 141.651 119.148C141.673 119.136 141.692 119.119 141.706 119.098C141.72 119.077 141.728 119.053 141.731 119.028C141.733 119.002 141.729 118.977 141.72 118.954L136.908 107.624C136.892 107.587 136.862 107.558 136.825 107.542C136.787 107.527 136.745 107.528 136.708 107.543C136.671 107.559 136.642 107.589 136.626 107.627C136.611 107.664 136.612 107.706 136.627 107.743L141.438 119.074C141.45 119.101 141.47 119.124 141.495 119.141C141.52 119.157 141.549 119.166 141.578 119.166Z" fill="#292A2E"/>
<path d="M150.284 121.79C150.297 121.79 150.309 121.789 150.321 121.786C150.361 121.776 150.394 121.751 150.415 121.716C150.436 121.681 150.442 121.64 150.432 121.601L144.842 99.2365C144.837 99.2171 144.828 99.1988 144.816 99.1827C144.805 99.1667 144.79 99.1531 144.772 99.1428C144.755 99.1325 144.736 99.1257 144.716 99.1227C144.697 99.1198 144.676 99.1208 144.657 99.1257C144.638 99.1305 144.619 99.1392 144.603 99.1511C144.587 99.163 144.574 99.178 144.563 99.1952C144.553 99.2123 144.546 99.2314 144.543 99.2512C144.54 99.271 144.541 99.2912 144.546 99.3106L150.136 121.675C150.145 121.708 150.164 121.737 150.19 121.758C150.217 121.779 150.25 121.79 150.284 121.79Z" fill="#292A2E"/>
<path d="M148.302 103.82C149.819 100.631 148.829 96.9907 146.091 95.6884C143.354 94.3861 139.905 95.9151 138.388 99.1036C136.871 102.292 137.861 105.933 140.599 107.235C143.336 108.537 146.785 107.008 148.302 103.82Z" fill="#0CBC8B"/>
<path opacity="0.4" d="M148.302 103.82C149.819 100.631 148.829 96.9907 146.091 95.6884C143.354 94.3861 139.905 95.9151 138.388 99.1036C136.871 102.292 137.861 105.933 140.599 107.235C143.336 108.537 146.785 107.008 148.302 103.82Z" fill="white"/>
<path d="M138.893 111.181C139.684 109.217 138.991 107.087 137.345 106.424C135.699 105.761 133.723 106.816 132.932 108.78C132.141 110.744 132.834 112.874 134.48 113.537C136.126 114.2 138.102 113.145 138.893 111.181Z" fill="#0CBC8B"/>
<path d="M158.29 108.66C160.735 107.919 161.979 104.885 161.069 101.884C160.159 98.8827 157.439 97.0512 154.993 97.7929C152.548 98.5345 151.304 101.569 152.214 104.569C153.124 107.57 155.844 109.402 158.29 108.66Z" fill="#0CBC8B"/>
<path d="M162.432 115.046C163.796 114.818 164.642 113.075 164.32 111.155C163.999 109.234 162.632 107.862 161.268 108.09C159.903 108.319 159.057 110.061 159.379 111.982C159.7 113.902 161.067 115.274 162.432 115.046Z" fill="#0CBC8B"/>
<path d="M137.091 122H160.838V116.082H137.091V122Z" fill="#292A2E"/>
<path opacity="0.3" d="M137.091 122H160.838V116.082H137.091V122Z" fill="white"/>
<path d="M148.347 114.596C149.313 112.199 148.46 109.598 146.442 108.785C144.425 107.973 142.007 109.257 141.042 111.653C140.077 114.05 140.93 116.651 142.947 117.463C144.965 118.276 147.382 116.992 148.347 114.596Z" fill="#0CBC8B"/>
<path d="M153.618 116.869C155.627 116.869 157.256 115.24 157.256 113.231C157.256 111.222 155.627 109.593 153.618 109.593C151.608 109.593 149.979 111.222 149.979 113.231C149.979 115.24 151.608 116.869 153.618 116.869Z" fill="#0CBC8B"/>
<path opacity="0.68" d="M138.893 111.181C139.684 109.217 138.991 107.087 137.345 106.424C135.699 105.761 133.723 106.816 132.932 108.78C132.141 110.744 132.834 112.874 134.48 113.537C136.126 114.2 138.102 113.145 138.893 111.181Z" fill="white"/>
<path opacity="0.68" d="M158.29 108.66C160.735 107.919 161.979 104.885 161.069 101.884C160.159 98.8827 157.439 97.0512 154.993 97.7929C152.548 98.5345 151.304 101.569 152.214 104.569C153.124 107.57 155.844 109.402 158.29 108.66Z" fill="white"/>
<path opacity="0.68" d="M162.432 115.046C163.796 114.818 164.642 113.075 164.32 111.155C163.999 109.234 162.632 107.862 161.268 108.09C159.903 108.319 159.057 110.061 159.379 111.982C159.7 113.902 161.067 115.274 162.432 115.046Z" fill="white"/>
<path opacity="0.68" d="M148.347 114.596C149.313 112.199 148.46 109.598 146.442 108.785C144.425 107.973 142.007 109.257 141.042 111.653C140.077 114.05 140.93 116.651 142.947 117.463C144.965 118.276 147.382 116.992 148.347 114.596Z" fill="white"/>
<path opacity="0.4" d="M153.618 116.869C155.627 116.869 157.256 115.24 157.256 113.231C157.256 111.222 155.627 109.593 153.618 109.593C151.608 109.593 149.979 111.222 149.979 113.231C149.979 115.24 151.608 116.869 153.618 116.869Z" fill="white"/>
<path d="M141.931 110.169C144.693 110.94 146.146 108.683 146.146 108.683L146.144 108.68C144.672 108.241 143.039 108.859 141.931 110.169Z" fill="#292A2E"/>
<path d="M159.374 111.092C160.733 110.572 161.86 109.579 162.547 108.296C162.175 108.097 161.748 108.024 161.33 108.09C160.181 108.282 159.4 109.549 159.374 111.092Z" fill="#292A2E"/>
<path d="M152.968 109.652C154.027 110.606 155.35 111.217 156.763 111.404C156.387 110.757 155.821 110.243 155.142 109.929C154.463 109.616 153.704 109.519 152.968 109.652Z" fill="#292A2E"/>
<path d="M169.585 121.946H6.38553C6.32317 121.946 6.26336 121.921 6.21926 121.877C6.17516 121.833 6.15039 121.773 6.15039 121.711C6.15039 121.648 6.17516 121.589 6.21926 121.544C6.26336 121.5 6.32317 121.476 6.38553 121.476H169.585C169.647 121.476 169.707 121.5 169.751 121.544C169.795 121.589 169.82 121.648 169.82 121.711C169.82 121.773 169.795 121.833 169.751 121.877C169.707 121.921 169.647 121.946 169.585 121.946Z" fill="#292A2E"/>
<path d="M93.4924 47.2472L90.5035 53.2833L90.5524 52.3697C90.5625 52.0744 90.4601 51.7863 90.2658 51.5637C90.0716 51.3411 89.8 51.2005 89.506 51.1705C89.3539 51.1603 89.2012 51.1812 89.0574 51.2319C88.9135 51.2826 88.7816 51.3621 88.6695 51.4655C88.5574 51.5689 88.4675 51.6941 88.4054 51.8334C88.3433 51.9727 88.3103 52.1232 88.3082 52.2757L88.1201 63.5838L91.7427 63.7355C92.8679 63.7827 93.9816 63.4927 94.941 62.9028C95.9004 62.3129 96.6617 61.4499 97.1274 60.4245L99.2284 55.7762C99.3422 55.5368 99.3698 55.2653 99.3065 55.0079C99.2432 54.7504 99.0929 54.5227 98.8811 54.3633C98.6868 54.2235 98.4529 54.1495 98.2136 54.152C97.9743 54.1545 97.742 54.2334 97.5507 54.3771C97.5415 54.3612 97.5284 54.348 97.5126 54.3388C97.4973 54.3309 97.4803 54.327 97.4632 54.3273C97.446 54.3276 97.4292 54.3322 97.4143 54.3407L97.8034 53.4841C97.931 53.2177 97.9526 52.9128 97.864 52.631C97.7754 52.3493 97.5832 52.1117 97.3261 51.9662C97.0918 51.8444 96.822 51.809 96.5643 51.8664C96.3065 51.9238 96.0772 52.0702 95.9167 52.2799C95.9123 52.2689 95.906 52.2587 95.8981 52.2498L96.058 51.8971C96.1718 51.6577 96.1994 51.3863 96.1362 51.1288C96.0729 50.8714 95.9226 50.6437 95.7107 50.4844C95.475 50.3145 95.1826 50.2426 94.895 50.2837C94.6074 50.3248 94.3469 50.4757 94.1682 50.7047C94.1609 50.7019 94.1535 50.6999 94.1458 50.6986L95.3904 48.1847C95.5152 47.933 95.5348 47.6421 95.445 47.3759C95.3552 47.1097 95.1634 46.8901 94.9117 46.7654C94.66 46.6407 94.369 46.621 94.1029 46.7108C93.8367 46.8006 93.6171 46.9925 93.4924 47.2442V47.2472Z" fill="#E98862"/>
<path opacity="0.2" d="M94.2356 50.8164C94.2338 50.8286 94.2302 50.8404 94.2247 50.8514L92.9877 53.279C92.9814 53.2914 92.9727 53.3024 92.9622 53.3114C92.9517 53.3204 92.9395 53.3272 92.9263 53.3315C92.9131 53.3358 92.8992 53.3375 92.8854 53.3364C92.8716 53.3353 92.8581 53.3315 92.8458 53.3252C92.8334 53.3189 92.8224 53.3103 92.8134 53.2998C92.8044 53.2892 92.7976 53.277 92.7933 53.2638C92.789 53.2507 92.7873 53.2368 92.7884 53.223C92.7895 53.2091 92.7933 53.1957 92.7996 53.1833L94.0366 50.7555C94.048 50.7335 94.0667 50.7162 94.0895 50.7065C94.1123 50.6969 94.1378 50.6956 94.1614 50.7029C94.1851 50.7101 94.2055 50.7255 94.219 50.7462C94.2325 50.767 94.2383 50.7918 94.2353 50.8164H94.2356Z" fill="#0A0A0A"/>
<path opacity="0.2" d="M95.9249 52.3293C95.9235 52.3413 95.92 52.3529 95.9146 52.3636L94.9571 54.2793C94.9514 54.2925 94.9431 54.3044 94.9327 54.3143C94.9223 54.3242 94.91 54.3318 94.8965 54.3368C94.883 54.3417 94.8687 54.3439 94.8543 54.3431C94.84 54.3422 94.826 54.3385 94.8131 54.3321C94.8003 54.3257 94.7889 54.3167 94.7796 54.3057C94.7704 54.2947 94.7635 54.282 94.7593 54.2682C94.7552 54.2545 94.7539 54.24 94.7556 54.2257C94.7572 54.2115 94.7618 54.1977 94.769 54.1853L95.7265 52.2696C95.7375 52.2472 95.7561 52.2296 95.7789 52.2196C95.8018 52.2097 95.8274 52.2082 95.8513 52.2154C95.8751 52.2226 95.8957 52.238 95.9092 52.2589C95.9228 52.2798 95.9285 52.3048 95.9254 52.3295L95.9249 52.3293Z" fill="#0A0A0A"/>
<path opacity="0.2" d="M97.5679 54.4464C97.5662 54.4591 97.5623 54.4714 97.5563 54.4828L97.083 55.3763C97.0768 55.3891 97.0682 55.4005 97.0575 55.4099C97.0468 55.4193 97.0343 55.4264 97.0208 55.4308C97.0073 55.4352 96.9931 55.4369 96.9789 55.4357C96.9648 55.4345 96.951 55.4304 96.9385 55.4238C96.9259 55.4171 96.9149 55.408 96.9059 55.397C96.897 55.386 96.8903 55.3733 96.8864 55.3596C96.8825 55.346 96.8814 55.3317 96.8831 55.3176C96.8849 55.3035 96.8894 55.2899 96.8965 55.2776L97.3699 54.384C97.3815 54.3623 97.4003 54.3453 97.4231 54.336C97.4459 54.3267 97.4712 54.3256 97.4947 54.333C97.5182 54.3404 97.5384 54.3558 97.5518 54.3765C97.5651 54.3972 97.5708 54.4219 97.5679 54.4464Z" fill="#0A0A0A"/>
<path d="M86.3154 56.0703L77.4534 81.489L63.0506 62.6542L49.5742 73.9142L74.4718 100.502C75.3573 101.514 76.4949 102.273 77.7689 102.702C79.0429 103.131 80.4079 103.215 81.725 102.946C83.0421 102.676 84.2643 102.063 85.2674 101.168C86.2705 100.273 87.0185 99.1279 87.4356 97.8498L99.5709 60.4204L86.3154 56.0703Z" fill="#95CEA5"/>
<path d="M7.666 110.639C6.43082 110.639 5.21392 110.34 4.1189 109.769C3.02388 109.197 2.08318 108.37 1.37688 107.356C0.670584 106.343 0.219616 105.174 0.0623715 103.949C-0.0948728 102.724 0.0462637 101.479 0.473765 100.32C0.907599 99.1444 11.1197 71.4484 13.0559 66.458L27.3508 72.004C26.2623 74.8097 22.3188 85.4449 19.1491 94.0132L24.4134 93.4411L26.0707 108.684L8.49558 110.594C8.22007 110.624 7.94314 110.639 7.666 110.639Z" fill="#95CEA5"/>
<path d="M16.8534 109.856L14.5156 121.492H59.9217L57.3065 109.635L16.8534 109.856Z" fill="#262626"/>
<path d="M26.6707 57.8539C22.877 58.136 19.0087 59.3679 16.16 61.8893C11.8637 65.6925 12.2461 68.0695 14.3908 78.6012C16.2362 87.6631 15.5039 91.6228 16.7384 108.344C16.7749 108.838 16.8527 109.856 16.8527 109.856L57.4346 109.789C57.4346 109.789 61.2368 87.6033 63.3367 77.3707C64.9333 69.5916 69.1265 60.1481 51.4456 58.2447C51.399 58.2397 37.2184 57.0711 26.6707 57.8539Z" fill="#95CEA5"/>
<path d="M51.446 58.2446C51.3989 58.2385 50.1108 63.0859 40.0586 62.3316C33.0984 61.8102 31.4026 57.0733 31.2432 57.0733C31.9935 56.9137 33.2118 56.7481 33.5452 56.5704C34.6409 55.9825 35.4392 55.2649 35.8409 53.7266C36.1552 52.5236 36.3154 47.8928 36.3154 45.5693L47.0239 47.9755C46.8746 50.5966 45.8299 56.6724 49.4915 57.748C50.1007 57.9264 50.757 58.0901 51.446 58.2446Z" fill="#E98862"/>
<path d="M46.6525 53.1292C42.431 53.4624 37.008 51.6798 35.9771 46.0475L35.0476 40.9654C34.0177 35.3331 36.1408 30.226 41.4434 29.2554C46.7465 28.2854 51.5455 32.1265 52.5757 37.7588L52.9872 40.0088C53.3843 42.1707 54.1857 52.535 46.6525 53.1292Z" fill="#E98862"/>
<path d="M50.5678 47.9578C49.8099 44.1505 49.4626 41.6091 49.5028 38.9301C50.5701 37.0579 50.2896 34.9092 50.0469 33.9806C51.0931 34.5513 51.5304 34.6136 52.5159 34.6136C52.5159 34.6136 50.7507 27.5296 44.7511 25.6233C43.648 25.1939 40.8313 24.6517 37.0912 25.1645C33.9099 25.6009 26.0685 27.9794 24.9483 36.8075V36.8124C24.9111 37.1052 24.1582 45.2392 22.6573 49.1415C20.6393 54.3878 17.8063 56.018 17.8783 62.0707C17.9707 69.8567 32.2844 70.8932 40.9178 70.3108C49.5512 69.7283 54.3707 66.8895 54.4332 61.2783C54.5017 54.9916 52.0842 55.5755 50.5678 47.9578Z" fill="#0A0A0A"/>
<path d="M50.5699 44.7661C48.9585 45.0608 47.3367 43.5756 47.0428 41.964C46.7488 40.3523 47.8919 39.2248 49.5035 38.9307L50.5699 44.7661Z" fill="#E98862"/>
<path d="M61.4593 87.6058C61.4529 87.6058 61.4466 87.6051 61.4403 87.6039C61.4271 87.6015 61.4145 87.5964 61.4033 87.5891C61.392 87.5818 61.3823 87.5723 61.3748 87.5613C61.3672 87.5502 61.3619 87.5377 61.3591 87.5246C61.3564 87.5115 61.3562 87.4979 61.3587 87.4847L63.0604 76.8251C63.0664 76.7994 63.0821 76.777 63.1042 76.7626C63.1263 76.7483 63.1532 76.743 63.1791 76.7479C63.205 76.7528 63.228 76.7675 63.2433 76.789C63.2586 76.8105 63.265 76.8371 63.2612 76.8632L61.5602 87.5226C61.5558 87.5461 61.5433 87.5673 61.5249 87.5825C61.5065 87.5978 61.4833 87.606 61.4593 87.6058Z" fill="#0C0C0C"/>
<path d="M16.8533 109.958C16.8269 109.958 16.8015 109.948 16.7825 109.929C16.7634 109.911 16.7522 109.886 16.7512 109.86L15.4796 76.8475C15.4785 76.8204 15.4882 76.794 15.5066 76.7741C15.525 76.7541 15.5505 76.7423 15.5776 76.7412C15.6044 76.7414 15.6301 76.7516 15.6497 76.7698C15.6693 76.788 15.6814 76.8128 15.6837 76.8395L16.9555 109.852C16.9566 109.879 16.9468 109.905 16.9284 109.925C16.9099 109.945 16.8844 109.957 16.8573 109.958H16.8533Z" fill="#0C0C0C"/>
</g>
<defs>
<clipPath id="clip0_292_415">
<rect width="169.82" height="122" fill="white"/>
</clipPath>
</defs>
</svg>
