<svg width="364" height="352" viewBox="0 0 364 352" fill="none" xmlns="http://www.w3.org/2000/svg">
<g clip-path="url(#clip0_418_863)">
<path d="M260.767 352C317.596 352 363.665 347.749 363.665 342.505C363.665 337.261 317.596 333.01 260.767 333.01C203.938 333.01 157.869 337.261 157.869 342.505C157.869 347.749 203.938 352 260.767 352Z" fill="white"/>
<path opacity="0.1" d="M260.767 352C317.596 352 363.665 347.749 363.665 342.505C363.665 337.261 317.596 333.01 260.767 333.01C203.938 333.01 157.869 337.261 157.869 342.505C157.869 347.749 203.938 352 260.767 352Z" fill="#003D2B"/>
<path d="M89.9525 201.31H57.1533V210.854H89.9525V201.31Z" fill="#F4F4F4"/>
<path opacity="0.05" d="M65.8552 201.31H61.5576V210.854H65.8552V201.31Z" fill="#003D2B"/>
<path d="M85.7615 203.385H67.8916V209.04H85.7615V203.385Z" fill="white"/>
<path d="M116.113 202.556L85.6367 189.245L81.817 197.99L112.293 211.301L116.113 202.556Z" fill="#F4F4F4"/>
<path opacity="0.05" d="M116.113 202.556L85.6367 189.245L81.817 197.99L112.293 211.301L116.113 202.556Z" fill="#003D2B"/>
<path d="M112.022 200.768L108.028 199.024L104.209 207.769L108.202 209.514L112.022 200.768Z" fill="white"/>
<path d="M105.305 200.099L88.7012 192.847L86.4376 198.029L103.042 205.281L105.305 200.099Z" fill="white"/>
<path opacity="0.05" d="M116.171 322.206H107.929V327.71H116.171V322.206Z" fill="#003D2B"/>
<path opacity="0.05" d="M31.9016 322.206H23.6592V327.71H31.9016V322.206Z" fill="#003D2B"/>
<path d="M123.727 211.301H16.1035V322.02H123.727V211.301Z" fill="#F4F4F4"/>
<path opacity="0.03" d="M123.727 211.301H16.1035V322.02H123.727V211.301Z" fill="#003D2B"/>
<path d="M143.672 211.301H36.0479V322.02H143.672V211.301Z" fill="#F4F4F4"/>
<path opacity="0.05" d="M136.116 322.206H127.874V327.71H136.116V322.206Z" fill="#003D2B"/>
<path opacity="0.05" d="M51.846 322.206H43.6035V327.71H51.846V322.206Z" fill="#003D2B"/>
<path opacity="0.7" d="M139.633 216.487H40.0889V237.758H139.633V216.487Z" fill="white"/>
<path opacity="0.7" d="M139.633 242.965H40.0889V264.236H139.633V242.965Z" fill="white"/>
<path opacity="0.7" d="M139.633 269.442H40.0889V290.713H139.633V269.442Z" fill="white"/>
<path opacity="0.05" d="M89.8601 230.099C91.5038 230.099 92.8363 228.766 92.8363 227.123C92.8363 225.479 91.5038 224.146 89.8601 224.146C88.2163 224.146 86.8838 225.479 86.8838 227.123C86.8838 228.766 88.2163 230.099 89.8601 230.099Z" fill="#003D2B"/>
<path opacity="0.05" d="M89.8601 256.576C91.5038 256.576 92.8363 255.244 92.8363 253.6C92.8363 251.956 91.5038 250.624 89.8601 250.624C88.2163 250.624 86.8838 251.956 86.8838 253.6C86.8838 255.244 88.2163 256.576 89.8601 256.576Z" fill="#003D2B"/>
<path opacity="0.05" d="M89.8601 283.054C91.5038 283.054 92.8363 281.722 92.8363 280.078C92.8363 278.434 91.5038 277.102 89.8601 277.102C88.2163 277.102 86.8838 278.434 86.8838 280.078C86.8838 281.722 88.2163 283.054 89.8601 283.054Z" fill="#003D2B"/>
<path opacity="0.7" d="M139.632 296.516H40.0879V317.788H139.632V296.516Z" fill="white"/>
<path opacity="0.05" d="M89.8601 310.128C91.5038 310.128 92.8363 308.796 92.8363 307.152C92.8363 305.508 91.5038 304.176 89.8601 304.176C88.2163 304.176 86.8838 305.508 86.8838 307.152C86.8838 308.796 88.2163 310.128 89.8601 310.128Z" fill="#003D2B"/>
<path d="M54.3066 101.409L117.945 101.409L117.945 18.5755L54.3066 18.5755L54.3066 101.409Z" fill="#F4F4F4"/>
<path d="M54.3077 18.5755H52.2432V101.409H54.3077V18.5755Z" fill="#F4F4F4"/>
<path opacity="0.05" d="M54.3077 18.5755H52.2432V101.409H54.3077V18.5755Z" fill="#003D2B"/>
<path opacity="0.05" d="M65.9003 86.3195H106.354V33.6644L65.9003 33.6644V86.3195Z" fill="#003D2B"/>
<path opacity="0.03" d="M65.9006 86.3195H68.0088V33.6644H65.9006V86.3195Z" fill="#003D2B"/>
<path d="M2.26166 174.303H54.3076L54.3076 121.779H2.26166L2.26166 174.303Z" fill="#F4F4F4"/>
<path opacity="0.05" d="M11.742 164.735H44.8262L44.8262 131.347H11.742L11.742 164.735Z" fill="#003D2B"/>
<path d="M2.26176 121.779H0.197266V174.303H2.26176V121.779Z" fill="#F4F4F4"/>
<path opacity="0.05" d="M2.26176 121.779H0.197266V174.303H2.26176V121.779Z" fill="#003D2B"/>
<path opacity="0.03" d="M11.7414 164.735H13.8496L13.8496 131.347H11.7414L11.7414 164.735Z" fill="#003D2B"/>
<path d="M319.63 18.3783H186.826V151.182H319.63V18.3783Z" fill="#F4F4F4"/>
<path d="M186.826 18.3783H185.304V151.182H186.826V18.3783Z" fill="#F4F4F4"/>
<path opacity="0.05" d="M186.826 18.3783H185.304V151.182H186.826V18.3783Z" fill="#003D2B"/>
<path opacity="0.05" d="M218.998 109.891V75.1449H247.46V95.3317H291.547V131.074H310.285V151.182H291.547H287.938H193.214V109.891H218.998Z" fill="#003D2B"/>
<path opacity="0.34" d="M243.806 78.9174H223.08V82.6899H243.806V78.9174Z" fill="#FFFFFA"/>
<path opacity="0.34" d="M243.806 86.7352H223.08V90.5077H243.806V86.7352Z" fill="#FFFFFA"/>
<path opacity="0.34" d="M243.806 94.553H223.08V98.3255H243.806V94.553Z" fill="#FFFFFA"/>
<path opacity="0.34" d="M200.709 113.553H196.889V117.325H200.709V113.553Z" fill="#FFFFFA"/>
<path opacity="0.34" d="M200.709 121.371H196.889V125.143H200.709V121.371Z" fill="#FFFFFA"/>
<path opacity="0.34" d="M200.709 129.188H196.889V132.96H200.709V129.188Z" fill="#FFFFFA"/>
<path opacity="0.34" d="M207.776 113.553H203.956V117.325H207.776V113.553Z" fill="#FFFFFA"/>
<path opacity="0.34" d="M207.776 121.371H203.956V125.143H207.776V121.371Z" fill="#FFFFFA"/>
<path opacity="0.34" d="M207.776 129.188H203.956V132.96H207.776V129.188Z" fill="#FFFFFA"/>
<path opacity="0.34" d="M214.652 113.553H210.832V117.325H214.652V113.553Z" fill="#FFFFFA"/>
<path opacity="0.34" d="M214.652 121.371H210.832V125.143H214.652V121.371Z" fill="#FFFFFA"/>
<path opacity="0.34" d="M214.652 129.188H210.832V132.96H214.652V129.188Z" fill="#FFFFFA"/>
<path d="M186.826 84.035H213.548V18.3779H215.758V84.035H287.938V18.3779H290.148V84.035H319.63V86.2448H290.148V151.182H287.938V86.2448H215.758V151.182H213.548V86.2448H186.826V84.035Z" fill="white"/>
<path d="M324.92 151.022H181.535V155.438H324.92V151.022Z" fill="#F4F4F4"/>
<path opacity="0.1" d="M324.92 151.022H181.535V155.438H324.92V151.022Z" fill="#003D2B"/>
<path opacity="0.1" d="M181.535 151.022H179.465V155.438H181.535V151.022Z" fill="#003D2B"/>
<path opacity="0.1" d="M181.535 151.022H179.465V155.438H181.535V151.022Z" fill="#003D2B"/>
<path d="M296.857 173.773C276.526 173.773 260.044 179.319 260.044 186.162V200.911H333.671V186.162C333.671 179.319 317.189 173.773 296.857 173.773Z" fill="#95CEA5"/>
<path opacity="0.49" d="M296.857 173.773C276.526 173.773 260.044 179.319 260.044 186.162V200.911H333.671V186.162C333.671 179.319 317.189 173.773 296.857 173.773Z" fill="white"/>
<path opacity="0.49" d="M323.642 186.163V200.91H260.043V186.163C260.043 179.892 273.885 174.71 291.843 173.891C309.802 174.71 323.642 179.892 323.642 186.163Z" fill="white"/>
<path d="M333.671 344.222H334.907L333.671 199.602L332.446 200.838L333.319 301.859L289.705 302.6L288.825 200.827L287.6 200.838L288.48 302.621L262.152 303.068L261.268 200.827L260.043 199.613L261.279 344.222L262.493 344.212L262.162 304.294L288.491 303.846L288.825 344.222L290.05 344.212L289.716 303.825L333.33 303.084L333.671 344.222Z" fill="#003D2B"/>
<path d="M222.628 322.57C222.628 322.57 220.439 333.919 209.813 334.551C199.187 335.184 201.491 343.649 201.491 343.649H242.097V323.362L222.628 322.57Z" fill="#95CEA5"/>
<path d="M245.795 288.436C245.795 288.436 248.84 299.586 239.585 304.844C230.33 310.102 236.134 316.68 236.134 316.68L272.569 298.755L263.614 280.551L245.795 288.436Z" fill="#95CEA5"/>
<path d="M241.941 295.805L214.487 192.217C212.404 180.774 215.539 175.813 220.37 170.995C228.858 162.529 264.027 144.51 264.027 144.51L306.219 144.395C317.407 144.395 328.405 155.427 328.405 166.614C328.405 177.802 317.032 187.289 305.844 187.289L253.888 192.475L267.972 287.323L241.941 295.805Z" fill="#262626"/>
<path d="M267.971 287.323L262.426 249.982L234.337 267.117L241.94 295.805L267.971 287.323Z" fill="#0C0C0C"/>
<path d="M274.338 165.473C274.338 165.473 256.601 169.425 239.035 186.991C228.385 197.642 229.258 216.915 230.856 253.984L248.303 228.215L267.438 193.702L274.338 165.473Z" fill="#0C0C0C"/>
<path d="M335.749 144.384L307.096 144.249L307.085 144.626H298.408C298.408 144.626 276.674 164.624 259.177 177.226C246.45 186.392 238.686 195.131 238.014 204.656C236.376 227.874 217.904 326.895 217.904 326.895L245.704 331.104L270.1 212.766C270.1 212.766 308.246 195.179 317.069 189.061C325.378 183.298 331.247 181.07 333.996 174.781C338.745 163.919 335.749 144.384 335.749 144.384Z" fill="#262626"/>
<path d="M303.604 151.601L257.12 152.217L283.195 167.79L304.892 156.586C305.415 156.305 305.828 155.857 306.066 155.314C306.304 154.77 306.353 154.163 306.204 153.588C306.056 153.014 305.719 152.505 305.247 152.145C304.776 151.785 304.197 151.593 303.604 151.601Z" fill="#003D2B"/>
<path opacity="0.2" d="M303.604 151.601L257.12 152.217L283.195 167.79L304.892 156.586C305.415 156.305 305.828 155.857 306.066 155.314C306.304 154.77 306.353 154.163 306.204 153.588C306.056 153.014 305.719 152.505 305.247 152.145C304.776 151.785 304.197 151.593 303.604 151.601Z" fill="white"/>
<path d="M257.386 68.2087L244.238 110.81L217.903 145.289L233.287 162.949L264.617 127.98C266.061 126.839 267.19 125.35 267.898 123.652L268.386 122.471L286.483 78.6843L257.386 68.2087Z" fill="#95CEA5"/>
<path d="M277.64 22.9887C277.64 22.9887 272.342 18.9871 271.03 9.78347C270.013 2.65697 276.587 7.27391 276.587 7.27391C276.587 7.27391 275.905 2.13513 279.649 2.64513C283.394 3.15513 285.488 8.55319 285.488 8.55319" fill="#0C0C0C"/>
<path d="M299 3.2466C299 3.2466 317.576 5.238 310.861 30.4104L309.218 30.5207L305.881 30.7444" fill="#0C0C0C"/>
<path d="M280.751 56.6992C280.833 56.6886 281.739 71.7256 299.207 70.4161C311.302 69.51 315.615 56.678 315.891 56.678C314.588 56.4007 312.976 55.9802 312.336 55.836C310.94 55.5121 309.676 54.7709 308.711 53.7109C307.747 52.6509 307.128 51.3225 306.938 49.9022C306.584 47.7708 307.183 36.8652 306.999 34.7085L288.436 38.8522C288.696 43.4074 290.511 53.9671 284.149 55.836C283.089 56.1447 281.948 56.4305 280.751 56.6992Z" fill="#E98862"/>
<path opacity="0.52" d="M288.176 51.5204C288.467 50.5832 288.654 49.6169 288.734 48.6389C288.938 46.4072 288.897 44.1598 288.612 41.937C292.385 41.4286 295.941 39.8717 298.874 37.4434C299.219 38.7166 301.114 44.2796 300.588 45.4874C299.597 47.774 294.934 51.5204 288.176 51.5204Z" fill="#0C0C0C"/>
<path d="M292.008 48.5441C299.332 47.8872 308.098 43.2596 308.225 33.3173L308.339 24.3464C308.465 14.4045 303.346 6.2784 293.985 6.15917C284.624 6.04035 277.524 14.0109 277.398 23.9532L277.348 27.9245C277.354 29.2885 277.453 30.6504 277.645 32.0009C278.125 35.5737 278.87 41.0056 281.295 44.6802C283.584 48.1493 287.328 48.9635 292.008 48.5441Z" fill="#E98862"/>
<path opacity="0.52" d="M288.609 39.4565C287.098 39.5249 285.591 39.2372 284.211 38.6165C284.155 38.5911 284.111 38.5446 284.088 38.487C284.066 38.4294 284.067 38.3653 284.091 38.3084C284.115 38.2515 284.161 38.2064 284.218 38.1827C284.275 38.159 284.339 38.1587 284.397 38.1817C287.37 39.4495 290.069 39.2641 292.203 37.6451C292.246 37.6111 292.291 37.5793 292.337 37.55C292.391 37.5247 292.452 37.5206 292.508 37.5384C292.565 37.5561 292.613 37.5945 292.642 37.6459C292.672 37.6973 292.681 37.758 292.668 37.8158C292.655 37.8737 292.621 37.9246 292.572 37.9583C292.555 37.9689 292.527 37.9906 292.491 38.02C291.369 38.8745 290.017 39.3747 288.609 39.4565Z" fill="#0C0C0C"/>
<path opacity="0.52" d="M288.68 41.6961C288.407 41.713 288.133 41.7064 287.861 41.6765C287.83 41.6733 287.8 41.664 287.773 41.6491C287.745 41.6343 287.721 41.6143 287.702 41.5902C287.682 41.566 287.668 41.5383 287.659 41.5086C287.65 41.4788 287.647 41.4477 287.651 41.4168C287.654 41.386 287.663 41.3561 287.678 41.3289C287.693 41.3017 287.713 41.2776 287.737 41.2581C287.761 41.2386 287.789 41.2241 287.819 41.2153C287.848 41.2065 287.88 41.2037 287.91 41.207C289.546 41.3805 290.327 40.6312 290.36 40.599C290.405 40.5546 290.465 40.5297 290.527 40.5296C290.59 40.5295 290.65 40.5543 290.694 40.5986C290.739 40.6428 290.764 40.7028 290.764 40.7655C290.764 40.8281 290.739 40.8882 290.695 40.9326C290.131 41.4123 289.419 41.6821 288.68 41.6961Z" fill="#0C0C0C"/>
<path d="M280.489 29.8363C281.126 29.8363 281.642 29.3201 281.642 28.6832C281.642 28.0464 281.126 27.5301 280.489 27.5301C279.852 27.5301 279.336 28.0464 279.336 28.6832C279.336 29.3201 279.852 29.8363 280.489 29.8363Z" fill="#0C0C0C"/>
<path d="M291.755 29.1295C292.392 29.1295 292.908 28.6133 292.908 27.9764C292.908 27.3396 292.392 26.8233 291.755 26.8233C291.118 26.8233 290.602 27.3396 290.602 27.9764C290.602 28.6133 291.118 29.1295 291.755 29.1295Z" fill="#0C0C0C"/>
<path d="M307.605 36.341C310.45 36.3773 312.795 33.363 312.832 30.5182C312.869 27.6734 310.581 26.0752 307.737 26.0393L306.247 27.9266L305.16 36.3099L307.605 36.341Z" fill="#E98862"/>
<path d="M304.774 31.7677C304.774 31.7677 303.814 17.6997 299.547 16.8308C296.706 16.2522 289.817 20.2823 283.435 19.0651C280.643 18.5343 277.993 19.2235 277.723 20.5424C277.616 21.0647 275.877 13.5601 280.249 7.86638C283.73 3.33397 295.121 2.05183 300.304 3.53814C314.654 7.65487 308.322 26.6563 308.322 26.6563L307.682 31.5064L304.774 31.7677Z" fill="#0C0C0C"/>
<g opacity="0.52">
<path d="M286.89 36.1368C286.884 36.1372 286.878 36.1372 286.872 36.1368C285.956 36.1278 284.419 36.0098 284.425 35.3242C284.431 34.7558 286.048 28.6379 286.233 27.9421C286.249 27.8822 286.288 27.8311 286.341 27.7999C286.395 27.7688 286.459 27.7602 286.519 27.7761C286.578 27.792 286.63 27.831 286.661 27.8845C286.692 27.9381 286.7 28.0018 286.684 28.0617C285.966 30.7714 284.896 34.9428 284.892 35.3299C284.981 35.4932 285.927 35.6615 286.876 35.6713C286.936 35.6726 286.993 35.6968 287.036 35.7389C287.078 35.7811 287.103 35.838 287.105 35.8978C287.107 35.9577 287.085 36.0159 287.045 36.0606C287.006 36.1052 286.95 36.1327 286.89 36.1376V36.1368Z" fill="#0C0C0C"/>
</g>
<path d="M283.762 22.4309C282.798 22.1657 281.781 22.1657 280.817 22.4309C280.344 22.5582 279.893 22.7559 279.478 23.0173C279.068 23.2733 278.692 23.58 278.359 23.9303C278.298 23.9927 278.263 24.0764 278.262 24.1639C278.26 24.2514 278.293 24.3361 278.353 24.4002C278.412 24.4644 278.494 24.5031 278.581 24.5084C278.669 24.5136 278.755 24.485 278.822 24.4285L278.842 24.4105C279.151 24.125 279.494 23.8795 279.863 23.68C280.226 23.4814 280.616 23.3387 281.022 23.257C281.819 23.0897 282.647 23.1361 283.421 23.3913L283.454 23.4027C283.58 23.4436 283.718 23.4334 283.837 23.3743C283.957 23.3153 284.048 23.212 284.093 23.0865C284.137 22.961 284.131 22.8231 284.075 22.7022C284.019 22.5813 283.918 22.4869 283.794 22.4391L283.762 22.4309Z" fill="#0C0C0C"/>
<path d="M290.584 23.0095C291.317 22.6533 292.132 22.4971 292.945 22.5567C293.357 22.5835 293.763 22.6727 294.149 22.8213C294.541 22.9702 294.913 23.1677 295.257 23.4093L295.279 23.424C295.352 23.4715 295.442 23.4887 295.528 23.472C295.614 23.4553 295.69 23.406 295.741 23.3344C295.791 23.2629 295.812 23.1745 295.799 23.0878C295.786 23.0011 295.74 22.9227 295.671 22.8691C295.294 22.5663 294.881 22.3124 294.441 22.1133C293.995 21.9094 293.521 21.7737 293.035 21.7106C292.045 21.5757 291.037 21.7107 290.117 22.1014C290.056 22.1282 290 22.1669 289.953 22.2153C289.907 22.2637 289.87 22.3208 289.845 22.3833C289.821 22.4459 289.808 22.5127 289.81 22.5799C289.811 22.6471 289.825 22.7135 289.852 22.7752C289.906 22.8997 290.008 22.9976 290.134 23.0474C290.196 23.072 290.263 23.0841 290.331 23.0829C290.398 23.0818 290.464 23.0674 290.526 23.0406L290.554 23.0271L290.584 23.0095Z" fill="#0C0C0C"/>
<path d="M290.118 7.93048C290.766 4.83122 289.584 1.96211 287.478 1.52217C285.372 1.08223 283.14 3.23806 282.493 6.33732C281.845 9.43659 283.027 12.3057 285.133 12.7456C287.239 13.1855 289.471 11.0297 290.118 7.93048Z" fill="#0C0C0C"/>
<path d="M259.045 89.7499C259.596 96.2145 263.496 136.548 264.027 144.511H335.718C336.13 137.329 337.979 105.924 339.542 91.8781C341.033 78.476 343.123 72.3773 341.405 68.2128C338.376 60.867 328.735 57.5869 322.206 56.7029C318.219 56.1631 312.223 55.7764 312.223 55.7764C312.223 55.7764 311.715 66.047 299.609 66.6187C283.129 67.3945 284.23 55.7764 284.149 55.7764C281.479 55.7764 266.947 57.718 263.313 60.0863C258.18 63.4313 256.663 67.9902 256.603 72.1784C256.535 77.002 258.422 82.4168 259.045 89.7499Z" fill="#95CEA5"/>
<path d="M262.681 128.617C262.63 128.617 262.58 128.598 262.543 128.563C262.505 128.529 262.481 128.482 262.477 128.431L259.761 97.3652C259.756 97.3112 259.773 97.2576 259.807 97.2161C259.842 97.1746 259.892 97.1486 259.946 97.1438C259.973 97.1411 260 97.1438 260.026 97.1517C260.051 97.1596 260.075 97.1726 260.096 97.1899C260.117 97.2072 260.133 97.2285 260.146 97.2525C260.158 97.2765 260.165 97.3028 260.167 97.3296L262.883 128.395C262.888 128.449 262.871 128.502 262.836 128.544C262.802 128.585 262.752 128.611 262.698 128.616C262.692 128.617 262.687 128.617 262.681 128.617Z" fill="#0C0C0C"/>
<path d="M267.878 146.661L277.722 138.675L276.066 139.143C275.528 139.284 274.957 139.215 274.468 138.95C273.979 138.686 273.609 138.246 273.432 137.719C273.35 137.444 273.325 137.155 273.359 136.87C273.392 136.585 273.484 136.31 273.627 136.061C273.771 135.813 273.963 135.596 274.193 135.424C274.423 135.252 274.685 135.129 274.965 135.062L295.645 130.032L297.424 136.619C297.977 138.665 297.906 140.829 297.221 142.835C296.536 144.84 295.268 146.595 293.578 147.875L285.916 153.658C285.524 153.965 285.037 154.128 284.539 154.119C284.04 154.109 283.56 153.928 283.18 153.605C282.843 153.307 282.609 152.908 282.515 152.467C282.42 152.026 282.469 151.566 282.655 151.155C282.621 151.146 282.591 151.127 282.568 151.102C282.547 151.077 282.533 151.047 282.527 151.016C282.52 150.984 282.522 150.952 282.531 150.921L281.119 151.99C280.683 152.334 280.132 152.5 279.579 152.454C279.025 152.408 278.509 152.154 278.136 151.742C277.815 151.362 277.638 150.882 277.637 150.385C277.635 149.888 277.809 149.406 278.128 149.025C278.106 149.021 278.084 149.014 278.065 149.003L277.485 149.443C277.093 149.75 276.606 149.913 276.108 149.904C275.609 149.894 275.129 149.713 274.749 149.39C274.34 149.028 274.087 148.521 274.043 147.976C273.999 147.431 274.168 146.89 274.515 146.467C274.506 146.455 274.5 146.442 274.494 146.429L270.395 149.755C270.191 149.92 269.958 150.043 269.707 150.118C269.456 150.192 269.193 150.216 268.933 150.189C268.672 150.162 268.42 150.084 268.19 149.959C267.96 149.835 267.757 149.666 267.592 149.463C267.427 149.26 267.304 149.026 267.229 148.775C267.154 148.524 267.13 148.261 267.157 148.001C267.184 147.74 267.262 147.488 267.387 147.258C267.512 147.028 267.681 146.825 267.884 146.66L267.878 146.661Z" fill="#E98862"/>
<path opacity="0.2" d="M274.739 146.548C274.761 146.54 274.781 146.529 274.799 146.514L278.743 143.237C278.763 143.221 278.78 143.2 278.792 143.177C278.804 143.154 278.811 143.129 278.814 143.103C278.816 143.077 278.813 143.051 278.806 143.026C278.798 143.001 278.785 142.978 278.769 142.958C278.752 142.938 278.732 142.921 278.708 142.909C278.685 142.897 278.66 142.889 278.634 142.887C278.608 142.885 278.582 142.887 278.557 142.895C278.532 142.903 278.509 142.916 278.489 142.932L274.545 146.209C274.509 146.238 274.485 146.28 274.477 146.326C274.469 146.372 274.477 146.419 274.5 146.46C274.523 146.5 274.56 146.531 274.603 146.547C274.647 146.563 274.695 146.564 274.739 146.548Z" fill="#0A0A0A"/>
<path opacity="0.2" d="M278.215 149.023C278.236 149.015 278.256 149.004 278.274 148.99L281.394 146.438C281.434 146.405 281.46 146.357 281.465 146.305C281.471 146.252 281.455 146.2 281.422 146.159C281.388 146.118 281.34 146.093 281.288 146.087C281.236 146.082 281.183 146.098 281.142 146.131L278.022 148.682C277.986 148.712 277.961 148.753 277.953 148.799C277.944 148.845 277.952 148.893 277.975 148.934C277.998 148.975 278.035 149.006 278.079 149.022C278.123 149.039 278.171 149.039 278.215 149.023Z" fill="#0A0A0A"/>
<path opacity="0.2" d="M282.781 151.162C282.804 151.154 282.825 151.141 282.844 151.126L284.289 149.886C284.309 149.869 284.325 149.849 284.337 149.826C284.348 149.802 284.356 149.777 284.358 149.751C284.36 149.725 284.356 149.699 284.348 149.674C284.34 149.65 284.327 149.627 284.31 149.607C284.293 149.587 284.273 149.571 284.25 149.559C284.226 149.547 284.201 149.54 284.175 149.538C284.149 149.536 284.123 149.539 284.098 149.548C284.074 149.556 284.051 149.569 284.031 149.585L282.585 150.825C282.55 150.855 282.527 150.896 282.519 150.942C282.512 150.988 282.52 151.035 282.543 151.075C282.567 151.115 282.603 151.145 282.647 151.161C282.69 151.177 282.738 151.177 282.781 151.162Z" fill="#0A0A0A"/>
<path d="M354.882 127.1L354.806 126.765L341.721 68.8877L315.833 74.7398L326.046 119.917L285.133 129.97L290.168 153.056L344.69 142.657C344.812 142.632 344.994 142.596 345.118 142.568C346.775 142.193 348.342 141.496 349.729 140.516C351.116 139.536 352.297 138.292 353.204 136.856C354.11 135.419 354.725 133.819 355.013 132.145C355.301 130.471 355.256 128.757 354.882 127.1Z" fill="#95CEA5"/>
<path d="M284.933 130.014C284.922 129.962 284.932 129.908 284.96 129.863C284.988 129.818 285.033 129.786 285.084 129.774L325.815 119.77L319.193 90.5188C319.185 90.4921 319.183 90.4642 319.187 90.4368C319.191 90.4094 319.2 90.383 319.214 90.3592C319.228 90.3355 319.247 90.3148 319.269 90.2985C319.292 90.2823 319.317 90.2707 319.344 90.2646C319.371 90.2585 319.399 90.2579 319.426 90.2629C319.454 90.2679 319.479 90.2784 319.502 90.2938C319.526 90.3091 319.545 90.3289 319.56 90.3521C319.575 90.3753 319.586 90.4013 319.59 90.4285L326.258 119.875C326.27 119.927 326.261 119.982 326.233 120.028C326.205 120.074 326.16 120.107 326.107 120.12L285.373 130.124C285.373 130.124 285.646 131.315 285.723 131.716C285.729 131.769 285.714 131.821 285.682 131.862C285.649 131.904 285.601 131.93 285.549 131.936C285.496 131.942 285.444 131.928 285.403 131.895C285.361 131.862 285.335 131.814 285.329 131.762C285.235 131.321 284.933 130.014 284.933 130.014Z" fill="#0C0C0C"/>
<path d="M286.529 162.251L270.798 113.896C270.522 113.046 269.984 112.305 269.261 111.78C268.538 111.255 267.667 110.972 266.774 110.973H202.686C202.018 110.973 201.359 111.131 200.764 111.434C200.169 111.737 199.654 112.177 199.261 112.718C198.868 113.258 198.609 113.884 198.505 114.544C198.401 115.204 198.454 115.879 198.661 116.514L214.392 164.869C214.668 165.719 215.207 166.46 215.93 166.985C216.653 167.51 217.523 167.793 218.417 167.793H282.504C283.172 167.793 283.831 167.634 284.426 167.331C285.021 167.028 285.536 166.588 285.929 166.047C286.321 165.507 286.58 164.881 286.685 164.221C286.789 163.561 286.736 162.886 286.529 162.251Z" fill="#003D2B"/>
<path opacity="0.2" d="M286.529 162.251L270.798 113.896C270.522 113.046 269.984 112.305 269.261 111.78C268.538 111.255 267.667 110.972 266.774 110.973H202.686C202.018 110.973 201.359 111.131 200.764 111.434C200.169 111.737 199.654 112.177 199.261 112.718C198.868 113.258 198.609 113.884 198.505 114.544C198.401 115.204 198.454 115.879 198.661 116.514L214.392 164.869C214.668 165.719 215.207 166.46 215.93 166.985C216.653 167.51 217.523 167.793 218.417 167.793H282.504C283.172 167.793 283.831 167.634 284.426 167.331C285.021 167.028 285.536 166.588 285.929 166.047C286.321 165.507 286.58 164.881 286.685 164.221C286.789 163.561 286.736 162.886 286.529 162.251Z" fill="white"/>
<path d="M240.749 146.104C244.461 146.104 247.47 143.095 247.47 139.383C247.47 135.67 244.461 132.661 240.749 132.661C237.037 132.661 234.027 135.67 234.027 139.383C234.027 143.095 237.037 146.104 240.749 146.104Z" fill="white"/>
<path d="M177.475 5.10978H50.2764C44.3835 5.10978 39.6064 9.88688 39.6064 15.7797V170.196C39.6064 176.089 44.3835 180.866 50.2764 180.866H177.475C183.368 180.866 188.145 176.089 188.145 170.196V15.7797C188.145 9.88688 183.368 5.10978 177.475 5.10978Z" fill="#003D2B"/>
<path d="M182.176 0.408321H54.9776C49.0847 0.408321 44.3076 5.18542 44.3076 11.0783V165.495C44.3076 171.387 49.0847 176.165 54.9776 176.165H182.176C188.069 176.165 192.846 171.387 192.846 165.495V11.0783C192.846 5.18542 188.069 0.408321 182.176 0.408321Z" fill="white"/>
<path d="M182.176 176.573H54.9777C52.0405 176.57 49.2245 175.401 47.1476 173.324C45.0707 171.247 43.9025 168.431 43.8994 165.494V11.0783C43.9027 8.14113 45.0709 5.32521 47.1477 3.24833C49.2246 1.17146 52.0405 0.00324236 54.9777 0L182.176 0C185.113 0.00335042 187.929 1.17161 190.006 3.24848C192.083 5.32534 193.251 8.1412 193.254 11.0783V165.494C193.251 168.431 192.083 171.247 190.006 173.324C187.929 175.401 185.113 176.57 182.176 176.573ZM54.9777 0.81665C52.2571 0.819677 49.6487 1.90178 47.725 3.82555C45.8012 5.74932 44.7191 8.35765 44.7161 11.0783V165.494C44.7191 168.215 45.8012 170.823 47.725 172.747C49.6487 174.671 52.2571 175.753 54.9777 175.756H182.176C184.897 175.753 187.505 174.671 189.429 172.747C191.353 170.823 192.435 168.215 192.438 165.494V11.0783C192.435 8.35769 191.353 5.74936 189.429 3.82558C187.505 1.90179 184.897 0.819677 182.176 0.81665H54.9777Z" fill="#003D2B"/>
<path d="M42.5944 198.26C57.225 198.26 69.0853 186.399 69.0853 171.769C69.0853 157.138 57.225 145.278 42.5944 145.278C27.9639 145.278 16.1035 157.138 16.1035 171.769C16.1035 186.399 27.9639 198.26 42.5944 198.26Z" fill="#003D2B"/>
<path d="M37.0955 168.312C36.7467 168.312 36.4123 168.173 36.1656 167.927C35.919 167.68 35.7804 167.346 35.7803 166.997V160.631C35.7803 157.11 38.8374 154.246 42.5948 154.246C46.3522 154.246 49.4094 157.11 49.4094 160.631V166.56C49.4124 166.735 49.3807 166.908 49.316 167.07C49.2513 167.233 49.1549 167.38 49.0325 167.505C48.9101 167.629 48.7641 167.728 48.603 167.796C48.4419 167.864 48.269 167.898 48.0943 167.898C47.9197 167.898 47.7468 167.864 47.5857 167.796C47.4246 167.728 47.2786 167.629 47.1562 167.505C47.0338 167.38 46.9374 167.233 46.8727 167.07C46.808 166.908 46.7763 166.735 46.7793 166.56V160.631C46.7793 158.56 44.901 156.876 42.5948 156.876C40.2886 156.876 38.4103 158.56 38.4103 160.631V166.998C38.4101 167.346 38.2715 167.68 38.0249 167.927C37.7784 168.173 37.4441 168.312 37.0955 168.312Z" fill="white"/>
<path d="M50.9842 165.896H34.2053C33.2268 165.896 32.4336 166.69 32.4336 167.668V183.473C32.4336 184.451 33.2268 185.245 34.2053 185.245H50.9842C51.9627 185.245 52.7559 184.451 52.7559 183.473V167.668C52.7559 166.69 51.9627 165.896 50.9842 165.896Z" fill="white"/>
<path d="M40.9249 174.006C40.9247 174.319 41.0127 174.626 41.1788 174.892C41.3448 175.158 41.5823 175.372 41.864 175.509V178.076C41.864 178.269 41.9409 178.455 42.0776 178.592C42.2144 178.728 42.3999 178.805 42.5933 178.805C42.7867 178.805 42.9722 178.728 43.109 178.592C43.2457 178.455 43.3226 178.269 43.3226 178.076V175.509C43.5909 175.379 43.8195 175.179 43.9846 174.931C44.1497 174.682 44.2453 174.394 44.2613 174.096C44.2774 173.799 44.2135 173.502 44.0761 173.237C43.9387 172.972 43.733 172.749 43.4802 172.591C43.2274 172.432 42.9368 172.345 42.6387 172.336C42.3405 172.328 42.0456 172.4 41.7846 172.545C41.5236 172.689 41.306 172.901 41.1545 173.158C41.0029 173.415 40.923 173.707 40.9229 174.006H40.9249Z" fill="#003D2B"/>
<path d="M171.07 88.1056H66.0865C63.5804 88.1056 61.5488 90.1372 61.5488 92.6433V107.361C61.5488 109.867 63.5804 111.899 66.0865 111.899H171.07C173.576 111.899 175.608 109.867 175.608 107.361V92.6433C175.608 90.1372 173.576 88.1056 171.07 88.1056Z" fill="white"/>
<path d="M171.07 112.307H66.0867C64.7754 112.305 63.5182 111.784 62.591 110.856C61.6637 109.929 61.1421 108.672 61.1406 107.361V92.6433C61.1421 91.332 61.6637 90.0748 62.5909 89.1475C63.5182 88.2202 64.7753 87.6985 66.0867 87.6969H171.07C172.381 87.6984 173.638 88.22 174.566 89.1473C175.493 90.0746 176.014 91.3319 176.016 92.6433V107.361C176.014 108.672 175.493 109.929 174.566 110.856C173.638 111.784 172.381 112.305 171.07 112.307ZM66.0867 88.5135C64.9918 88.5147 63.9421 88.9502 63.1679 89.7244C62.3938 90.4987 61.9584 91.5484 61.9573 92.6433V107.361C61.9585 108.455 62.3939 109.505 63.1681 110.279C63.9422 111.053 64.9919 111.489 66.0867 111.49H171.07C172.164 111.489 173.214 111.053 173.988 110.279C174.763 109.505 175.198 108.455 175.199 107.361V92.6433C175.198 91.5484 174.763 90.4986 173.988 89.7244C173.214 88.9502 172.164 88.5147 171.07 88.5135H66.0867Z" fill="#003D2B"/>
<path d="M171.07 122.108H66.0865C63.5804 122.108 61.5488 124.14 61.5488 126.646V141.364C61.5488 143.87 63.5804 145.902 66.0865 145.902H171.07C173.576 145.902 175.608 143.87 175.608 141.364V126.646C175.608 124.14 173.576 122.108 171.07 122.108Z" fill="white"/>
<path d="M171.07 146.309H66.0867C64.7752 146.308 63.5178 145.786 62.5905 144.859C61.6633 143.931 61.1418 142.674 61.1406 141.362V126.646C61.1421 125.335 61.6637 124.078 62.591 123.15C63.5182 122.223 64.7754 121.702 66.0867 121.7H171.07C172.381 121.702 173.638 122.223 174.566 123.15C175.493 124.078 176.014 125.335 176.016 126.646V141.362C176.015 142.674 175.493 143.931 174.566 144.859C173.639 145.786 172.381 146.308 171.07 146.309ZM66.0867 122.517C64.9919 122.518 63.9422 122.953 63.1681 123.728C62.3939 124.502 61.9585 125.551 61.9573 126.646V141.362C61.9585 142.457 62.3939 143.507 63.1681 144.281C63.9422 145.055 64.9919 145.49 66.0867 145.492H171.07C172.164 145.491 173.214 145.055 173.988 144.281C174.763 143.507 175.198 142.457 175.199 141.362V126.646C175.198 125.551 174.763 124.502 173.988 123.727C173.214 122.953 172.164 122.518 171.07 122.517H66.0867Z" fill="#003D2B"/>
<path d="M118.577 70.4075C132.038 70.4075 142.951 59.4947 142.951 46.033C142.951 32.5713 132.038 21.6584 118.577 21.6584C105.115 21.6584 94.2021 32.5713 94.2021 46.033C94.2021 59.4947 105.115 70.4075 118.577 70.4075Z" fill="white"/>
<path d="M118.577 70.8158C113.675 70.8158 108.884 69.3624 104.808 66.6392C100.733 63.916 97.5562 60.0454 95.6804 55.517C93.8047 50.9885 93.3139 46.0055 94.2702 41.1981C95.2264 36.3906 97.5867 31.9748 101.053 28.5088C104.519 25.0429 108.935 22.6825 113.742 21.7263C118.549 20.77 123.532 21.2608 128.061 23.1366C132.589 25.0123 136.46 28.1888 139.183 32.2643C141.906 36.3399 143.36 41.1314 143.36 46.033C143.352 52.6035 140.739 58.9029 136.093 63.549C131.447 68.1951 125.147 70.8085 118.577 70.8158ZM118.577 22.0667C113.837 22.0667 109.203 23.4723 105.262 26.1058C101.321 28.7392 98.2489 32.4822 96.4349 36.8615C94.621 41.2407 94.1464 46.0595 95.0711 50.7085C95.9959 55.3575 98.2784 59.6279 101.63 62.9797C104.982 66.3314 109.252 68.614 113.901 69.5387C118.55 70.4634 123.369 69.9888 127.748 68.1749C132.128 66.3609 135.871 63.2891 138.504 59.3479C141.137 55.4067 142.543 50.773 142.543 46.033C142.536 39.6789 140.009 33.5871 135.516 29.0941C131.023 24.6012 124.931 22.0739 118.577 22.0667Z" fill="#003D2B"/>
<path opacity="0.5" d="M142.41 46.033C142.417 51.6747 140.415 57.1346 136.763 61.4346C134.513 58.8121 131.723 56.7073 128.584 55.2644C125.445 53.8216 122.03 53.0748 118.575 53.0755C115.12 53.0761 111.706 53.824 108.567 55.268C105.429 56.712 102.639 58.8179 100.391 61.4411C97.9108 58.5141 96.174 55.0316 95.328 51.2896C94.482 47.5477 94.5517 43.6568 95.5313 39.9475C96.511 36.2383 98.3715 32.8204 100.955 29.9841C103.538 27.1479 106.768 24.9771 110.37 23.6563C113.972 22.3355 117.839 21.9037 121.644 22.3976C125.448 22.8915 129.077 24.2964 132.223 26.4931C135.368 28.6897 137.936 31.6132 139.71 35.015C141.484 38.4169 142.41 42.1966 142.41 46.033Z" fill="#95CEA5"/>
<path d="M136.762 61.4346C134.525 64.0762 131.739 66.1988 128.599 67.6549C125.458 69.111 122.039 69.8655 118.577 69.8662C115.116 69.8668 111.696 69.1134 108.555 67.6585C105.414 66.2035 102.628 64.0819 100.39 61.4411C102.638 58.8179 105.427 56.712 108.566 55.268C111.705 53.824 115.119 53.0761 118.574 53.0755C122.029 53.0748 125.443 53.8216 128.583 55.2644C131.722 56.7073 134.512 58.8121 136.762 61.4346Z" fill="white"/>
<path d="M118.577 48.6287C123.897 48.6287 128.211 44.3156 128.211 38.9951C128.211 33.6746 123.897 29.3615 118.577 29.3615C113.256 29.3615 108.943 33.6746 108.943 38.9951C108.943 44.3156 113.256 48.6287 118.577 48.6287Z" fill="white"/>
<g opacity="0.4">
<path d="M70.3858 136.902C71.986 136.902 73.2832 135.605 73.2832 134.005C73.2832 132.405 71.986 131.108 70.3858 131.108C68.7855 131.108 67.4883 132.405 67.4883 134.005C67.4883 135.605 68.7855 136.902 70.3858 136.902Z" fill="#003D2B"/>
<path d="M79.4492 136.903C81.0495 136.903 82.3467 135.605 82.3467 134.005C82.3467 132.405 81.0495 131.108 79.4492 131.108C77.849 131.108 76.5518 132.405 76.5518 134.005C76.5518 135.605 77.849 136.903 79.4492 136.903Z" fill="#003D2B"/>
<path d="M88.5127 136.903C90.1129 136.903 91.4102 135.605 91.4102 134.005C91.4102 132.405 90.1129 131.108 88.5127 131.108C86.9125 131.108 85.6152 132.405 85.6152 134.005C85.6152 135.605 86.9125 136.903 88.5127 136.903Z" fill="#003D2B"/>
<path d="M97.5762 136.903C99.1764 136.903 100.474 135.605 100.474 134.005C100.474 132.405 99.1764 131.108 97.5762 131.108C95.976 131.108 94.6787 132.405 94.6787 134.005C94.6787 135.605 95.976 136.903 97.5762 136.903Z" fill="#003D2B"/>
<path d="M106.64 136.903C108.24 136.903 109.537 135.605 109.537 134.005C109.537 132.405 108.24 131.108 106.64 131.108C105.039 131.108 103.742 132.405 103.742 134.005C103.742 135.605 105.039 136.903 106.64 136.903Z" fill="#003D2B"/>
<path d="M115.703 136.903C117.303 136.903 118.601 135.605 118.601 134.005C118.601 132.405 117.303 131.108 115.703 131.108C114.103 131.108 112.806 132.405 112.806 134.005C112.806 135.605 114.103 136.903 115.703 136.903Z" fill="#003D2B"/>
<path d="M124.767 136.903C126.367 136.903 127.664 135.605 127.664 134.005C127.664 132.405 126.367 131.108 124.767 131.108C123.166 131.108 121.869 132.405 121.869 134.005C121.869 135.605 123.166 136.903 124.767 136.903Z" fill="#003D2B"/>
</g>
<g opacity="0.3">
<path d="M73.2592 99.8274V100.807H69.5381V99.8274H73.2592Z" fill="black"/>
<path d="M77.8841 99.8274V100.807H74.1631V99.8274H77.8841Z" fill="black"/>
<path d="M82.5082 99.8274V100.807H78.7871V99.8274H82.5082Z" fill="black"/>
<path d="M87.1312 99.8274V100.807H83.4102V99.8274H87.1312Z" fill="black"/>
<path d="M91.7557 99.8274V100.807H88.0342V99.8274H91.7557Z" fill="black"/>
<path d="M100.101 105.356C99.2737 105.782 98.3516 105.99 97.4215 105.96C94.9507 105.96 92.8564 104.152 92.8564 101.26C92.8564 98.1565 95.0112 95.4746 98.3554 95.4746C100.977 95.4746 102.74 97.3121 102.74 99.8286C102.74 102.089 101.474 103.414 100.058 103.414C99.4554 103.414 98.898 103.006 98.9429 102.089H98.8825C98.6877 102.486 98.3855 102.821 98.0103 103.055C97.635 103.289 97.2016 103.414 96.7592 103.414C95.8854 103.414 95.132 102.706 95.132 101.516C95.1304 101.047 95.2216 100.582 95.4004 100.148C95.5793 99.7138 95.8423 99.3194 96.1742 98.9875C96.5061 98.6556 96.9004 98.3927 97.3344 98.2138C97.7684 98.0349 98.2335 97.9437 98.7028 97.9454C99.2564 97.9374 99.8055 98.0451 100.315 98.2618L99.8025 100.989C99.5767 102.132 99.7575 102.663 100.254 102.676C101.023 102.691 101.882 101.666 101.882 99.9192C101.882 97.7347 100.571 96.168 98.2357 96.168C95.7801 96.168 93.716 98.1112 93.716 101.17C93.716 103.686 95.3583 105.237 97.5881 105.237C98.3786 105.256 99.161 105.074 99.8629 104.71L100.101 105.356ZM99.2729 98.8482C99.0283 98.7763 98.7744 98.7409 98.5195 98.7429C97.1937 98.7429 96.1243 99.9931 96.1243 101.455C96.1243 102.117 96.4558 102.598 97.1185 102.598C97.9924 102.598 98.7906 101.483 98.956 100.549L99.2729 98.8482Z" fill="black"/>
<path d="M107.481 99.8274V100.807H103.76V99.8274H107.481Z" fill="black"/>
<path d="M112.105 99.8274V100.807H108.384V99.8274H112.105Z" fill="black"/>
<path d="M116.729 99.8274V100.807H113.008V99.8274H116.729Z" fill="black"/>
</g>
</g>
<defs>
<clipPath id="clip0_418_863">
<rect width="363.468" height="352" fill="white" transform="translate(0.197266)"/>
</clipPath>
</defs>
</svg>
