<svg width="411" height="301" viewBox="0 0 411 301" fill="none" xmlns="http://www.w3.org/2000/svg">
<g clip-path="url(#clip0_646_2994)">
<path d="M197.664 172.587C189.154 172.587 180.857 175.252 173.937 180.206C167.018 185.161 161.823 192.158 159.081 200.215C157.821 203.925 152.551 203.957 151.201 200.278C144.373 181.638 140.641 148.32 189.164 146.301C211.647 145.366 210.771 172.587 197.664 172.587Z" fill="#003D2B"/>
<path d="M207.849 172.587C216.359 172.588 224.656 175.252 231.575 180.207C238.495 185.161 243.689 192.158 246.431 200.215C247.691 203.925 252.962 203.957 254.311 200.278C261.138 181.638 264.871 148.32 216.348 146.301C193.865 145.366 194.742 172.587 207.849 172.587Z" fill="#003D2B"/>
<path d="M59.8535 73.7383C59.8535 73.7383 62.8619 71.9479 61.7579 63.5694L68.0824 62.0718C68.0824 62.0718 67.7368 69.6494 71.0824 71.8851L59.8535 73.7383Z" fill="#E98862"/>
<g opacity="0.15">
<path d="M69.6997 70.3726L64.1973 66.577L68.3597 66.3286C68.5505 67.7483 69.005 69.1199 69.6997 70.3726Z" fill="black"/>
</g>
<path d="M57.9769 60.4857C58.5441 63.0161 60.057 65.3657 62.3482 66.0781C65.0682 66.9253 67.0518 66.8941 70.1334 66.7421C74.3383 66.5353 73.9835 62.1565 73.8839 57.7317C73.7839 53.2888 73.1967 48.5468 71.4586 47.0824C67.989 44.16 58.3493 46.5936 57.4185 51.8136C56.9381 54.5136 57.4365 58.0773 57.9769 60.4857Z" fill="#E98862"/>
<path d="M75.7342 49.4433C75.7342 49.4433 77.4374 48.9741 76.8814 47.2796C76.513 46.1564 75.0662 46.4796 75.0662 46.4796C75.0662 46.4796 76.4354 46.1596 76.3758 44.9524C76.3386 44.1924 75.6914 42.934 73.9657 43.7564C71.9413 44.7216 69.5785 44.7268 67.7713 44.5136C66.7463 44.3415 65.7097 44.247 64.6705 44.2308H64.6653C63.4734 44.2689 62.2941 44.4862 61.1668 44.8752C58.01 45.9916 53.3024 49.1037 54.654 55.5661C56.1624 62.7782 59.7104 65.3902 61.254 66.2062C61.3455 66.2553 61.4468 66.283 61.5505 66.2873C61.6542 66.2915 61.7575 66.272 61.8526 66.2305C61.9477 66.1889 62.0321 66.1263 62.0994 66.0473C62.1668 65.9683 62.2153 65.8751 62.2413 65.7746C62.6013 64.3914 63.1653 60.9273 62.6113 53.8693C72.4361 52.9009 75.263 52.6149 75.263 52.6149C75.263 52.6149 77.5858 52.5873 77.503 50.8949C77.4202 49.2025 75.7342 49.4433 75.7342 49.4433Z" fill="#0F1011"/>
<path d="M67.8472 58.0281C68.1673 58.0281 68.4268 57.7686 68.4268 57.4485C68.4268 57.1284 68.1673 56.8689 67.8472 56.8689C67.5271 56.8689 67.2676 57.1284 67.2676 57.4485C67.2676 57.7686 67.5271 58.0281 67.8472 58.0281Z" fill="#0F1011"/>
<path d="M72.396 57.4289C72.7161 57.4289 72.9756 57.1694 72.9756 56.8493C72.9756 56.5291 72.7161 56.2697 72.396 56.2697C72.0759 56.2697 71.8164 56.5291 71.8164 56.8493C71.8164 57.1694 72.0759 57.4289 72.396 57.4289Z" fill="#0F1011"/>
<path d="M71.7897 55.6229C71.7191 55.6218 71.6516 55.5933 71.6016 55.5434C71.5515 55.4935 71.5228 55.4262 71.5215 55.3555C71.5202 55.2849 71.5464 55.2165 71.5946 55.1648C71.6428 55.1131 71.7092 55.0822 71.7797 55.0785L73.3141 55.0221C73.3503 55.019 73.3867 55.0234 73.421 55.0352C73.4553 55.047 73.4868 55.0658 73.5134 55.0905C73.54 55.1152 73.5611 55.1452 73.5754 55.1785C73.5898 55.2118 73.597 55.2478 73.5965 55.2841C73.5992 55.3563 73.5732 55.4266 73.524 55.4795C73.4749 55.5325 73.4067 55.5638 73.3345 55.5665L71.8001 55.6225L71.7897 55.6229Z" fill="#0F1011"/>
<path d="M66.533 56.4617C66.4674 56.4619 66.4038 56.4384 66.3541 56.3955C66.3044 56.3526 66.2719 56.2931 66.2625 56.2281C66.2532 56.1631 66.2676 56.0969 66.3032 56.0417C66.3388 55.9865 66.3932 55.946 66.4562 55.9277L67.9506 55.4897C67.9854 55.4781 68.0221 55.4735 68.0587 55.4764C68.0952 55.4793 68.1308 55.4895 68.1633 55.5065C68.1958 55.5234 68.2245 55.5468 68.2478 55.5751C68.271 55.6034 68.2883 55.6362 68.2986 55.6713C68.309 55.7065 68.3121 55.7434 68.3078 55.7798C68.3035 55.8162 68.2919 55.8514 68.2737 55.8832C68.2556 55.915 68.2311 55.9428 68.2019 55.965C68.1727 55.9871 68.1394 56.0032 68.1038 56.0121L66.6094 56.4521C66.5846 56.459 66.5588 56.4623 66.533 56.4617Z" fill="#0F1011"/>
<path d="M64.9043 59.0133C64.9515 59.3356 64.9342 59.6641 64.8533 59.9797C64.7724 60.2952 64.6296 60.5915 64.4331 60.8514C64.2367 61.1112 63.9905 61.3294 63.7089 61.4933C63.4274 61.6571 63.116 61.7634 62.7931 61.8058C62.4701 61.8482 62.1419 61.826 61.8275 61.7404C61.5132 61.6549 61.2191 61.5076 60.9622 61.3073C60.7052 61.107 60.4907 60.8577 60.3311 60.5737C60.1714 60.2897 60.0699 59.9769 60.0322 59.6533C59.9845 59.3326 60.0017 59.0056 60.083 58.6917C60.1642 58.3778 60.3078 58.0835 60.5051 57.8262C60.7025 57.569 60.9496 57.3541 61.2318 57.1944C61.5139 57.0347 61.8253 56.9333 62.1475 56.8965C63.8935 56.7553 64.7271 57.6681 64.9043 59.0133Z" fill="#E98862"/>
<g opacity="0.15">
<path d="M70.565 60.5334C70.518 60.5333 70.4725 60.5167 70.4365 60.4865C70.4005 60.4562 70.3764 60.4142 70.3682 60.3679C70.3601 60.3216 70.3686 60.2739 70.3921 60.2332C70.4157 60.1925 70.4528 60.1614 70.497 60.1454L71.657 59.7258L70.7434 57.9322C70.7299 57.9087 70.7212 57.8826 70.7181 57.8557C70.7149 57.8287 70.7172 57.8014 70.725 57.7754C70.7327 57.7494 70.7456 57.7252 70.763 57.7044C70.7804 57.6835 70.8018 57.6664 70.826 57.6541C70.8502 57.6418 70.8766 57.6345 70.9037 57.6327C70.9308 57.631 70.9579 57.6347 70.9835 57.6438C71.0091 57.6529 71.0325 57.667 71.0525 57.6855C71.0724 57.7039 71.0884 57.7262 71.0994 57.751L72.1162 59.7462C72.1293 59.7715 72.1368 59.7993 72.1383 59.8277C72.1397 59.8562 72.1351 59.8846 72.1247 59.9111C72.1143 59.9376 72.0983 59.9616 72.0779 59.9815C72.0574 60.0013 72.033 60.0165 72.0062 60.0262L70.6338 60.523C70.6116 60.5304 70.5884 60.5339 70.565 60.5334Z" fill="black"/>
</g>
<path d="M68.3379 61.9945C68.3379 61.9945 70.4859 62.1145 71.9579 61.5177C71.9579 61.5177 72.0155 62.9257 70.3315 63.1473C68.6475 63.3689 68.3379 61.9945 68.3379 61.9945Z" fill="white"/>
<path d="M84.5857 35.5451L88.8362 33.4539C88.8362 33.4539 88.7662 27.3263 83.3377 24.643C81.5377 23.7538 80.5013 25.7718 80.8745 26.3579C82.1081 28.2931 83.5145 30.0459 83.6937 32.0103C82.9777 31.4679 81.9549 30.7847 81.7065 31.0979C81.0529 31.9203 84.5857 35.5451 84.5857 35.5451Z" fill="#E98862"/>
<path d="M14.088 161.126C13.8432 161.065 13.0995 160.879 6.08789 158.214L9.07191 150.362C12.0443 151.492 15.6212 152.822 16.2172 153.002C16.1772 152.991 16.1472 152.983 16.122 152.977L14.088 161.126Z" fill="#E98862"/>
<path d="M0.0650728 167.391C0.00212955 167.608 -0.0154024 167.835 0.013572 168.059C0.0425464 168.283 0.117405 168.499 0.233471 168.693C0.349538 168.886 0.50432 169.054 0.688149 169.186C0.871978 169.317 1.08091 169.409 1.30188 169.456C1.60822 169.521 1.9267 169.497 2.21991 169.387C2.51312 169.277 2.76887 169.086 2.95709 168.835L8.86474 160.385C8.97846 160.221 9.05542 160.034 9.09035 159.838C9.12528 159.641 9.11737 159.44 9.06714 159.247C8.55322 157.693 8.55097 156.016 9.06074 154.462C9.50784 153.265 10.2822 152.219 11.2956 151.441C11.3926 151.375 11.4688 151.283 11.5154 151.175C11.5619 151.068 11.5769 150.949 11.5586 150.833C11.5403 150.717 11.4894 150.609 11.4119 150.521C11.3344 150.433 11.2334 150.369 11.1208 150.336L6.53512 148.983C6.39986 148.943 6.25806 148.93 6.11785 148.945C5.97763 148.96 5.84177 149.003 5.71805 149.071C5.59433 149.138 5.48519 149.23 5.3969 149.34C5.3086 149.45 5.24288 149.576 5.20351 149.711L0.0650728 167.391Z" fill="#808080"/>
<path d="M48.4335 187.521L47.0039 179.241C50.1371 178.7 53.8928 178.024 54.4972 177.875C54.4572 177.884 54.4272 177.894 54.4028 177.901L56.8 185.953C56.56 186.025 55.8232 186.244 48.4335 187.521Z" fill="#E98862"/>
<path d="M47.9226 198.485C47.9789 198.704 48.0798 198.909 48.2189 199.087C48.3579 199.265 48.5322 199.412 48.7308 199.52C48.9294 199.628 49.1481 199.693 49.3732 199.713C49.5983 199.732 49.8249 199.705 50.039 199.632C50.3357 199.532 50.5977 199.35 50.794 199.106C50.9903 198.862 51.1128 198.567 51.147 198.256L51.9278 187.976C51.9423 187.777 51.9136 187.577 51.8437 187.39C51.7737 187.203 51.6642 187.034 51.5226 186.893C50.2901 185.818 49.4349 184.376 49.0826 182.779C48.8583 181.522 48.992 180.227 49.4682 179.042C49.5181 178.936 49.5367 178.818 49.5219 178.701C49.5072 178.585 49.4596 178.475 49.3848 178.385C49.31 178.294 49.211 178.227 49.0995 178.191C48.9879 178.155 48.8683 178.151 48.7546 178.18L44.1194 179.35C43.9826 179.385 43.8541 179.446 43.7411 179.53C43.6281 179.615 43.5328 179.721 43.4608 179.842C43.3888 179.963 43.3414 180.097 43.3214 180.237C43.3014 180.377 43.3091 180.519 43.3442 180.655L47.9226 198.485Z" fill="#808080"/>
<path d="M93.8987 172.3L93.8587 171.962C92.8071 163.221 86.9502 120.61 86.2586 116.106H55.9728C55.9728 116.106 44.1887 154.62 43.7327 155.687L14.7821 149.515L11.1484 163.862L46.7927 174.345C48.6846 174.9 50.7114 174.774 52.5194 173.987C54.3274 173.201 55.8018 171.804 56.6852 170.041C56.6852 170.041 69.6257 136.985 69.8853 136.376L77.8742 167.951L50.8491 175.643L54.9004 189.878L88.5842 180.291C90.2758 179.809 91.7401 178.739 92.7141 177.275C93.6881 175.81 94.1081 174.046 93.8987 172.3Z" fill="#262626"/>
<path d="M28.5498 42.8099L24.0186 44.1911C24.0186 44.1911 20.1889 38.8339 22.3141 33.1639C23.0186 31.2838 25.1542 32.0474 25.2838 32.7299C25.7074 34.9859 25.5698 38.0659 26.783 39.6211C26.9346 38.7355 27.2134 37.5375 27.609 37.5963C28.649 37.7503 28.5498 42.8099 28.5498 42.8099Z" fill="#E98862"/>
<path d="M99.8402 53.8328L90.1521 31.0247L82.1249 34.4351L90.7521 54.7448L77.352 70.2842C76.2115 70.0718 75.0466 70.0217 73.892 70.1354C73.644 70.1554 73.244 70.1994 72.724 70.2554C72.4356 70.2878 72.102 70.3266 71.7448 70.3686L71.2516 67.7525L58.0839 69.527L58.4475 72.0378C55.6263 72.4586 53.2846 73.4698 51.663 74.8238L32.8873 64.6845L29.8341 40.9703L21.1836 42.0843L24.5224 68.0161C24.6108 68.7024 24.8612 69.3579 25.253 69.9282C25.6448 70.4986 26.1667 70.9675 26.7756 71.2962L48.861 83.2231C49.7858 88.9599 54.3351 95.3684 55.0715 101.136C56.1355 109.472 52.8434 113.688 53.6634 117.928C54.9595 124.596 87.4237 118.84 88.5997 114.808C89.8117 110.648 86.0237 108.668 84.5317 95.7636C83.8209 89.6235 84.7065 82.0259 83.3425 76.6922L99.1294 58.3861C99.6614 57.7693 100.01 57.0158 100.136 56.211C100.261 55.4063 100.159 54.5824 99.8402 53.8328Z" fill="#95CEA5"/>
<path d="M404.238 155.906L370.278 162.095C369.272 162.278 368.235 162.172 367.287 161.788C366.339 161.404 365.52 160.758 364.926 159.926L364.67 159.566L349.654 138.49L363.054 130.755L372.412 151.262L402.998 147.599L404.238 155.906Z" fill="#E98862"/>
<path d="M410.533 165.18C410.586 165.4 410.594 165.628 410.554 165.851C410.515 166.073 410.431 166.285 410.306 166.474C410.181 166.662 410.019 166.823 409.829 166.945C409.64 167.068 409.427 167.151 409.204 167.188C408.895 167.239 408.578 167.2 408.29 167.077C408.002 166.954 407.756 166.751 407.579 166.493L402.059 157.784C401.953 157.615 401.884 157.425 401.858 157.227C401.832 157.029 401.849 156.828 401.908 156.638C402.492 155.109 402.57 153.434 402.131 151.858C401.738 150.643 401.012 149.563 400.035 148.741C399.941 148.671 399.869 148.575 399.828 148.466C399.786 148.356 399.776 148.237 399.8 148.122C399.823 148.007 399.879 147.901 399.96 147.816C400.042 147.732 400.146 147.672 400.26 147.644L404.902 146.5C405.039 146.467 405.181 146.46 405.32 146.482C405.46 146.503 405.593 146.552 405.714 146.625C405.835 146.698 405.94 146.794 406.023 146.908C406.106 147.022 406.166 147.151 406.199 147.288L410.533 165.18Z" fill="#808080"/>
<path d="M330.485 165.564L342.792 213.019L334.732 215.386L319.432 168.856L330.485 165.564Z" fill="#E98862"/>
<path d="M326.006 222.295C325.792 222.367 325.566 222.395 325.341 222.376C325.116 222.357 324.897 222.292 324.698 222.184C324.499 222.077 324.325 221.93 324.185 221.752C324.046 221.574 323.945 221.37 323.888 221.151C323.81 220.848 323.82 220.529 323.916 220.231C324.013 219.934 324.193 219.67 324.434 219.471L332.614 213.191C332.772 213.07 332.955 212.985 333.15 212.941C333.345 212.897 333.546 212.896 333.742 212.938C335.316 213.382 336.991 213.31 338.522 212.731C339.697 212.231 340.707 211.411 341.438 210.364C341.5 210.265 341.589 210.184 341.694 210.133C341.8 210.082 341.918 210.061 342.034 210.074C342.151 210.088 342.262 210.134 342.353 210.207C342.444 210.281 342.513 210.379 342.551 210.49L344.106 215.01C344.152 215.143 344.172 215.284 344.163 215.425C344.154 215.566 344.118 215.704 344.055 215.83C343.993 215.957 343.907 216.07 343.801 216.163C343.695 216.256 343.572 216.328 343.438 216.373L326.006 222.295Z" fill="#808080"/>
<path d="M327.21 104.465C327.21 104.465 316.643 138.508 313.754 148.226C307.219 170.207 319.431 186.62 319.431 186.62C319.431 186.62 335.951 188.976 344.166 178.031C359.359 157.787 378.802 171.877 379.636 149.441C368.576 147.354 356.171 107.254 356.171 107.254L327.21 104.465Z" fill="#262626"/>
<path d="M331.002 22.7946L326.559 21.1514C326.559 21.1514 325.999 15.0489 331.123 11.8221C332.821 10.7525 334.061 12.6533 333.749 13.2745C332.721 15.3265 331.501 17.2145 331.526 19.1869C332.183 18.5737 333.13 17.7889 333.409 18.0749C334.143 18.8273 331.002 22.7946 331.002 22.7946Z" fill="#E98862"/>
<path d="M384.91 34.8711L389.638 35.1627C389.638 35.1627 392.118 29.0627 388.735 24.0406C387.615 22.3766 385.712 23.6146 385.746 24.3082C385.858 26.6011 386.706 29.5651 385.888 31.3591C385.535 30.5327 384.985 29.4327 384.615 29.5815C383.639 29.9731 384.91 34.8711 384.91 34.8711Z" fill="#E98862"/>
<path d="M392.417 33.9151L387.509 59.6673C387.392 60.2839 387.143 60.8678 386.779 61.3793C386.415 61.8909 385.945 62.3179 385.401 62.6313L366.773 73.3634C367.013 79.7554 360.665 87.0475 359.505 93.7075C358.065 101.988 361.165 106.348 360.153 110.548C358.557 117.152 326.385 109.932 325.392 105.848C324.368 101.644 328.244 99.8316 330.316 87.0115C331.304 80.9074 330.764 73.2794 332.368 68.0113L317.424 49.0112C316.985 48.4517 316.689 47.7934 316.562 47.0935C316.435 46.3936 316.481 45.6732 316.696 44.9952L325.012 18.835L333.324 21.475L325.708 45.4352L338.644 61.8833C339.792 61.7216 340.957 61.7243 342.105 61.8913C342.352 61.9233 342.752 61.9833 343.268 62.0633C342.997 64.2513 356.417 66.5793 357.089 64.4153C358.794 64.6936 360.441 65.2518 361.964 66.0673L379.317 56.0713L383.849 32.2831L392.417 33.9151Z" fill="#95CEA5"/>
<path d="M357.089 64.4153C356.417 66.5793 352.005 69.6753 347.213 68.5113C343.621 67.6433 342.997 64.2512 343.269 62.0632C346.057 62.5032 352.301 63.5792 357.077 64.4112C357.079 64.411 357.081 64.4112 357.084 64.4119C357.086 64.4125 357.088 64.4137 357.089 64.4153Z" fill="#E98862"/>
<path d="M226.736 276.214L176.492 271.048L187.647 84.5542H215.352L226.736 276.214Z" fill="#F3F5FD"/>
<path d="M328.581 279.746C327.32 279.748 326.061 279.853 324.817 280.062C322.922 273.184 319.529 266.81 314.882 261.397C310.235 255.984 304.448 251.665 297.937 248.75C291.425 245.835 284.349 244.396 277.216 244.535C270.083 244.675 263.069 246.39 256.677 249.558C254.899 244.202 251.562 239.5 247.093 236.054C242.624 232.609 237.227 230.578 231.595 230.221C225.964 229.865 220.354 231.2 215.486 234.054C210.618 236.909 206.715 241.153 204.276 246.242C202.981 240.864 199.912 236.078 195.565 232.657C191.217 229.236 185.844 227.379 180.312 227.386C179.708 227.386 179.112 227.406 178.52 227.45C173.417 227.823 168.557 229.775 164.612 233.034C160.667 236.292 157.834 240.697 156.504 245.638C151.305 243.734 145.739 243.043 140.232 243.619C134.725 244.194 129.422 246.02 124.729 248.958C120.036 251.895 116.075 255.866 113.151 260.568C110.227 265.27 108.415 270.578 107.856 276.086C103.989 276.383 100.272 277.705 97.0852 279.914C93.8985 282.124 91.3576 285.142 89.7235 288.658C87.0252 287.463 84.1126 286.826 81.1616 286.788C78.2106 286.75 75.2824 287.31 72.5539 288.435C69.8255 289.56 67.3534 291.226 65.287 293.333C63.2206 295.44 61.6028 297.944 60.5312 300.694H351.062C350.661 295.006 348.119 289.681 343.947 285.793C339.775 281.906 334.284 279.745 328.581 279.746Z" fill="#F3F5FD"/>
<path d="M223.682 180.691H178.621V195.584H223.682V180.691Z" fill="#808080"/>
<path d="M238.617 107.069C238.617 132.453 231.553 167.769 226.437 186.121H176.561C171.445 167.769 164.381 132.453 164.381 107.069C164.381 47.9364 201.501 0 201.501 0C201.501 0 238.617 47.9364 238.617 107.069Z" fill="#95CEA5"/>
<path d="M201.499 110.029C213.029 110.029 222.377 100.682 222.377 89.1514C222.377 77.621 213.029 68.2737 201.499 68.2737C189.968 68.2737 180.621 77.621 180.621 89.1514C180.621 100.682 189.968 110.029 201.499 110.029Z" fill="white"/>
<path d="M201.499 104.565C210.012 104.565 216.913 97.664 216.913 89.1515C216.913 80.6389 210.012 73.7382 201.499 73.7382C192.987 73.7382 186.086 80.6389 186.086 89.1515C186.086 97.664 192.987 104.565 201.499 104.565Z" fill="#808080"/>
<path d="M226.9 47.2764H176.096C186.976 18.7561 201.5 0 201.5 0C201.5 0 216.024 18.7561 226.9 47.2764Z" fill="#003D2B"/>
<path d="M355.757 66.0989C355.757 66.0989 352.935 64.0269 354.843 55.794L348.692 53.6924C348.692 53.6924 348.305 61.268 344.758 63.1701L355.757 66.0989Z" fill="#E98862"/>
<g opacity="0.15">
<path d="M346.283 61.8004L352.126 58.554L348.006 57.9052C347.68 59.2996 347.095 60.6207 346.283 61.8004Z" fill="black"/>
</g>
<path d="M358.905 53.09C358.096 55.554 356.364 57.7452 354.014 58.234C351.441 58.8419 348.759 58.8109 346.201 58.1436C339.361 56.5588 343.045 41.0235 346.78 38.4479C350.515 35.8723 359.875 39.2267 360.297 44.5123C360.515 47.246 359.675 50.7448 358.905 53.09Z" fill="#E98862"/>
<path d="M341.791 43.5971C341.791 43.5971 344.791 32.6106 356.674 37.1634C358.582 37.9825 360.182 39.3854 361.244 41.1707C361.878 40.2479 362.774 39.5364 363.817 39.1278C364.86 38.7192 366.001 38.6323 367.093 38.8783C368.186 39.1243 369.18 39.6919 369.947 40.5079C370.714 41.3239 371.218 42.3509 371.396 43.4566C371.574 44.5622 371.417 45.6958 370.944 46.7111C370.472 47.7265 369.706 48.577 368.746 49.1532C367.786 49.7293 366.675 50.0046 365.557 49.9436C364.439 49.8826 363.364 49.488 362.472 48.8107C362.438 48.9707 362.403 49.1283 362.361 49.2907C360.59 56.1072 354.318 58.7268 354.318 58.7268C354.318 58.7268 352.942 57.3268 355.137 46.2191C352.438 46.0527 346.285 45.4843 341.791 43.5971Z" fill="#0F1011"/>
<path d="M349.375 49.6935C349.695 49.6935 349.954 49.434 349.954 49.1139C349.954 48.7938 349.695 48.5343 349.375 48.5343C349.054 48.5343 348.795 48.7938 348.795 49.1139C348.795 49.434 349.054 49.6935 349.375 49.6935Z" fill="#0F1011"/>
<path d="M344.904 48.658C345.224 48.658 345.483 48.3985 345.483 48.0784C345.483 47.7583 345.224 47.4988 344.904 47.4988C344.584 47.4988 344.324 47.7583 344.324 48.0784C344.324 48.3985 344.584 48.658 344.904 48.658Z" fill="#0F1011"/>
<path d="M345.652 46.9171C345.64 46.9179 345.628 46.9179 345.615 46.9171L344.095 46.7127C344.024 46.7031 343.959 46.6654 343.915 46.6079C343.871 46.5505 343.852 46.4779 343.862 46.4063C343.871 46.3347 343.909 46.2699 343.967 46.2261C344.024 46.1823 344.097 46.1631 344.168 46.1727L345.69 46.3771C345.758 46.3869 345.82 46.422 345.863 46.4753C345.906 46.5287 345.928 46.5963 345.923 46.6648C345.919 46.7333 345.888 46.7975 345.839 46.8447C345.789 46.8918 345.723 46.9184 345.654 46.9191L345.652 46.9171Z" fill="#0F1011"/>
<path d="M350.804 48.2599C350.769 48.2599 350.735 48.2533 350.702 48.2403L349.258 47.6595C349.191 47.632 349.139 47.5796 349.111 47.5135C349.083 47.4474 349.083 47.3731 349.109 47.3066C349.136 47.2401 349.188 47.1868 349.254 47.1582C349.319 47.1296 349.394 47.1281 349.46 47.1539L350.906 47.7347C350.964 47.7583 351.013 47.8016 351.043 47.8572C351.074 47.9128 351.084 47.9771 351.072 48.0393C351.06 48.1014 351.026 48.1574 350.977 48.1977C350.929 48.238 350.867 48.26 350.804 48.2599Z" fill="#0F1011"/>
<path d="M348.443 53.5911C348.443 53.5911 346.293 53.5035 344.886 52.7667C344.886 52.7667 344.693 54.1627 346.348 54.5463C348.003 54.9299 348.443 53.5911 348.443 53.5911Z" fill="white"/>
<path d="M352.149 50.9556C352.002 51.5905 352.113 52.2578 352.458 52.8108C352.803 53.3637 353.354 53.7571 353.988 53.9042C354.623 54.0514 355.291 53.9403 355.844 53.5954C356.397 53.2505 356.79 52.7001 356.937 52.0652C357.016 51.7505 357.03 51.4233 356.979 51.103C356.929 50.7826 356.814 50.4758 356.643 50.2006C356.471 49.9255 356.246 49.6877 355.98 49.5015C355.714 49.3153 355.414 49.1845 355.097 49.1168C353.374 48.8056 352.456 49.6336 352.149 50.9556Z" fill="#E98862"/>
<g opacity="0.15">
<path d="M346.36 51.9203C346.407 51.9273 346.456 51.917 346.496 51.8914C346.537 51.8658 346.567 51.8265 346.58 51.7807C346.594 51.7349 346.591 51.6856 346.572 51.6418C346.553 51.598 346.518 51.5625 346.475 51.5419L345.361 51.0127L346.444 49.3159C346.459 49.2938 346.469 49.2689 346.474 49.2428C346.479 49.2166 346.479 49.1897 346.474 49.1636C346.468 49.1375 346.458 49.1128 346.443 49.0908C346.428 49.0689 346.408 49.0502 346.386 49.0358C346.363 49.0215 346.338 49.0117 346.312 49.0072C346.286 49.0027 346.259 49.0034 346.233 49.0094C346.207 49.0154 346.182 49.0266 346.161 49.0422C346.139 49.0578 346.121 49.0775 346.107 49.1003L344.902 50.9883C344.887 51.0122 344.877 51.0391 344.873 51.0671C344.869 51.0952 344.871 51.1237 344.879 51.151C344.887 51.1782 344.9 51.2035 344.919 51.2251C344.937 51.2467 344.96 51.2641 344.985 51.2763L346.303 51.9031C346.321 51.9118 346.34 51.9176 346.36 51.9203Z" fill="black"/>
</g>
</g>
<defs>
<clipPath id="clip0_646_2994">
<rect width="410.58" height="300.694" fill="white"/>
</clipPath>
</defs>
</svg>
