<svg width="240" height="240" viewBox="0 0 240 240" fill="none" xmlns="http://www.w3.org/2000/svg">
<path d="M120 0C151.826 0 182.348 12.6428 204.853 35.1472C227.357 57.6516 240 88.174 240 120C240 151.826 227.357 182.348 204.853 204.853C182.348 227.357 151.826 240 120 240C88.174 240 57.6516 227.357 35.1472 204.853C12.6428 182.348 0 151.826 0 120C0 88.174 12.6428 57.6516 35.1472 35.1472C57.6516 12.6428 88.174 0 120 0ZM22.5 120C22.5 145.859 32.7723 170.658 51.0571 188.943C69.3419 207.228 94.1414 217.5 120 217.5C145.859 217.5 170.658 207.228 188.943 188.943C207.228 170.658 217.5 145.859 217.5 120C217.5 94.1414 207.228 69.3419 188.943 51.0571C170.658 32.7723 145.859 22.5 120 22.5C94.1414 22.5 69.3419 32.7723 51.0571 51.0571C32.7723 69.3419 22.5 94.1414 22.5 120ZM95.685 78.405L159.645 116.79C160.198 117.124 160.655 117.595 160.972 118.157C161.29 118.719 161.456 119.354 161.456 120C161.456 120.646 161.29 121.281 160.972 121.843C160.655 122.405 160.198 122.876 159.645 123.21L95.685 161.595C95.1162 161.938 94.4667 162.123 93.8028 162.132C93.1389 162.142 92.4844 161.975 91.9062 161.648C91.328 161.322 90.8469 160.848 90.512 160.274C90.1771 159.701 90.0004 159.049 90 158.385V81.63C89.9977 80.9647 90.1725 80.3109 90.5063 79.7354C90.8401 79.16 91.321 78.6837 91.8997 78.3555C92.4783 78.0272 93.1338 77.8588 93.799 77.8675C94.4642 77.8762 95.1152 78.0617 95.685 78.405Z" fill="white" fill-opacity="0.69"/>
</svg>
