<svg width="326" height="326" viewBox="0 0 326 326" fill="none" xmlns="http://www.w3.org/2000/svg">
<circle cx="163" cy="163" r="163" fill="#F2F2F2"/>
<circle cx="163" cy="163" r="114" fill="#95CEA5" stroke="#003D2B" stroke-width="10"/>
<path d="M134.999 199.688L104.655 169.344C103.147 167.887 101.126 167.081 99.0281 167.099C96.9306 167.117 94.9241 167.959 93.4408 169.442C91.9575 170.925 91.1162 172.932 91.098 175.029C91.0797 177.127 91.8861 179.148 93.3434 180.656L129.343 216.656C130.844 218.156 132.878 218.999 134.999 218.999C137.121 218.999 139.155 218.156 140.655 216.656L228.655 128.656C230.113 127.148 230.919 125.127 230.901 123.029C230.883 120.932 230.041 118.925 228.558 117.442C227.075 115.959 225.068 115.117 222.971 115.099C220.873 115.081 218.852 115.887 217.343 117.344L134.999 199.688Z" fill="white"/>
</svg>
