<svg width="12" height="12" viewBox="0 0 12 12" fill="none" xmlns="http://www.w3.org/2000/svg">
<path d="M9.45 4.60001C9.05 5.05001 8.3 5.50001 7.5 5.50001C6.75 5.50001 6.3 5.25001 5.9 5.05001C5.5 4.90001 5.1 4.65001 4.45 4.65001C3.85 4.65001 3.3 5.00001 3 5.30001L2.5 4.55001C2.95 4.10001 3.65 3.60001 4.45 3.60001C5.2 3.60001 5.65 3.90001 6.05 4.05001C6.45 4.20001 6.85 4.50001 7.5 4.50001C8.1 4.50001 8.65 4.10001 8.95 3.80001L9.45 4.60001ZM9.5 7.05001C9.05 7.50001 8.35 8.00001 7.55 8.00001C6.8 8.00001 6.35 7.75001 5.95 7.55001C5.55 7.40001 5.15 7.10001 4.5 7.10001C3.9 7.10001 3.35 7.50001 3.05 7.80001L2.55 7.00001C3 6.55001 3.7 6.05001 4.5 6.05001C5.25 6.05001 5.7 6.30001 6.1 6.50001C6.5 6.65001 6.9 6.90001 7.55 6.90001C8.15 6.90001 8.7 6.50001 9 6.20001L9.5 7.05001Z" fill="#808080"/>
</svg>
