<svg width="485" height="433" viewBox="0 0 485 433" fill="none" xmlns="http://www.w3.org/2000/svg">
<g clip-path="url(#clip0_286_94)">
<path d="M474.779 291.434C474.859 342.407 457.96 391.955 426.751 432.257H61.932C30.7226 391.955 13.824 342.407 13.9036 291.434C13.9036 164.166 117.078 61.0015 244.346 61.0015C371.615 61.0015 474.779 164.169 474.779 291.434Z" fill="white"/>
<path opacity="0.1" d="M474.779 291.434C474.859 342.407 457.96 391.955 426.751 432.257H61.932C30.7226 391.955 13.824 342.407 13.9036 291.434C13.9036 164.166 117.078 61.0015 244.346 61.0015C371.615 61.0015 474.779 164.169 474.779 291.434Z" fill="#95CEA5"/>
<path d="M358.189 433H261.262L255.446 355.641L354.717 359.137C354.717 359.137 355.918 350.118 355.978 367.215C356.017 379.075 358.495 402.588 358.189 433Z" fill="#262626"/>
<path d="M296.508 351.197C296.418 353.039 296.317 354.891 296.197 356.733C294.653 382.393 291.105 407.893 285.584 433H188.709C189.97 393.721 191.022 362.609 191.022 362.609L255.446 355.641L259.31 355.219L296.508 351.197Z" fill="#262626"/>
<path d="M319.872 89.0575C319.872 89.0575 320.971 114.359 326.437 123.658C342.185 150.425 346.235 180.22 329.488 195.346C312.742 210.472 208.224 208.255 201.136 172.401C195.17 142.216 209.55 139.319 213.607 114.627C215.443 103.455 220.322 80.0508 220.322 80.0508" fill="#0A0A0A"/>
<path d="M230.442 168.46C230.622 168.437 232.625 201.664 271.225 198.768C297.949 196.765 307.477 168.413 308.089 168.413C305.208 167.801 300.356 166.91 299.077 166.227C294.869 163.966 289.662 161.614 288.306 153.442C287.524 148.732 288.85 124.637 288.442 119.872L247.422 129.027C247.995 139.092 252.008 162.423 237.947 166.555C235.608 167.236 233.088 167.862 230.442 168.46Z" fill="#E98862"/>
<path opacity="0.52" d="M246.847 157.018C247.49 154.947 247.904 152.812 248.081 150.651C248.532 145.72 248.442 140.755 247.813 135.844C256.151 134.719 264.005 131.277 270.484 125.911C271.245 128.724 275.434 141.015 274.275 143.688C272.082 148.742 261.781 157.018 246.847 157.018Z" fill="#0C0C0C"/>
<path d="M250.521 146.517C266.654 148.461 287.723 142.477 292.558 121.047L296.92 101.71C301.755 80.2804 294.418 60.3686 274.241 55.8145C254.064 51.2621 235.062 65.2329 230.228 86.6653L228.296 95.2258C226.442 103.447 221.74 143.054 250.521 146.517Z" fill="#E98862"/>
<path d="M246.664 122.843C249.761 122.901 252.801 123.686 255.538 125.135C255.649 125.195 255.732 125.295 255.77 125.415C255.807 125.535 255.797 125.665 255.74 125.778C255.683 125.89 255.585 125.976 255.466 126.017C255.347 126.058 255.217 126.051 255.103 125.998C249.197 123.019 243.659 123.045 239.089 126.071C238.996 126.135 238.901 126.195 238.802 126.249C238.688 126.297 238.56 126.299 238.444 126.256C238.329 126.212 238.234 126.126 238.18 126.015C238.126 125.904 238.117 125.776 238.154 125.658C238.191 125.54 238.272 125.441 238.379 125.381C238.416 125.36 238.476 125.32 238.559 125.265C240.959 123.669 243.781 122.826 246.664 122.843Z" fill="#0C0C0C"/>
<path d="M245.876 116.282H245.835C245.006 116.156 244.184 115.984 243.374 115.767C242.163 115.435 240.572 114.867 240.728 113.78C240.908 112.541 246.235 99.6649 246.842 98.2009C246.867 98.1358 246.905 98.0763 246.953 98.026C247.002 97.9757 247.06 97.9356 247.124 97.908C247.188 97.8805 247.257 97.8661 247.327 97.8657C247.396 97.8653 247.466 97.8789 247.53 97.9057C247.595 97.9325 247.653 97.9719 247.702 98.0216C247.751 98.0714 247.789 98.1304 247.815 98.1953C247.841 98.2602 247.853 98.3295 247.852 98.3993C247.85 98.4691 247.835 98.5379 247.806 98.6016C245.534 104.085 241.882 113.096 241.762 113.93C241.913 114.307 243.927 114.95 245.988 115.248C246.121 115.268 246.241 115.339 246.324 115.445C246.406 115.552 246.444 115.686 246.43 115.819C246.416 115.953 246.351 116.076 246.248 116.163C246.146 116.25 246.014 116.294 245.879 116.286L245.876 116.282Z" fill="#0C0C0C"/>
<path d="M312.933 109.06L294.845 105.088C281.251 99.0266 277.913 75.0095 277.913 75.0095C277.913 75.0095 260.594 90.751 220.327 80.0504C220.327 80.0504 230.439 23.727 289.832 42.2772C308.983 48.2588 322.182 68.2257 319.545 94.2105C317.693 112.415 312.933 109.06 312.933 109.06Z" fill="#0A0A0A"/>
<path d="M289.831 127.291C295.963 128.675 302.414 123.234 303.798 117.104C305.181 110.975 300.973 106.469 294.838 105.086L290.752 108.481L284.56 126.108L289.831 127.291Z" fill="#E98862"/>
<path d="M243.544 86.7542C241.784 85.5288 239.726 84.799 237.587 84.6411C236.535 84.5574 235.475 84.6323 234.445 84.8634C233.425 85.0879 232.437 85.44 231.504 85.9115C231.376 85.9723 231.277 86.0808 231.227 86.2138C231.178 86.3469 231.182 86.494 231.239 86.6239C231.296 86.7538 231.402 86.8562 231.534 86.9094C231.665 86.9627 231.812 86.9624 231.944 86.9089L231.983 86.8928C232.843 86.5069 233.748 86.2303 234.677 86.0695C235.596 85.906 236.534 85.8824 237.459 85.9994C239.295 86.2178 241.041 86.9176 242.519 88.0279L242.567 88.066C242.738 88.1995 242.955 88.2594 243.171 88.2326C243.387 88.2058 243.583 88.0945 243.716 87.9231C243.85 87.7518 243.91 87.5344 243.883 87.3188C243.856 87.1032 243.745 86.9071 243.573 86.7736L243.544 86.7542Z" fill="#0C0C0C"/>
<path d="M259.348 90.4171C261.158 90.0398 263.036 90.1483 264.791 90.7315C265.678 91.0195 266.517 91.4398 267.278 91.9782C268.051 92.5185 268.753 93.1537 269.367 93.869L269.395 93.8994C269.491 94.0033 269.624 94.0657 269.765 94.0733C269.907 94.0809 270.046 94.0332 270.152 93.9403C270.259 93.8474 270.326 93.7166 270.338 93.5755C270.35 93.4344 270.307 93.2941 270.217 93.1844C269.574 92.3617 268.829 91.6233 268.001 90.9868C267.167 90.3392 266.241 89.8209 265.252 89.4493C263.25 88.6818 261.077 88.4669 258.963 88.8272C258.855 88.8435 258.751 88.8813 258.657 88.9384C258.564 88.9955 258.483 89.0707 258.419 89.1597C258.355 89.2486 258.31 89.3495 258.286 89.4562C258.262 89.563 258.259 89.6736 258.278 89.7813C258.298 89.8891 258.338 89.9919 258.398 90.0837C258.458 90.1755 258.535 90.2543 258.626 90.3157C258.717 90.377 258.819 90.4195 258.926 90.4407C259.033 90.4619 259.144 90.4613 259.251 90.4391L259.285 90.4323L259.348 90.4171Z" fill="#0C0C0C"/>
<path d="M294.81 104.855L295.007 104.358C272.228 95.2722 278.658 72.8305 278.725 72.604L278.213 72.4502C278.146 72.6801 271.568 95.5858 294.81 104.855Z" fill="#0C0C0C"/>
<path d="M233.739 95.866C235.146 95.866 236.287 94.7255 236.287 93.3185C236.287 91.9116 235.146 90.771 233.739 90.771C232.332 90.771 231.192 91.9116 231.192 93.3185C231.192 94.7255 232.332 95.866 233.739 95.866Z" fill="#0C0C0C"/>
<path d="M258.921 100.201C260.328 100.201 261.469 99.0604 261.469 97.6535C261.469 96.2465 260.328 95.106 258.921 95.106C257.514 95.106 256.374 96.2465 256.374 97.6535C256.374 99.0604 257.514 100.201 258.921 100.201Z" fill="#0C0C0C"/>
<path opacity="0.1" d="M266.763 115.704C267.041 113.757 265.116 111.872 262.462 111.493C259.809 111.113 257.432 112.383 257.154 114.33C256.876 116.276 258.801 118.162 261.454 118.541C264.108 118.92 266.484 117.65 266.763 115.704Z" fill="#0C0C0C"/>
<path opacity="0.1" d="M233.522 110.084C233.239 112.028 230.863 113.296 228.209 112.92C227.75 112.854 227.3 112.741 226.865 112.582C226.795 110.255 226.84 108.018 226.956 105.952C227.7 105.785 228.467 105.758 229.221 105.872C231.874 106.245 233.798 108.133 233.522 110.084Z" fill="#0C0C0C"/>
<path d="M44.2115 166.51C44.5666 165.806 45.1314 165.23 45.8279 164.862C46.5244 164.493 47.3182 164.35 48.0995 164.452C48.0927 164.405 48.0974 164.357 48.1133 164.312C48.1292 164.268 48.1558 164.227 48.1907 164.195C48.2257 164.163 48.268 164.14 48.314 164.128C48.3599 164.115 48.4082 164.115 48.4545 164.125L45.8182 162.235C45.0296 161.696 44.463 160.889 44.2231 159.964C43.9832 159.038 44.0863 158.058 44.5132 157.203C44.9623 156.372 45.7038 155.738 46.5939 155.423C47.4841 155.108 48.4595 155.135 49.331 155.498C49.3242 155.461 49.3496 155.425 49.3555 155.387L48.2719 154.611C47.5309 154.099 46.9895 153.347 46.7392 152.481C46.489 151.616 46.5452 150.691 46.8984 149.863C47.1307 149.348 47.4744 148.891 47.9047 148.525C48.3349 148.159 48.841 147.893 49.3865 147.747C49.9319 147.6 50.5032 147.576 51.0589 147.677C51.6147 147.778 52.1411 148.001 52.6003 148.33L55.0997 150.122C55.1073 150.106 55.0997 150.089 55.1098 150.075C55.12 150.061 55.147 150.056 55.1614 150.041C54.5868 149.396 54.2486 148.575 54.2026 147.712C54.1565 146.849 54.4052 145.996 54.9078 145.294C56.0911 143.395 58.8111 143.783 60.428 144.941L75.14 155.104L72.5105 150.677C71.9822 149.825 71.7967 148.805 71.9914 147.821C72.1861 146.838 72.7464 145.965 73.5594 145.379C73.99 145.091 74.4746 144.894 74.9839 144.799C75.4932 144.704 76.0164 144.715 76.5217 144.829C77.0269 144.943 77.5036 145.159 77.9226 145.464C78.3416 145.768 78.6941 146.155 78.9588 146.6L93.3183 170.774C95.0028 173.61 95.5152 176.991 94.7466 180.198C93.9779 183.406 91.9889 186.188 89.2021 187.952C85.9701 189.999 82.2007 191.033 78.3769 190.923C74.5532 190.814 70.8493 189.565 67.7401 187.336L45.5216 171.412C44.7824 170.862 44.2508 170.079 44.013 169.189C43.7752 168.299 43.8451 167.355 44.2115 166.51Z" fill="#E98862"/>
<g opacity="0.25">
<path d="M69.6619 160.171C69.6081 160.245 69.5272 160.296 69.4366 160.312C69.3459 160.328 69.2527 160.307 69.1768 160.255L55.1976 150.567C55.1579 150.542 55.1238 150.508 55.0973 150.469C55.0708 150.43 55.0525 150.386 55.0433 150.34C55.0342 150.293 55.0344 150.246 55.044 150.199C55.0537 150.153 55.0725 150.109 55.0994 150.071C55.1264 150.032 55.1608 149.999 55.2007 149.974C55.2406 149.948 55.2852 149.931 55.3318 149.924C55.3784 149.916 55.4261 149.918 55.472 149.929C55.5179 149.94 55.5611 149.96 55.599 149.988L69.5783 159.671C69.6548 159.725 69.7071 159.806 69.7237 159.898C69.7403 159.989 69.7199 160.084 69.667 160.161L69.6619 160.171Z" fill="#0C0C0C"/>
</g>
<g opacity="0.25">
<path d="M65.5619 166.451C65.5081 166.525 65.4272 166.576 65.3365 166.592C65.2459 166.607 65.1526 166.587 65.0767 166.535L49.4764 155.726C49.3997 155.673 49.3473 155.592 49.3305 155.5C49.3137 155.408 49.3339 155.314 49.3868 155.237C49.4419 155.163 49.5233 155.112 49.6143 155.096C49.7054 155.079 49.7993 155.098 49.877 155.148L65.4782 165.954C65.5547 166.008 65.607 166.089 65.6236 166.181C65.6403 166.273 65.6199 166.367 65.567 166.444L65.5619 166.451Z" fill="#0C0C0C"/>
</g>
<g opacity="0.25">
<path d="M61.1597 173.281C61.1062 173.356 61.0254 173.406 60.9349 173.422C60.8443 173.438 60.7511 173.417 60.6754 173.365L48.2303 164.744C48.1585 164.689 48.1106 164.608 48.0965 164.519C48.0825 164.43 48.1034 164.338 48.1549 164.264C48.2064 164.189 48.2846 164.138 48.3732 164.119C48.4618 164.101 48.5541 164.117 48.6309 164.165L61.0761 172.786C61.1528 172.84 61.2052 172.921 61.2219 173.013C61.2385 173.105 61.218 173.2 61.1648 173.277L61.1597 173.281Z" fill="#0C0C0C"/>
</g>
<path d="M99.6489 162.052L135.387 244.585L184.697 177.096L227.432 215.618L154.457 310.128L153.978 310.804C151.058 314.804 147.166 317.995 142.671 320.076C138.176 322.157 133.225 323.059 128.285 322.698C123.345 322.336 118.578 320.723 114.434 318.01C110.289 315.296 106.904 311.573 104.597 307.19L53.207 187.885L99.6489 162.052Z" fill="#95CEA5"/>
<path d="M139.523 253.22C139.615 253.221 139.705 253.197 139.785 253.152C139.865 253.107 139.933 253.043 139.981 252.965C140.028 252.886 140.055 252.797 140.059 252.705C140.062 252.614 140.042 252.523 140 252.441L135.866 244.341C135.799 244.219 135.687 244.128 135.554 244.087C135.421 244.046 135.277 244.058 135.153 244.122C135.029 244.185 134.934 244.294 134.889 244.426C134.844 244.558 134.852 244.702 134.912 244.828L139.046 252.929C139.091 253.017 139.159 253.091 139.244 253.142C139.328 253.193 139.425 253.221 139.523 253.22Z" fill="#0C0C0C"/>
<path d="M182.482 241.612C183.699 255.897 189.613 345.012 190.782 362.607H355.894C356.805 346.737 356.887 277.349 360.338 246.319C363.635 216.708 370.096 201.882 365.358 193.128C357.616 178.821 346.498 165.918 325.181 164.137C316.323 163.396 299.978 166.556 299.978 166.556C299.978 166.556 298.854 189.246 272.109 190.508C235.697 192.227 238.117 166.614 237.948 166.553C230.442 163.808 204.317 162.411 192.813 170.01C170.862 184.504 179.902 211.342 182.482 241.612Z" fill="#95CEA5"/>
<path d="M183.712 250.885L182.643 250.945L183.93 273.629L184.999 273.568L183.712 250.885Z" fill="#0C0C0C"/>
<path d="M484.313 176.525C483.894 175.858 483.279 175.337 482.553 175.034C481.826 174.731 481.023 174.661 480.255 174.834C480.258 174.787 480.249 174.739 480.229 174.696C480.209 174.653 480.178 174.616 480.141 174.587C480.103 174.558 480.059 174.539 480.012 174.531C479.965 174.523 479.917 174.527 479.872 174.542L482.323 172.417C483.058 171.807 483.548 170.951 483.702 170.008C483.856 169.064 483.663 168.097 483.159 167.285C482.635 166.5 481.838 165.937 480.923 165.705C480.007 165.474 479.039 165.59 478.204 166.032C478.204 165.994 478.18 165.961 478.17 165.924L479.177 165.051C479.868 164.473 480.337 163.674 480.507 162.789C480.676 161.905 480.535 160.989 480.107 160.196C479.828 159.705 479.444 159.282 478.981 158.957C478.519 158.633 477.991 158.414 477.434 158.319C476.878 158.223 476.307 158.252 475.763 158.403C475.219 158.555 474.715 158.825 474.288 159.195L471.964 161.209C471.955 161.195 471.964 161.177 471.95 161.164C471.937 161.152 471.911 161.149 471.896 161.136C472.408 160.44 472.668 159.59 472.634 158.727C472.6 157.864 472.274 157.038 471.708 156.384C470.356 154.603 467.682 155.24 466.18 156.542L452.465 168.017L454.676 163.368C455.125 162.471 455.217 161.436 454.933 160.474C454.648 159.512 454.009 158.694 453.145 158.185C452.69 157.937 452.189 157.785 451.673 157.738C451.157 157.691 450.637 157.749 450.144 157.909C449.652 158.07 449.197 158.329 448.808 158.671C448.418 159.013 448.103 159.43 447.881 159.898L435.809 185.291C434.393 188.27 434.194 191.684 435.255 194.807C436.315 197.931 438.552 200.518 441.489 202.018C444.896 203.758 448.745 204.441 452.542 203.98C456.34 203.518 459.913 201.933 462.804 199.428L483.461 181.523C484.146 180.908 484.603 180.079 484.757 179.172C484.912 178.265 484.755 177.332 484.313 176.525Z" fill="#E98862"/>
<g opacity="0.25">
<path d="M458.386 172.551C458.447 172.62 458.532 172.662 458.623 172.669C458.715 172.676 458.806 172.647 458.876 172.588L471.904 161.66C471.94 161.63 471.969 161.594 471.99 161.553C472.012 161.512 472.025 161.467 472.029 161.421C472.033 161.375 472.028 161.328 472.014 161.284C472 161.24 471.978 161.199 471.948 161.164C471.918 161.128 471.882 161.099 471.841 161.078C471.8 161.057 471.755 161.043 471.709 161.039C471.663 161.035 471.617 161.04 471.573 161.054C471.528 161.068 471.488 161.091 471.452 161.12L458.424 172.049C458.352 172.109 458.308 172.195 458.3 172.288C458.292 172.381 458.321 172.473 458.381 172.544L458.386 172.551Z" fill="#0C0C0C"/>
</g>
<g opacity="0.25">
<path d="M463.047 178.427C463.108 178.496 463.193 178.539 463.284 178.546C463.376 178.553 463.467 178.523 463.537 178.464L478.075 166.268C478.146 166.208 478.191 166.122 478.199 166.029C478.208 165.936 478.179 165.843 478.119 165.772C478.057 165.703 477.972 165.66 477.879 165.652C477.787 165.644 477.696 165.671 477.623 165.728L463.085 177.925C463.014 177.985 462.969 178.071 462.961 178.164C462.953 178.257 462.982 178.35 463.042 178.421L463.047 178.427Z" fill="#0C0C0C"/>
</g>
<g opacity="0.25">
<path d="M468.06 184.826C468.12 184.895 468.206 184.938 468.297 184.945C468.389 184.952 468.479 184.922 468.55 184.864L480.148 175.131C480.22 175.071 480.264 174.985 480.272 174.892C480.281 174.799 480.252 174.707 480.192 174.635C480.132 174.564 480.046 174.519 479.953 174.511C479.86 174.502 479.767 174.532 479.696 174.592L468.098 184.321C468.026 184.381 467.982 184.467 467.973 184.56C467.965 184.653 467.995 184.745 468.054 184.816L468.06 184.826Z" fill="#0C0C0C"/>
</g>
<path d="M430.141 175.46L402.971 245.135L363.302 189.434L320.576 227.958L381.765 321.394L382.243 322.071C385.164 326.071 389.056 329.262 393.551 331.343C398.046 333.424 402.997 334.326 407.937 333.964C412.877 333.603 417.644 331.989 421.788 329.276C425.933 326.563 429.318 322.84 431.626 318.456L475.518 200.223L430.141 175.46Z" fill="#95CEA5"/>
<path d="M398.838 253.771C398.746 253.771 398.656 253.747 398.576 253.702C398.496 253.657 398.429 253.593 398.381 253.514C398.333 253.436 398.306 253.347 398.302 253.255C398.299 253.164 398.319 253.073 398.36 252.991L402.494 244.891C402.56 244.766 402.672 244.673 402.806 244.63C402.941 244.587 403.087 244.6 403.212 244.664C403.338 244.728 403.433 244.839 403.477 244.973C403.521 245.107 403.511 245.252 403.448 245.379L399.314 253.479C399.27 253.567 399.201 253.64 399.117 253.692C399.033 253.744 398.936 253.771 398.838 253.771Z" fill="#0C0C0C"/>
<path d="M450.204 432.995H43.6639C43.4034 432.987 43.1561 432.879 42.9746 432.692C42.793 432.505 42.6914 432.254 42.6914 431.994C42.6914 431.733 42.793 431.483 42.9746 431.296C43.1561 431.109 43.4034 431 43.6639 430.993H450.204C450.465 431 450.712 431.109 450.893 431.296C451.075 431.483 451.177 431.733 451.177 431.994C451.177 432.254 451.075 432.505 450.893 432.692C450.712 432.879 450.465 432.987 450.204 432.995Z" fill="#292A2E"/>
<path d="M138.295 110.955V8.65936C138.295 6.36334 137.384 4.16131 135.76 2.53746C134.137 0.913615 131.935 0.000896445 129.639 0L9.31707 0C7.02047 0 4.81793 0.912322 3.19398 2.53627C1.57004 4.16021 0.657715 6.36275 0.657715 8.65936L0.657715 84.9344C0.657715 87.231 1.57004 89.4335 3.19398 91.0575C4.81793 92.6814 7.02047 93.5938 9.31707 93.5938H107.086L134.355 112.988C134.728 113.253 135.167 113.411 135.624 113.443C136.081 113.476 136.538 113.382 136.945 113.172C137.352 112.962 137.693 112.644 137.931 112.253C138.17 111.862 138.296 111.413 138.295 110.955Z" fill="#003D2B"/>
<path d="M65.7732 81.1841C68.7001 81.1841 71.0728 78.8114 71.0728 75.8845C71.0728 72.9577 68.7001 70.585 65.7732 70.585C62.8463 70.585 60.4736 72.9577 60.4736 75.8845C60.4736 78.8114 62.8463 81.1841 65.7732 81.1841Z" fill="white"/>
<path d="M65.5261 64.3827C64.6112 64.3825 63.7338 64.0189 63.0869 63.3719C62.4401 62.7249 62.0767 61.8474 62.0767 60.9325V48.1189C62.0767 47.3447 62.3372 46.5931 62.8161 45.9849C63.295 45.3768 63.9646 44.9474 64.7172 44.7658C64.8668 44.7286 80.2998 40.8229 80.2998 30.4375C80.2998 23.9208 74.9571 19.3651 67.3078 19.3651C59.0246 19.3651 54.7663 27.6483 54.5897 27.9982C54.1758 28.8042 53.4614 29.4149 52.601 29.6987C51.7406 29.9824 50.803 29.9163 49.9909 29.5146C49.1788 29.1129 48.5573 28.408 48.2606 27.5519C47.9639 26.6958 48.0158 25.7574 48.4051 24.9393C48.6587 24.4322 54.6886 12.4663 67.3078 12.4663C78.8333 12.4663 87.1985 20.0218 87.1985 30.4333C87.1985 42.9807 74.6047 48.7283 68.9763 50.6706V60.9325C68.9761 61.8475 68.6125 62.7249 67.9655 63.3719C67.3185 64.0189 66.4411 64.3825 65.5261 64.3827Z" fill="white"/>
</g>
<defs>
<clipPath id="clip0_286_94">
<rect width="484.168" height="433" fill="white" transform="translate(0.657715)"/>
</clipPath>
</defs>
</svg>
