<svg width="510" height="335" viewBox="0 0 510 335" fill="none" xmlns="http://www.w3.org/2000/svg">
<path d="M144.8 326.232C144.869 326.232 144.937 326.213 144.996 326.177C145.055 326.14 145.102 326.088 145.132 326.025L154.854 306.081C154.875 306.037 154.887 305.99 154.89 305.942C154.893 305.893 154.887 305.845 154.871 305.799C154.855 305.754 154.83 305.711 154.798 305.675C154.766 305.639 154.727 305.609 154.684 305.588C154.64 305.567 154.593 305.554 154.545 305.551C154.496 305.549 154.448 305.555 154.402 305.571C154.356 305.587 154.314 305.611 154.278 305.643C154.242 305.676 154.212 305.714 154.191 305.758L144.469 325.703C144.442 325.759 144.429 325.821 144.432 325.883C144.435 325.946 144.454 326.006 144.487 326.059C144.521 326.112 144.567 326.156 144.621 326.186C144.676 326.217 144.738 326.232 144.8 326.232Z" fill="#292A2E"/>
<path d="M128.363 325.075C128.445 325.075 128.524 325.048 128.588 324.998C128.653 324.948 128.699 324.878 128.72 324.799L139.972 281.84C139.986 281.793 139.99 281.743 139.984 281.694C139.979 281.645 139.963 281.598 139.939 281.555C139.915 281.512 139.882 281.474 139.843 281.444C139.804 281.414 139.759 281.392 139.711 281.379C139.663 281.367 139.614 281.364 139.565 281.371C139.516 281.378 139.469 281.395 139.427 281.42C139.384 281.446 139.348 281.48 139.319 281.52C139.29 281.56 139.269 281.605 139.258 281.653L128.006 324.613C127.994 324.66 127.991 324.709 127.998 324.756C128.004 324.804 128.02 324.851 128.045 324.892C128.069 324.934 128.101 324.971 128.14 325C128.179 325.029 128.223 325.05 128.269 325.063C128.3 325.071 128.332 325.075 128.363 325.075Z" fill="#292A2E"/>
<path d="M106.898 326.976C106.959 326.976 107.019 326.961 107.073 326.933C107.126 326.904 107.172 326.863 107.206 326.812C107.24 326.761 107.261 326.703 107.266 326.642C107.272 326.582 107.263 326.521 107.239 326.464L95.6075 299.07C95.5671 298.984 95.4946 298.916 95.4053 298.882C95.3161 298.848 95.217 298.849 95.1291 298.887C95.0411 298.924 94.971 298.994 94.9336 299.082C94.8963 299.17 94.8945 299.269 94.9287 299.358L106.56 326.753C106.589 326.819 106.636 326.875 106.696 326.915C106.756 326.955 106.826 326.976 106.898 326.976Z" fill="#292A2E"/>
<path d="M127.945 333.324C127.975 333.324 128.005 333.32 128.035 333.313C128.13 333.289 128.211 333.228 128.261 333.144C128.312 333.061 128.327 332.96 128.303 332.865L114.787 278.794C114.775 278.747 114.754 278.703 114.725 278.664C114.696 278.625 114.66 278.592 114.619 278.568C114.577 278.543 114.531 278.526 114.483 278.519C114.435 278.512 114.387 278.514 114.34 278.526C114.293 278.538 114.249 278.559 114.21 278.588C114.171 278.616 114.138 278.653 114.113 278.694C114.088 278.736 114.072 278.782 114.065 278.83C114.057 278.878 114.06 278.926 114.072 278.973L127.587 333.044C127.607 333.124 127.653 333.195 127.718 333.245C127.783 333.296 127.863 333.323 127.945 333.324Z" fill="#292A2E"/>
<path d="M123.151 289.875C126.818 282.165 124.425 273.364 117.806 270.215C111.187 267.066 102.848 270.763 99.1809 278.472C95.5138 286.181 97.9069 294.983 104.526 298.132C111.145 301.28 119.484 297.584 123.151 289.875Z" fill="#95CEA5"/>
<path opacity="0.4" d="M123.151 289.875C126.818 282.165 124.425 273.364 117.806 270.215C111.187 267.066 102.848 270.763 99.1809 278.472C95.5138 286.181 97.9069 294.983 104.526 298.132C111.145 301.28 119.484 297.584 123.151 289.875Z" fill="white"/>
<path d="M100.403 307.672C102.316 302.923 100.64 297.774 96.6604 296.171C92.6805 294.568 87.9036 297.118 85.9908 301.868C84.078 306.617 85.7537 311.767 89.7335 313.37C93.7134 314.972 98.4904 312.422 100.403 307.672Z" fill="#95CEA5"/>
<path d="M147.301 301.578C153.213 299.785 156.221 292.449 154.021 285.194C151.82 277.938 145.243 273.51 139.331 275.303C133.42 277.096 130.411 284.432 132.612 291.687C134.812 298.943 141.389 303.371 147.301 301.578Z" fill="#95CEA5"/>
<path d="M157.47 317.019C160.771 316.466 162.815 312.253 162.037 307.608C161.259 302.963 157.953 299.645 154.653 300.198C151.353 300.751 149.308 304.964 150.086 309.609C150.864 314.254 154.17 317.572 157.47 317.019Z" fill="#95CEA5"/>
<path d="M96.0484 333.831H153.463V319.523H96.0484V333.831Z" fill="#292A2E"/>
<path opacity="0.3" d="M96.0484 333.831H153.463V319.523H96.0484V333.831Z" fill="white"/>
<path d="M123.261 315.928C125.595 310.134 123.532 303.845 118.655 301.88C113.777 299.916 107.932 303.02 105.598 308.814C103.265 314.608 105.327 320.897 110.205 322.862C115.082 324.826 120.928 321.722 123.261 315.928Z" fill="#95CEA5"/>
<path d="M136.005 321.425C140.863 321.425 144.801 317.487 144.801 312.629C144.801 307.772 140.863 303.833 136.005 303.833C131.147 303.833 127.209 307.772 127.209 312.629C127.209 317.487 131.147 321.425 136.005 321.425Z" fill="#95CEA5"/>
<path opacity="0.68" d="M100.403 307.672C102.316 302.923 100.64 297.774 96.6604 296.171C92.6805 294.568 87.9036 297.118 85.9908 301.868C84.078 306.617 85.7537 311.767 89.7335 313.37C93.7134 314.972 98.4904 312.422 100.403 307.672Z" fill="white"/>
<path opacity="0.68" d="M147.301 301.578C153.213 299.785 156.221 292.449 154.021 285.194C151.82 277.938 145.243 273.51 139.331 275.303C133.42 277.096 130.411 284.432 132.612 291.687C134.812 298.943 141.389 303.371 147.301 301.578Z" fill="white"/>
<path opacity="0.68" d="M157.47 317.019C160.771 316.466 162.815 312.253 162.037 307.608C161.259 302.963 157.953 299.645 154.653 300.198C151.353 300.751 149.308 304.964 150.086 309.609C150.864 314.254 154.17 317.572 157.47 317.019Z" fill="white"/>
<path opacity="0.68" d="M123.261 315.928C125.595 310.134 123.532 303.845 118.655 301.88C113.777 299.916 107.932 303.02 105.598 308.814C103.265 314.608 105.327 320.897 110.205 322.862C115.082 324.826 120.928 321.722 123.261 315.928Z" fill="white"/>
<path opacity="0.4" d="M136.005 321.425C140.863 321.425 144.801 317.487 144.801 312.629C144.801 307.772 140.863 303.833 136.005 303.833C131.147 303.833 127.209 307.772 127.209 312.629C127.209 317.487 131.147 321.425 136.005 321.425Z" fill="white"/>
<path d="M107.752 305.225C114.429 307.09 117.942 301.634 117.942 301.634L117.938 301.627C114.377 300.565 110.429 302.057 107.752 305.225Z" fill="#292A2E"/>
<path d="M149.922 307.458C153.209 306.199 155.932 303.799 157.593 300.697C156.693 300.216 155.66 300.041 154.651 300.199C151.872 300.664 149.984 303.727 149.922 307.458Z" fill="#292A2E"/>
<path d="M134.436 303.975C136.996 306.281 140.195 307.758 143.611 308.21C142.701 306.648 141.332 305.404 139.691 304.646C138.05 303.889 136.215 303.654 134.436 303.975Z" fill="#292A2E"/>
<path d="M240.21 13.0591H47.9453C41.5056 13.0591 36.2852 18.2795 36.2852 24.7192V211.948C36.2852 218.387 41.5056 223.608 47.9453 223.608H240.21C246.65 223.608 251.87 218.387 251.87 211.948V24.7192C251.87 18.2795 246.65 13.0591 240.21 13.0591Z" fill="#F4F4F4"/>
<path d="M235.071 107.383L240.033 91.531C240.142 91.1827 240.322 90.8609 240.563 90.5861C240.803 90.3113 241.098 90.0896 241.428 89.9349C241.759 89.7803 242.118 89.6963 242.483 89.6881C242.848 89.6799 243.211 89.7478 243.548 89.8875C244.162 90.1646 244.652 90.6601 244.922 91.2779C245.192 91.8956 245.223 92.5916 245.009 93.2309L243.945 96.6306L252.198 87.4775C253.098 86.444 254.864 85.751 255.956 86.8368C256.404 87.227 256.707 87.7576 256.815 88.3419C256.922 88.9262 256.829 89.5297 256.549 90.054C256.561 90.06 256.572 90.0673 256.582 90.0756C256.589 90.0833 256.595 90.0915 256.6 90.1001L257.988 88.5082C258.245 88.213 258.565 87.9789 258.924 87.8229C259.283 87.6669 259.673 87.5931 260.064 87.6067C260.455 87.6203 260.838 87.7211 261.186 87.9016C261.533 88.0822 261.836 88.338 262.072 88.6504C262.433 89.1498 262.613 89.7582 262.58 90.3739C262.546 90.9896 262.303 91.5753 261.89 92.033L261.299 92.7113C261.311 92.7375 261.318 92.7656 261.32 92.7943C261.825 92.4284 262.444 92.2542 263.065 92.3029C263.687 92.3515 264.271 92.6198 264.714 93.0597C265.183 93.5551 265.449 94.2094 265.458 94.8921C265.466 95.5748 265.217 96.2356 264.76 96.7426L263.293 98.4282C263.33 98.4189 263.37 98.4187 263.407 98.4276C263.445 98.4365 263.48 98.4542 263.509 98.4794C263.542 98.511 263.566 98.5517 263.577 98.5965C264.116 98.395 264.707 98.3764 265.259 98.5434C265.81 98.7104 266.292 99.0538 266.629 99.5209C266.972 100.02 267.137 100.62 267.097 101.224C267.057 101.829 266.814 102.402 266.407 102.851L254.033 117.068C252.302 119.057 250.016 120.484 247.469 121.165C244.921 121.847 242.229 121.752 239.735 120.893C237.586 120.152 235.81 118.603 234.785 116.573C233.759 114.544 233.565 112.195 234.244 110.025L235.071 107.383Z" fill="#E98862"/>
<g opacity="0.2">
<path d="M248.426 99.1523C248.474 99.1935 248.536 99.2142 248.6 99.2101C248.663 99.2059 248.722 99.1772 248.764 99.1302L256.602 90.4143C256.644 90.3663 256.666 90.3036 256.662 90.2396C256.659 90.1757 256.63 90.1158 256.582 90.073C256.535 90.0302 256.472 90.0079 256.408 90.011C256.344 90.0142 256.284 90.0424 256.241 90.0897L248.403 98.8078C248.361 98.8556 248.339 98.9183 248.342 98.9822C248.346 99.0462 248.374 99.1061 248.422 99.1489L248.426 99.1523Z" fill="#0C0C0C"/>
</g>
<g opacity="0.2">
<path d="M252.174 102.715C252.222 102.756 252.284 102.777 252.348 102.773C252.411 102.769 252.47 102.74 252.512 102.693L261.259 92.9652C261.301 92.9174 261.323 92.8547 261.32 92.7909C261.316 92.727 261.288 92.6671 261.241 92.6241C261.192 92.5835 261.13 92.5629 261.066 92.5663C261.003 92.5696 260.944 92.5968 260.899 92.6422L252.153 102.369C252.11 102.417 252.089 102.48 252.092 102.544C252.096 102.608 252.124 102.668 252.172 102.711L252.174 102.715Z" fill="#0C0C0C"/>
</g>
<g opacity="0.2">
<path d="M256.213 106.597C256.261 106.638 256.323 106.659 256.386 106.655C256.45 106.651 256.509 106.622 256.551 106.575L263.528 98.8155C263.549 98.7918 263.566 98.7642 263.576 98.7342C263.587 98.7042 263.591 98.6724 263.59 98.6406C263.588 98.6088 263.58 98.5777 263.566 98.549C263.553 98.5203 263.533 98.4945 263.51 98.4733C263.486 98.452 263.458 98.4356 263.428 98.425C263.398 98.4144 263.367 98.4098 263.335 98.4115C263.303 98.4132 263.272 98.4211 263.243 98.4348C263.214 98.4485 263.189 98.4678 263.167 98.4914L256.19 106.25C256.148 106.298 256.126 106.361 256.129 106.425C256.133 106.489 256.161 106.549 256.208 106.592L256.213 106.597Z" fill="#0C0C0C"/>
</g>
<path d="M33.2622 111.757L28.1098 95.2945C27.9966 94.9328 27.8093 94.5986 27.5598 94.3133C27.3103 94.028 27.0041 93.7978 26.6608 93.6373C26.3174 93.4769 25.9444 93.3897 25.5655 93.3814C25.1865 93.373 24.81 93.4437 24.46 93.589C23.8217 93.8767 23.3131 94.3912 23.0327 95.0327C22.7524 95.6742 22.7202 96.397 22.9426 97.0609L24.0472 100.591L15.4775 91.0835C14.5429 90.0096 12.71 89.2899 11.5747 90.4172C11.1095 90.8226 10.7955 91.3736 10.6837 91.9804C10.572 92.5872 10.6692 93.2139 10.9595 93.7584C10.9474 93.7648 10.9358 93.7722 10.9248 93.7806C10.9179 93.7886 10.9116 93.7971 10.9061 93.8061L9.46491 92.1506C9.19784 91.8442 8.86577 91.6012 8.49289 91.4393C8.12001 91.2774 7.71571 91.2008 7.30946 91.2149C6.9032 91.2291 6.50523 91.3337 6.14452 91.5211C5.78382 91.7086 5.46947 91.9741 5.22439 92.2984C4.84876 92.817 4.66261 93.4488 4.69707 94.0881C4.73153 94.7275 4.98452 95.3356 5.4137 95.8107L6.02656 96.5157C6.0145 96.5428 6.00738 96.5719 6.00552 96.6015C5.48086 96.2217 4.8382 96.0408 4.19245 96.0914C3.54669 96.1419 2.93997 96.4204 2.48075 96.8772C1.99298 97.3917 1.71719 98.0713 1.70845 98.7802C1.6997 99.4891 1.95864 100.175 2.43357 100.702L3.95661 102.451C3.91762 102.442 3.87693 102.442 3.83789 102.451C3.79885 102.46 3.76258 102.479 3.73205 102.505C3.69737 102.538 3.67307 102.58 3.66212 102.627C3.10083 102.418 2.48659 102.4 1.91385 102.574C1.34111 102.749 0.84159 103.107 0.4921 103.593C0.135602 104.111 -0.0356115 104.734 0.00617458 105.362C0.0479607 105.989 0.300301 106.584 0.722347 107.051L13.5707 121.814C15.3682 123.88 17.7417 125.361 20.3868 126.069C23.0319 126.777 25.8281 126.678 28.4168 125.786C30.6491 125.017 32.4936 123.408 33.5583 121.301C34.6231 119.194 34.8242 116.754 34.119 114.501L33.2622 111.757Z" fill="#E98862"/>
<g opacity="0.2">
<path d="M19.3948 103.211C19.3449 103.253 19.2802 103.275 19.2146 103.271C19.1489 103.266 19.0876 103.237 19.0435 103.188L10.9053 94.1365C10.862 94.0866 10.8401 94.0217 10.8442 93.9559C10.8484 93.89 10.8782 93.8283 10.9273 93.7842C10.9764 93.7401 11.0409 93.717 11.1068 93.72C11.1728 93.7229 11.2349 93.7516 11.2799 93.7999L19.4182 102.851C19.4403 102.876 19.4574 102.904 19.4684 102.936C19.4795 102.967 19.4842 103 19.4825 103.033C19.4808 103.066 19.4725 103.098 19.4583 103.128C19.444 103.158 19.424 103.184 19.3994 103.207L19.3948 103.211Z" fill="#0C0C0C"/>
</g>
<g opacity="0.2">
<path d="M15.502 106.91C15.4521 106.953 15.3873 106.975 15.3217 106.97C15.256 106.966 15.1946 106.936 15.1506 106.887L6.06811 96.7861C6.02361 96.7364 6.00065 96.671 6.00428 96.6044C6.0079 96.5378 6.03781 96.4754 6.08744 96.4308C6.13799 96.3882 6.20283 96.3665 6.2688 96.37C6.33478 96.3735 6.39696 96.4019 6.44276 96.4495L15.5253 106.551C15.5699 106.601 15.593 106.666 15.5894 106.733C15.5859 106.799 15.5561 106.862 15.5065 106.907L15.502 106.91Z" fill="#0C0C0C"/>
</g>
<g opacity="0.2">
<path d="M11.3104 110.941C11.2604 110.984 11.1958 111.005 11.1301 111.001C11.0645 110.997 11.0032 110.967 10.9591 110.918L3.71285 102.861C3.66822 102.811 3.64518 102.746 3.64881 102.679C3.65243 102.612 3.68242 102.549 3.73218 102.505C3.78194 102.46 3.84739 102.437 3.91413 102.441C3.98087 102.444 4.04344 102.474 4.08807 102.524L11.3326 110.581C11.3548 110.606 11.3719 110.634 11.3829 110.666C11.3939 110.697 11.3987 110.73 11.397 110.763C11.3953 110.796 11.387 110.828 11.3727 110.858C11.3585 110.888 11.3385 110.915 11.3138 110.937L11.3104 110.941Z" fill="#0C0C0C"/>
</g>
<path d="M188.128 110.995L230.736 189.656L198.972 192.607L229.239 104.904L263.704 117.095L232.099 204.324C230.971 207.437 228.989 210.17 226.38 212.209C223.771 214.248 220.64 215.511 217.347 215.853C214.053 216.196 210.73 215.603 207.757 214.145C204.785 212.686 202.283 210.419 200.539 207.605L200.335 207.274L153.268 131.198L188.128 110.995Z" fill="#003D2B"/>
<path d="M163.683 54.2575C163.683 54.2575 171.289 48.7588 173.412 35.7849C175.056 25.7393 165.628 32.0753 165.628 32.0753C165.628 32.0753 166.742 24.8302 161.436 25.4425C156.13 26.0548 153.008 33.6251 153.008 33.6251" fill="#0C0C0C"/>
<path d="M134.06 25.73C134.06 25.73 107.738 28.004 116.502 63.7867L118.822 63.9902L123.533 64.4035" fill="#0C0C0C"/>
<path d="M158.981 101.287C158.867 101.272 157.583 122.536 132.88 120.682C115.778 119.401 109.681 101.256 109.287 101.256C111.131 100.865 114.236 100.295 115.055 99.8579C117.748 98.4111 121.081 96.9051 121.948 91.6754C122.448 88.6623 121.599 73.2414 121.861 70.1919L148.112 76.051C147.745 82.4916 145.178 97.423 154.176 100.066C155.675 100.503 157.288 100.905 158.981 101.287Z" fill="#E98862"/>
<path opacity="0.52" d="M148.482 93.9636C148.071 92.6383 147.806 91.272 147.692 89.8891C147.403 86.7337 147.46 83.5561 147.863 80.4132C142.527 79.6929 137.501 77.4906 133.354 74.0566C132.866 75.8565 130.186 83.7213 130.928 85.4337C132.332 88.6679 138.925 93.9636 148.482 93.9636Z" fill="#0C0C0C"/>
<path d="M142.626 89.9702C132.291 88.8286 120.032 82.0315 120.143 67.9728L120.243 55.287C120.353 41.2283 127.827 29.8893 141.064 29.9934C154.301 30.0974 164.106 41.5723 163.995 55.6332L163.951 61.249C163.902 63.177 163.722 65.0994 163.412 67.0029C162.629 72.0399 161.419 79.6972 157.884 84.8217C154.546 89.6547 149.231 90.6996 142.626 89.9702Z" fill="#E98862"/>
<path opacity="0.5" d="M147.127 76.2946C149.228 76.7311 151.198 77.6553 152.876 78.9928C152.947 79.0468 152.993 79.1266 153.005 79.2146C153.017 79.3027 152.993 79.3918 152.939 79.4624C152.885 79.5329 152.805 79.5792 152.717 79.5909C152.629 79.6026 152.54 79.5789 152.469 79.5249C148.828 76.7392 145.052 76.0468 141.551 77.5226C141.48 77.5549 141.407 77.583 141.333 77.6068C141.247 77.6305 141.156 77.6193 141.078 77.5755C141.001 77.5317 140.944 77.459 140.92 77.3734C140.897 77.2877 140.908 77.1962 140.952 77.1188C140.995 77.0415 141.068 76.9847 141.154 76.9609C141.181 76.9518 141.227 76.9319 141.29 76.9041C143.132 76.1246 145.164 75.9124 147.127 76.2946Z" fill="#0C0C0C"/>
<path d="M159.488 63.8581C160.388 63.8581 161.118 63.1282 161.118 62.2277C161.118 61.3272 160.388 60.5972 159.488 60.5972C158.587 60.5972 157.857 61.3272 157.857 62.2277C157.857 63.1282 158.587 63.8581 159.488 63.8581Z" fill="#0C0C0C"/>
<path d="M144.566 62.6526C145.467 62.6526 146.197 61.9226 146.197 61.0221C146.197 60.1216 145.467 59.3916 144.566 59.3916C143.666 59.3916 142.936 60.1216 142.936 61.0221C142.936 61.9226 143.666 62.6526 144.566 62.6526Z" fill="#0C0C0C"/>
<path d="M120.933 72.2622C116.91 72.2304 113.683 67.9011 113.713 63.8784C113.743 59.8556 117.023 57.6634 121.047 57.6947L123.099 60.4065L124.391 72.2883L120.933 72.2622Z" fill="#E98862"/>
<path d="M125.067 65.8822C125.067 65.8822 126.834 46.0224 132.89 44.9183C136.923 44.1832 146.545 50.0804 155.602 48.5454C159.565 47.874 163.292 48.928 163.634 50.8001C163.77 51.5392 166.447 40.9842 160.432 32.8062C155.643 26.295 139.577 24.154 132.207 26.1051C111.798 31.506 120.2 58.5541 120.2 58.5541L120.964 65.4291L125.067 65.8822Z" fill="#0C0C0C"/>
<g opacity="0.52">
<path d="M150.455 72.9373H150.481C151.777 72.9509 153.952 72.8293 153.964 71.8571C153.972 71.0538 151.863 62.3573 151.623 61.3686C151.601 61.285 151.547 61.2134 151.472 61.1691C151.398 61.1249 151.309 61.1115 151.225 61.1319C151.141 61.1523 151.069 61.2048 151.023 61.2782C150.977 61.3516 150.962 61.44 150.981 61.5244C151.918 65.3761 153.312 71.3028 153.304 71.8503C153.174 72.0777 151.83 72.2886 150.488 72.275C150.403 72.2751 150.322 72.3077 150.261 72.3661C150.199 72.4245 150.163 72.5042 150.159 72.5888C150.154 72.6733 150.183 72.7562 150.238 72.8205C150.293 72.8847 150.371 72.9253 150.455 72.9339V72.9373Z" fill="#0C0C0C"/>
</g>
<path d="M155.071 53.3837C156.424 53.038 157.845 53.0637 159.184 53.4582C159.844 53.6478 160.471 53.9353 161.045 54.311C161.613 54.68 162.132 55.1194 162.59 55.6185C162.668 55.6963 162.712 55.8015 162.713 55.9114C162.714 56.0213 162.672 56.1272 162.595 56.2062C162.519 56.2852 162.414 56.331 162.304 56.3337C162.195 56.3364 162.088 56.2958 162.008 56.2206L161.983 56.1978C161.554 55.7795 161.074 55.4166 160.555 55.1177C160.043 54.8209 159.49 54.6029 158.913 54.4713C157.776 54.2028 156.587 54.2397 155.468 54.5782L155.425 54.5918C155.266 54.6432 155.094 54.6294 154.945 54.5533C154.796 54.4772 154.684 54.3452 154.632 54.1862C154.581 54.0272 154.595 53.8543 154.671 53.7055C154.747 53.5567 154.879 53.4442 155.038 53.3928L155.071 53.3837Z" fill="#0C0C0C"/>
<path d="M145.426 53.8326C144.383 53.3044 143.219 53.0614 142.052 53.1282C141.461 53.1574 140.878 53.2759 140.323 53.4795C139.759 53.6829 139.224 53.9565 138.728 54.2936L138.701 54.3107C138.609 54.3671 138.499 54.3859 138.394 54.3632C138.288 54.3405 138.196 54.278 138.135 54.1887C138.074 54.0994 138.05 53.9901 138.068 53.8837C138.086 53.7772 138.144 53.6817 138.231 53.6171C138.769 53.2055 139.357 52.8634 139.981 52.5989C140.611 52.3289 141.279 52.1549 141.961 52.0827C143.348 51.9277 144.752 52.1496 146.024 52.7251C146.176 52.7951 146.294 52.9226 146.352 53.0793C146.409 53.2361 146.402 53.4094 146.332 53.5611C146.262 53.7128 146.135 53.8304 145.978 53.8882C145.821 53.9459 145.648 53.939 145.496 53.8689L145.467 53.8547L145.426 53.8326Z" fill="#0C0C0C"/>
<path d="M153.386 39.5618C156.375 39.0011 158.13 34.9794 157.304 30.5791C156.479 26.1788 153.387 23.0662 150.397 23.6269C147.408 24.1876 145.653 28.2092 146.479 32.6096C147.304 37.0099 150.397 40.1225 153.386 39.5618Z" fill="#0C0C0C"/>
<path d="M132.297 115.443C115.127 114.633 114.404 100.059 114.404 100.059C114.404 100.059 105.896 100.608 100.241 101.374C90.9815 102.624 84.8729 105.766 80.0121 110.627C75.4901 115.149 72.7351 120.041 75.6505 151.275C77.7596 173.892 76.2758 223.64 76.2758 223.64H179.903C179.903 223.64 186.117 158.432 186.983 148.256C188.636 128.82 195.406 117.865 185.944 107.853C179.081 100.593 161.367 100.059 154.234 100.059C154.12 100.059 155.681 116.545 132.297 115.443Z" fill="#003D2B"/>
<path d="M111.412 135.43L62.9178 205.959L62.6995 206.276C60.8557 208.958 58.3059 211.077 55.3323 212.4C52.3588 213.722 49.0773 214.196 45.8511 213.769C42.6248 213.342 39.5797 212.031 37.0525 209.98C34.5253 207.93 32.6146 205.22 31.532 202.151L3.25195 121.991L37.8271 110.117L64.7637 190.736L33.3774 186.927L77.5382 113.607L111.412 135.43Z" fill="#003D2B"/>
<path d="M184.077 179.877H184.053C183.986 179.871 183.925 179.838 183.882 179.787C183.84 179.735 183.819 179.669 183.825 179.603L187.112 144.575C187.12 144.509 187.153 144.449 187.204 144.407C187.255 144.365 187.32 144.344 187.386 144.348C187.453 144.354 187.514 144.387 187.557 144.438C187.599 144.49 187.62 144.556 187.614 144.622L184.327 179.65C184.321 179.712 184.292 179.77 184.246 179.812C184.199 179.854 184.139 179.877 184.077 179.877Z" fill="#0C0C0C"/>
<path d="M76.7727 183.96C76.7075 183.96 76.6448 183.935 76.5979 183.89C76.5509 183.844 76.5233 183.783 76.5208 183.718L75.3986 151.286C75.3964 151.22 75.4207 151.155 75.4662 151.106C75.5117 151.057 75.5747 151.028 75.6413 151.026C75.7072 151.027 75.7705 151.052 75.8187 151.097C75.867 151.142 75.8968 151.203 75.9023 151.269L77.0245 183.7C77.0267 183.767 77.0023 183.831 76.9568 183.88C76.9114 183.929 76.8484 183.958 76.7818 183.96H76.7727Z" fill="#0C0C0C"/>
<path d="M356.03 141.037V99.063C356.03 97.7104 355.493 96.4131 354.537 95.4567C353.58 94.5002 352.283 93.9629 350.93 93.9629H302.389C301.037 93.9629 299.739 94.5002 298.783 95.4567C297.826 96.4131 297.289 97.7104 297.289 99.063V128.806C297.289 130.158 297.826 131.456 298.783 132.412C299.739 133.369 301.037 133.906 302.389 133.906H342.71L354.124 142.022C354.304 142.15 354.517 142.226 354.738 142.241C354.959 142.256 355.18 142.211 355.376 142.109C355.573 142.008 355.738 141.854 355.854 141.665C355.969 141.476 356.03 141.259 356.03 141.037Z" fill="#95CEA5"/>
<path opacity="0.5" d="M356.03 141.037V99.063C356.03 97.7104 355.493 96.4131 354.537 95.4567C353.58 94.5002 352.283 93.9629 350.93 93.9629H302.389C301.037 93.9629 299.739 94.5002 298.783 95.4567C297.826 96.4131 297.289 97.7104 297.289 99.063V128.806C297.289 130.158 297.826 131.456 298.783 132.412C299.739 133.369 301.037 133.906 302.389 133.906H342.71L354.124 142.022C354.304 142.15 354.517 142.226 354.738 142.241C354.959 142.256 355.18 142.211 355.376 142.109C355.573 142.008 355.738 141.854 355.854 141.665C355.969 141.476 356.03 141.259 356.03 141.037Z" fill="white"/>
<path d="M342.716 119.416C345.528 119.416 347.807 117.137 347.807 114.325C347.807 111.514 345.528 109.234 342.716 109.234C339.904 109.234 337.625 111.514 337.625 114.325C337.625 117.137 339.904 119.416 342.716 119.416Z" fill="white"/>
<path d="M326.661 119.416C329.473 119.416 331.752 117.137 331.752 114.325C331.752 111.514 329.473 109.234 326.661 109.234C323.85 109.234 321.57 111.514 321.57 114.325C321.57 117.137 323.85 119.416 326.661 119.416Z" fill="white"/>
<path d="M310.605 119.416C313.416 119.416 315.696 117.137 315.696 114.325C315.696 111.514 313.416 109.234 310.605 109.234C307.793 109.234 305.514 111.514 305.514 114.325C305.514 117.137 307.793 119.416 310.605 119.416Z" fill="white"/>
<path d="M212.785 63.0155V4.91819C212.785 4.27232 212.912 3.63278 213.16 3.03608C213.407 2.43938 213.769 1.8972 214.226 1.4405C214.682 0.983808 215.225 0.621537 215.821 0.374375C216.418 0.127213 217.057 0 217.703 0L286.038 0C286.684 0 287.324 0.127213 287.921 0.374375C288.517 0.621537 289.059 0.983808 289.516 1.4405C289.973 1.8972 290.335 2.43938 290.582 3.03608C290.829 3.63278 290.957 4.27232 290.957 4.91819V48.2387C290.957 48.8846 290.829 49.5241 290.582 50.1208C290.335 50.7176 289.973 51.2597 289.516 51.7164C289.059 52.1731 288.517 52.5354 287.921 52.7826C287.324 53.0297 286.684 53.1569 286.038 53.1569H230.512L215.025 64.1713C214.813 64.3226 214.563 64.4126 214.304 64.4313C214.044 64.45 213.784 64.3967 213.552 64.2773C213.321 64.1578 213.127 63.9768 212.991 63.7542C212.856 63.5316 212.785 63.276 212.785 63.0155Z" fill="#95CEA5"/>
<path d="M251.869 46.1073C253.531 46.1073 254.879 44.7598 254.879 43.0976C254.879 41.4354 253.531 40.0879 251.869 40.0879C250.207 40.0879 248.859 41.4354 248.859 43.0976C248.859 44.7598 250.207 46.1073 251.869 46.1073Z" fill="white"/>
<path d="M251.73 36.5649C251.21 36.5649 250.712 36.3585 250.344 35.9911C249.977 35.6237 249.771 35.1254 249.771 34.6059V27.3289C249.771 26.8893 249.918 26.4624 250.19 26.1169C250.462 25.7714 250.842 25.5275 251.27 25.4244C251.355 25.4034 260.12 23.185 260.12 17.2867C260.12 13.5857 257.086 11.0007 252.741 11.0007C248.037 11.0007 245.619 15.7034 245.521 15.9041C245.285 16.3606 244.879 16.7063 244.391 16.8665C243.903 17.0268 243.371 16.989 242.911 16.7611C242.45 16.5332 242.098 16.1335 241.929 15.6482C241.76 15.1628 241.789 14.6306 242.009 14.1662C242.151 13.8774 245.577 7.08252 252.744 7.08252C259.29 7.08252 264.041 11.3736 264.041 17.2867C264.041 24.413 256.891 27.6768 253.694 28.7803V34.6059C253.694 34.8636 253.643 35.1187 253.544 35.3567C253.446 35.5948 253.301 35.811 253.118 35.993C252.936 36.1749 252.719 36.3191 252.481 36.4173C252.243 36.5154 251.987 36.5656 251.73 36.5649Z" fill="white"/>
<path d="M389.847 167.221C397.003 167.221 402.803 161.421 402.803 154.265C402.803 147.109 397.003 141.309 389.847 141.309C382.691 141.309 376.891 147.109 376.891 154.265C376.891 161.421 382.691 167.221 389.847 167.221Z" fill="#95CEA5"/>
<path d="M383.775 153.038C383.442 153.038 383.116 152.94 382.838 152.757C382.559 152.574 382.34 152.314 382.208 152.008C381.975 151.466 376.551 138.522 382.442 119.534C388.824 98.9654 411.049 98.7261 411.273 98.7261C411.725 98.7261 412.159 98.9058 412.479 99.2256C412.799 99.5455 412.978 99.9793 412.978 100.432C412.978 100.884 412.799 101.318 412.479 101.638C412.159 101.957 411.725 102.137 411.273 102.137C410.461 102.137 391.325 102.405 385.698 120.543C380.177 138.338 385.286 150.534 385.338 150.655C385.45 150.914 385.496 151.198 385.471 151.479C385.447 151.761 385.353 152.032 385.197 152.268C385.042 152.504 384.831 152.698 384.582 152.832C384.334 152.966 384.055 153.036 383.773 153.037L383.775 153.038Z" fill="#95CEA5"/>
<path d="M385.156 167.221C392.311 167.221 398.112 161.421 398.112 154.265C398.112 147.109 392.311 141.309 385.156 141.309C378 141.309 372.199 147.109 372.199 154.265C372.199 161.421 378 167.221 385.156 167.221Z" fill="#95CEA5"/>
<path opacity="0.3" d="M385.156 167.221C392.311 167.221 398.112 161.421 398.112 154.265C398.112 147.109 392.311 141.309 385.156 141.309C378 141.309 372.199 147.109 372.199 154.265C372.199 161.421 378 167.221 385.156 167.221Z" fill="white"/>
<path d="M388.265 167.221C395.421 167.221 401.221 161.421 401.221 154.265C401.221 147.109 395.421 141.309 388.265 141.309C381.109 141.309 375.309 147.109 375.309 154.265C375.309 161.421 381.109 167.221 388.265 167.221Z" fill="#95CEA5"/>
<path d="M449.381 130.953C449.381 130.953 453.543 150.899 458.514 156.934C472.827 174.306 479.109 195.174 468.839 207.903C458.568 220.632 387.023 230.913 377.877 206.052C370.178 185.123 378.437 181.417 378.537 163.281C378.583 155.075 379.719 137.768 379.719 137.768" fill="#0A0A0A"/>
<path d="M389.584 195.499C389.715 195.482 391.166 219.565 419.143 217.465C438.511 216.014 445.416 195.464 445.863 195.464C443.774 195.02 440.258 194.374 439.33 193.88C436.281 192.241 432.508 190.536 431.524 184.613C430.956 181.202 431.919 163.736 431.623 160.281L401.891 166.92C402.306 174.214 405.213 191.124 395.023 194.117C393.328 194.612 391.502 195.067 389.584 195.499Z" fill="#E98862"/>
<path opacity="0.5" d="M401.477 187.206C401.943 185.705 402.242 184.158 402.371 182.592C402.698 179.018 402.633 175.42 402.177 171.86C408.219 171.044 413.911 168.55 418.607 164.661C419.159 166.7 422.195 175.608 421.355 177.546C419.764 181.209 412.298 187.206 401.477 187.206Z" fill="#0C0C0C"/>
<path d="M406.768 181.916C418.536 181.474 432.939 174.801 433.966 158.911L434.893 144.575C435.921 128.686 428.408 115.266 413.448 114.298C398.487 113.332 386.473 125.488 385.445 141.377L385.035 147.724C384.64 153.821 385.772 182.706 406.768 181.916Z" fill="#E98862"/>
<path opacity="0.1" d="M411.414 160.652C413.356 160.622 414.913 159.443 414.892 158.019C414.87 156.594 413.278 155.463 411.335 155.493C409.393 155.522 407.836 156.701 407.858 158.126C407.88 159.551 409.472 160.682 411.414 160.652Z" fill="#0C0C0C"/>
<path opacity="0.1" d="M390.462 157.768C390.48 159.189 388.924 160.369 386.981 160.401C386.645 160.406 386.31 160.376 385.98 160.312C385.667 158.655 385.445 157.049 385.293 155.556C385.806 155.352 386.353 155.245 386.905 155.241C388.847 155.21 390.439 156.341 390.462 157.768Z" fill="#0C0C0C"/>
<path d="M389.932 147.065C390.948 147.065 391.772 146.241 391.772 145.225C391.772 144.209 390.948 143.385 389.932 143.385C388.916 143.385 388.092 144.209 388.092 145.225C388.092 146.241 388.916 147.065 389.932 147.065Z" fill="#0C0C0C"/>
<path d="M408.141 148.426C409.157 148.426 409.981 147.602 409.981 146.585C409.981 145.569 409.157 144.745 408.141 144.745C407.125 144.745 406.301 145.569 406.301 146.585C406.301 147.602 407.125 148.426 408.141 148.426Z" fill="#0C0C0C"/>
<path opacity="0.5" d="M399.493 160.956H399.463C398.857 160.912 398.254 160.835 397.656 160.725C396.762 160.555 395.579 160.235 395.631 159.441C395.687 158.536 398.801 148.928 399.155 147.836C399.169 147.786 399.193 147.741 399.225 147.701C399.257 147.661 399.296 147.629 399.341 147.605C399.386 147.581 399.435 147.566 399.486 147.562C399.537 147.557 399.588 147.563 399.636 147.579C399.685 147.594 399.73 147.62 399.768 147.653C399.807 147.686 399.838 147.727 399.86 147.773C399.882 147.819 399.895 147.869 399.898 147.92C399.9 147.97 399.893 148.021 399.875 148.069C398.547 152.162 396.425 158.881 396.386 159.49C396.516 159.754 398.008 160.103 399.513 160.201C399.61 160.208 399.7 160.252 399.766 160.324C399.831 160.396 399.866 160.491 399.863 160.588C399.861 160.685 399.821 160.778 399.752 160.846C399.683 160.915 399.591 160.955 399.494 160.957L399.493 160.956Z" fill="#0C0C0C"/>
<path opacity="0.5" d="M402.482 167.393C400.059 167.378 397.674 166.794 395.519 165.688C395.428 165.644 395.36 165.566 395.327 165.471C395.295 165.376 395.301 165.272 395.345 165.182C395.389 165.092 395.467 165.023 395.562 164.99C395.657 164.958 395.761 164.964 395.851 165.009C400.5 167.283 404.834 167.21 408.379 164.798C408.451 164.747 408.525 164.7 408.602 164.657C408.691 164.616 408.792 164.612 408.884 164.644C408.976 164.676 409.053 164.743 409.097 164.83C409.141 164.918 409.149 165.019 409.121 165.112C409.092 165.206 409.028 165.284 408.943 165.332C408.914 165.348 408.868 165.38 408.804 165.424C406.94 166.695 404.738 167.381 402.482 167.393Z" fill="#0C0C0C"/>
<path d="M447.005 148.004L433.604 147.214C423.184 144.42 418.068 127.607 418.068 127.607C418.068 127.607 409.731 140.841 379.693 137.754C379.693 137.754 378.23 95.7026 422.883 102.823C437.243 105.113 448.987 117.726 450.049 136.624C450.793 149.867 447.005 148.004 447.005 148.004Z" fill="#0A0A0A"/>
<path d="M432.723 163.693C437.271 163.987 441.27 159.361 441.564 154.814C441.858 150.268 438.334 147.522 433.788 147.229L431.248 150.123L428.814 163.44L432.723 163.693Z" fill="#E98862"/>
<path d="M395.047 141.063C393.834 140.429 392.474 140.128 391.107 140.19C390.42 140.216 389.74 140.347 389.092 140.576C388.437 140.804 387.814 141.113 387.236 141.496L387.218 141.508C387.153 141.547 387.076 141.56 387.002 141.543C386.929 141.526 386.865 141.481 386.824 141.418C386.783 141.354 386.768 141.277 386.783 141.203C386.798 141.129 386.842 141.064 386.904 141.022C387.512 140.588 388.172 140.232 388.869 139.963C389.571 139.689 390.31 139.522 391.061 139.467C392.582 139.348 394.107 139.638 395.478 140.309C395.581 140.36 395.659 140.45 395.696 140.56C395.732 140.669 395.724 140.788 395.672 140.891C395.621 140.994 395.53 141.073 395.421 141.109C395.312 141.146 395.192 141.137 395.089 141.086L395.078 141.08L395.047 141.063Z" fill="#0C0C0C"/>
<path d="M407.197 141.104C408.64 140.61 410.189 140.512 411.683 140.82C412.421 140.968 413.134 141.225 413.796 141.584C414.454 141.938 415.066 142.373 415.615 142.879C415.673 142.929 415.708 142.999 415.714 143.075C415.721 143.151 415.697 143.226 415.648 143.284C415.599 143.343 415.529 143.379 415.453 143.386C415.378 143.394 415.302 143.371 415.243 143.323L415.226 143.309C414.701 142.857 414.121 142.472 413.5 142.165C412.885 141.857 412.227 141.643 411.548 141.531C410.199 141.3 408.813 141.429 407.53 141.907L407.498 141.92C407.391 141.962 407.272 141.959 407.166 141.913C407.061 141.866 406.978 141.78 406.936 141.673C406.894 141.565 406.897 141.446 406.943 141.34C406.989 141.235 407.076 141.152 407.183 141.11L407.197 141.104Z" fill="#0C0C0C"/>
<path opacity="0.52" d="M402.41 170.981C401.972 170.985 401.534 170.952 401.102 170.882C401.003 170.866 400.914 170.812 400.855 170.73C400.796 170.649 400.772 170.548 400.788 170.449C400.804 170.35 400.858 170.261 400.939 170.202C401.02 170.143 401.122 170.119 401.221 170.135C403.823 170.549 405.134 169.414 405.188 169.366C405.263 169.299 405.361 169.264 405.461 169.269C405.561 169.274 405.655 169.319 405.723 169.393C405.79 169.468 405.825 169.566 405.82 169.666C405.815 169.766 405.77 169.86 405.696 169.927C404.755 170.648 403.594 171.02 402.41 170.981Z" fill="#0C0C0C"/>
<path d="M433.75 147.017C424.532 144.935 420.802 139.265 419.296 134.875C418.31 131.945 417.947 128.841 418.23 125.763L418.514 125.801C418.236 128.839 418.596 131.902 419.571 134.793C421.055 139.11 424.73 144.685 433.815 146.74L433.75 147.017Z" fill="#0C0C0C"/>
<path d="M300.649 186.635L296.057 167.711C295.956 167.295 295.77 166.905 295.51 166.565C295.25 166.226 294.922 165.944 294.547 165.738C294.172 165.532 293.758 165.406 293.332 165.369C292.906 165.331 292.477 165.383 292.072 165.521C291.332 165.798 290.721 166.34 290.358 167.042C289.995 167.744 289.905 168.555 290.107 169.319L291.091 173.377L282.138 162.038C281.165 160.76 279.153 159.814 277.792 161.001C277.238 161.423 276.843 162.021 276.673 162.696C276.502 163.371 276.566 164.084 276.852 164.719C276.838 164.725 276.825 164.733 276.812 164.742C276.803 164.75 276.796 164.759 276.789 164.769L275.287 162.798C275.009 162.433 274.653 162.135 274.245 161.925C273.837 161.715 273.387 161.599 272.929 161.585C272.47 161.571 272.014 161.66 271.594 161.845C271.174 162.029 270.8 162.305 270.501 162.652C270.039 163.209 269.783 163.907 269.775 164.629C269.767 165.352 270.007 166.056 270.455 166.622L271.094 167.462C271.078 167.491 271.068 167.523 271.063 167.556C270.5 167.09 269.79 166.839 269.059 166.848C268.328 166.858 267.624 167.127 267.073 167.608C266.486 168.151 266.125 168.896 266.063 169.694C266.001 170.492 266.242 171.284 266.738 171.912L268.325 173.995C268.282 173.982 268.236 173.978 268.191 173.986C268.146 173.993 268.104 174.011 268.068 174.039C268.027 174.073 267.996 174.119 267.98 174.171C267.364 173.895 266.674 173.829 266.017 173.983C265.36 174.137 264.771 174.502 264.342 175.023C263.902 175.581 263.663 176.27 263.664 176.98C263.665 177.69 263.905 178.379 264.346 178.935L277.733 196.51C279.606 198.969 282.17 200.812 285.098 201.804C288.025 202.795 291.182 202.89 294.163 202.076C296.734 201.374 298.93 199.698 300.284 197.403C301.638 195.108 302.044 192.375 301.416 189.785L300.649 186.635Z" fill="#E98862"/>
<g opacity="0.2">
<path d="M285.658 175.987C285.599 176.032 285.525 176.051 285.451 176.041C285.377 176.032 285.31 175.994 285.264 175.935L276.764 165.142C276.717 165.082 276.696 165.007 276.705 164.932C276.714 164.857 276.752 164.789 276.812 164.742C276.871 164.695 276.946 164.674 277.021 164.683C277.096 164.692 277.164 164.73 277.211 164.79L285.711 175.584C285.758 175.643 285.778 175.718 285.77 175.793C285.761 175.867 285.722 175.935 285.664 175.982L285.658 175.987Z" fill="#0C0C0C"/>
</g>
<g opacity="0.2">
<path d="M281.001 179.867C280.942 179.912 280.867 179.932 280.794 179.922C280.72 179.912 280.653 179.874 280.607 179.816L271.121 167.768C271.075 167.709 271.054 167.634 271.063 167.56C271.071 167.485 271.109 167.417 271.168 167.37C271.228 167.327 271.303 167.307 271.377 167.316C271.45 167.325 271.518 167.361 271.566 167.418L281.052 179.464C281.099 179.523 281.12 179.598 281.111 179.673C281.102 179.748 281.064 179.816 281.005 179.862L281.001 179.867Z" fill="#0C0C0C"/>
</g>
<g opacity="0.2">
<path d="M275.982 184.099C275.923 184.144 275.848 184.163 275.775 184.154C275.701 184.144 275.634 184.106 275.588 184.048L268.021 174.44C267.997 174.41 267.979 174.377 267.969 174.341C267.958 174.304 267.955 174.266 267.959 174.229C267.963 174.191 267.975 174.155 267.993 174.122C268.011 174.089 268.036 174.06 268.066 174.037C268.095 174.014 268.129 173.996 268.166 173.986C268.202 173.976 268.24 173.974 268.277 173.978C268.315 173.983 268.351 173.995 268.384 174.014C268.416 174.033 268.445 174.058 268.468 174.088L276.035 183.696C276.081 183.755 276.102 183.83 276.093 183.905C276.084 183.98 276.046 184.048 275.987 184.094L275.982 184.099Z" fill="#0C0C0C"/>
</g>
<path d="M359.112 202.88L322.026 246.428L306.406 185.636L266.525 196.231L292.478 290.801C293.324 293.842 294.87 296.643 296.994 298.979C298.76 300.909 300.889 302.473 303.26 303.58C305.63 304.687 308.196 305.316 310.81 305.432C313.423 305.548 316.034 305.148 318.494 304.254C320.953 303.361 323.212 301.992 325.142 300.225L325.477 299.918L391.772 236.195L359.112 202.88Z" fill="#95CEA5"/>
<path d="M300.649 186.634L296.058 167.711C295.957 167.295 295.77 166.905 295.51 166.565C295.25 166.225 294.923 165.943 294.548 165.737C294.173 165.531 293.759 165.406 293.333 165.368C292.906 165.331 292.477 165.383 292.072 165.52C291.332 165.798 290.721 166.34 290.358 167.042C289.995 167.743 289.906 168.555 290.107 169.319L291.092 173.377L292.394 180.582" fill="#E98862"/>
<path d="M419.667 211.446C439.048 210.532 439.864 194.082 439.864 194.082C439.864 194.082 449.468 194.702 455.851 195.566C466.303 196.98 473.198 200.524 478.685 206.011C483.789 211.115 486.896 216.637 483.608 251.896C481.227 277.422 482.903 333.579 482.903 333.579H365.932C365.932 333.579 358.917 259.977 357.94 248.485C356.073 226.546 348.432 214.181 359.113 202.88C366.858 194.684 386.856 194.082 394.905 194.083C395.036 194.083 393.272 212.69 419.667 211.446Z" fill="#95CEA5"/>
<path d="M358.62 244.816C358.618 244.778 358.608 244.742 358.591 244.708C358.575 244.675 358.552 244.645 358.524 244.62C358.496 244.595 358.463 244.576 358.428 244.564C358.392 244.552 358.355 244.547 358.318 244.549C358.28 244.552 358.244 244.561 358.21 244.578C358.177 244.594 358.147 244.617 358.122 244.645C358.097 244.673 358.078 244.706 358.066 244.741C358.054 244.777 358.049 244.814 358.051 244.852L359.24 267.059C359.244 267.128 359.273 267.192 359.321 267.241C359.369 267.29 359.433 267.319 359.502 267.325C359.515 267.326 359.528 267.326 359.541 267.325C359.617 267.32 359.687 267.286 359.737 267.229C359.787 267.173 359.812 267.099 359.807 267.023" fill="#0C0C0C"/>
<path d="M384.393 300.276L365.471 295.678C365.055 295.577 364.623 295.564 364.202 295.639C363.781 295.715 363.38 295.877 363.025 296.115C362.67 296.354 362.368 296.664 362.14 297.026C361.911 297.387 361.76 297.793 361.697 298.216C361.604 299 361.805 299.792 362.263 300.436C362.72 301.08 363.4 301.532 364.172 301.703L368.229 302.689L354.047 305.446C352.465 305.725 350.702 307.079 351.132 308.833C351.253 309.52 351.603 310.145 352.126 310.606C352.648 311.068 353.312 311.338 354.008 311.374C354.007 311.389 354.007 311.405 354.008 311.42C354.012 311.432 354.017 311.443 354.022 311.453L351.582 311.883C351.131 311.963 350.702 312.143 350.329 312.409C349.955 312.676 349.645 313.022 349.423 313.423C349.2 313.825 349.07 314.27 349.041 314.728C349.013 315.186 349.087 315.645 349.258 316.071C349.541 316.736 350.043 317.284 350.682 317.622C351.32 317.961 352.056 318.07 352.765 317.932L353.803 317.749C353.822 317.776 353.846 317.8 353.874 317.82C353.201 318.106 352.652 318.622 352.325 319.276C351.998 319.93 351.914 320.679 352.089 321.389C352.302 322.16 352.799 322.823 353.48 323.245C354.16 323.666 354.975 323.815 355.761 323.663L358.34 323.208C358.308 323.24 358.284 323.279 358.27 323.323C358.256 323.366 358.253 323.412 358.26 323.456C358.272 323.509 358.299 323.557 358.337 323.594C357.809 324.016 357.434 324.599 357.27 325.255C357.106 325.91 357.161 326.601 357.428 327.222C357.722 327.869 358.225 328.397 358.856 328.722C359.487 329.047 360.21 329.149 360.907 329.012L382.664 325.176C385.707 324.639 388.521 323.205 390.745 321.059C392.969 318.912 394.501 316.15 395.145 313.128C395.7 310.521 395.217 307.801 393.798 305.545C392.38 303.289 390.138 301.674 387.548 301.045L384.393 300.276Z" fill="#E98862"/>
<g opacity="0.2">
<path d="M368.056 308.714C368.068 308.787 368.052 308.862 368.009 308.924C367.967 308.985 367.902 309.027 367.829 309.041L354.338 311.644C354.264 311.659 354.188 311.643 354.125 311.601C354.063 311.559 354.02 311.493 354.005 311.419C353.991 311.345 354.007 311.268 354.049 311.206C354.091 311.143 354.156 311.1 354.23 311.086L367.721 308.482C367.757 308.475 367.795 308.475 367.832 308.482C367.869 308.49 367.903 308.505 367.934 308.526C367.965 308.547 367.992 308.574 368.012 308.606C368.033 308.637 368.047 308.672 368.054 308.709L368.056 308.714Z" fill="#0C0C0C"/>
</g>
<g opacity="0.2">
<path d="M369.369 314.632C369.382 314.706 369.365 314.781 369.322 314.842C369.28 314.903 369.215 314.945 369.142 314.959L354.087 317.865C354.05 317.872 354.012 317.872 353.975 317.864C353.939 317.856 353.904 317.842 353.873 317.82C353.842 317.799 353.815 317.772 353.795 317.741C353.774 317.709 353.76 317.674 353.754 317.637C353.742 317.563 353.759 317.488 353.801 317.426C353.844 317.364 353.908 317.321 353.981 317.305L369.036 314.399C369.073 314.392 369.11 314.392 369.147 314.399C369.184 314.407 369.219 314.422 369.25 314.443C369.281 314.464 369.307 314.491 369.327 314.523C369.348 314.554 369.362 314.589 369.369 314.626L369.369 314.632Z" fill="#0C0C0C"/>
</g>
<g opacity="0.2">
<path d="M370.829 321.033C370.841 321.106 370.824 321.182 370.781 321.243C370.739 321.304 370.674 321.345 370.601 321.359L358.592 323.678C358.518 323.692 358.441 323.676 358.379 323.634C358.316 323.592 358.273 323.526 358.259 323.452C358.245 323.378 358.261 323.302 358.303 323.239C358.345 323.177 358.41 323.134 358.484 323.119L370.494 320.801C370.53 320.794 370.568 320.794 370.605 320.802C370.642 320.809 370.677 320.824 370.708 320.845C370.739 320.866 370.765 320.894 370.785 320.925C370.806 320.956 370.82 320.992 370.827 321.028L370.829 321.033Z" fill="#0C0C0C"/>
</g>
<path d="M382.506 332.616L484.177 333.17C487.452 333.527 490.765 333.119 493.855 331.98C496.946 330.841 499.731 329.002 501.991 326.606C504.252 324.21 505.926 321.323 506.883 318.171C507.84 315.019 508.054 311.688 507.508 308.44L484.858 217.705C484.393 214.944 483.39 212.302 481.904 209.929C480.419 207.556 478.48 205.498 476.2 203.874C473.919 202.25 471.341 201.091 468.612 200.464C465.884 199.836 463.058 199.752 460.297 200.216C457.536 200.68 454.894 201.684 452.52 203.17C450.147 204.655 448.09 206.594 446.466 208.874C444.842 211.155 443.683 213.733 443.055 216.462C442.428 219.19 442.344 222.016 442.808 224.777L460.179 293.132L383 295.664L382.506 332.616Z" fill="#95CEA5"/>
<path d="M473.471 292.84C473.543 292.84 473.611 292.813 473.664 292.764C473.716 292.715 473.748 292.649 473.753 292.577C473.758 292.506 473.737 292.435 473.692 292.38C473.648 292.324 473.584 292.286 473.513 292.275L460.346 292.754C460.309 292.747 460.271 292.749 460.235 292.758C460.198 292.766 460.164 292.782 460.134 292.805C460.104 292.827 460.078 292.855 460.059 292.887C460.04 292.919 460.028 292.955 460.023 292.992C460.012 293.067 460.031 293.143 460.075 293.203C460.12 293.264 460.187 293.304 460.262 293.315L473.429 292.837C473.443 292.839 473.457 292.84 473.471 292.84Z" fill="#0C0C0C"/>
<path d="M481.22 333.579C481.295 333.583 481.37 333.558 481.426 333.508C481.483 333.458 481.518 333.388 481.523 333.313C481.527 333.237 481.502 333.163 481.452 333.106C481.402 333.049 481.332 333.015 481.256 333.01L383.101 332.398L383.531 296.013L460.253 293.317C460.297 293.322 460.342 293.317 460.383 293.303C460.425 293.288 460.463 293.264 460.494 293.232C460.525 293.2 460.549 293.162 460.562 293.119C460.575 293.076 460.578 293.031 460.571 292.987L452.204 251.901C452.199 251.864 452.186 251.829 452.166 251.797C452.146 251.765 452.12 251.737 452.09 251.716C452.059 251.694 452.025 251.679 451.988 251.67C451.952 251.662 451.914 251.661 451.877 251.668C451.84 251.674 451.805 251.688 451.773 251.707C451.741 251.727 451.714 251.753 451.692 251.783C451.671 251.814 451.655 251.848 451.647 251.885C451.638 251.921 451.637 251.959 451.643 251.996L459.946 292.701L383.317 295.409C383.28 295.404 383.241 295.407 383.205 295.417C383.168 295.427 383.134 295.444 383.104 295.468C383.074 295.491 383.05 295.52 383.031 295.554C383.013 295.587 383.001 295.623 382.997 295.661L382.506 332.614C382.498 332.688 382.519 332.762 382.565 332.82C382.611 332.879 382.678 332.917 382.751 332.927L481.182 333.576C481.195 333.578 481.207 333.579 481.22 333.579Z" fill="#0C0C0C"/>
<path d="M440.454 152.321C440.002 152.321 439.568 152.141 439.248 151.821C438.928 151.501 438.748 151.068 438.748 150.615V131.187C438.748 121.301 436.012 113.467 430.835 108.534C425.928 103.857 418.886 101.706 409.911 102.137C409.461 102.156 409.021 101.996 408.688 101.692C408.355 101.388 408.156 100.965 408.135 100.515C408.113 100.064 408.271 99.6238 408.573 99.2893C408.875 98.9549 409.297 98.7536 409.747 98.7296C419.692 98.2492 427.579 100.719 433.188 106.063C439.058 111.657 442.159 120.344 442.159 131.186V150.615C442.16 150.839 442.115 151.061 442.03 151.268C441.944 151.475 441.818 151.663 441.66 151.821C441.502 151.98 441.314 152.105 441.107 152.191C440.9 152.277 440.678 152.321 440.454 152.321Z" fill="#95CEA5"/>
<path d="M437.906 167.222C445.061 167.222 450.862 161.421 450.862 154.265C450.862 147.11 445.061 141.309 437.906 141.309C430.75 141.309 424.949 147.11 424.949 154.265C424.949 161.421 430.75 167.222 437.906 167.222Z" fill="#95CEA5"/>
<path d="M438.406 163.971C438.316 163.905 438.213 163.857 438.103 163.831C437.994 163.805 437.881 163.801 437.77 163.818C437.659 163.836 437.553 163.876 437.457 163.935C437.361 163.994 437.278 164.071 437.213 164.162L436.221 165.532C435.006 167.206 433.412 168.569 431.57 169.51C429.728 170.451 427.689 170.943 425.621 170.945H409.85V170.611C409.85 170.158 409.67 169.724 409.35 169.405C409.03 169.085 408.596 168.905 408.144 168.905H402.805C402.353 168.905 401.919 169.085 401.599 169.405C401.279 169.724 401.1 170.158 401.1 170.611V173.107C401.1 173.559 401.279 173.993 401.599 174.313C401.919 174.633 402.353 174.812 402.805 174.812H408.144C408.596 174.812 409.03 174.633 409.35 174.313C409.67 173.993 409.85 173.559 409.85 173.107V172.649H425.623C427.962 172.646 430.266 172.09 432.349 171.026C434.431 169.963 436.232 168.422 437.606 166.53L438.597 165.16C438.73 164.977 438.784 164.749 438.748 164.526C438.712 164.303 438.589 164.104 438.406 163.971Z" fill="#95CEA5"/>
<path d="M441.015 167.222C448.171 167.222 453.971 161.421 453.971 154.265C453.971 147.11 448.171 141.309 441.015 141.309C433.859 141.309 428.059 147.11 428.059 154.265C428.059 161.421 433.859 167.222 441.015 167.222Z" fill="#95CEA5"/>
<path opacity="0.3" d="M441.015 167.222C448.171 167.222 453.971 161.421 453.971 154.265C453.971 147.11 448.171 141.309 441.015 141.309C433.859 141.309 428.059 147.11 428.059 154.265C428.059 161.421 433.859 167.222 441.015 167.222Z" fill="white"/>
<path d="M291.41 304.805H161.147C158.787 304.805 156.523 303.868 154.855 302.199C153.186 300.53 152.248 298.267 152.248 295.907L140.127 200.16C140.127 198.991 140.357 197.834 140.804 196.754C141.251 195.675 141.907 194.694 142.733 193.867C143.559 193.041 144.54 192.386 145.62 191.938C146.7 191.491 147.857 191.261 149.025 191.261H279.288C280.456 191.261 281.613 191.491 282.693 191.938C283.773 192.386 284.754 193.041 285.58 193.867C286.406 194.694 287.062 195.675 287.509 196.754C287.956 197.834 288.187 198.991 288.187 200.16L300.308 295.907C300.308 297.075 300.078 298.232 299.631 299.312C299.183 300.392 298.528 301.373 297.702 302.199C296.875 303.025 295.895 303.681 294.815 304.128C293.735 304.575 292.578 304.805 291.41 304.805Z" fill="#292A2E"/>
<path d="M221.657 333.578H191.248C190.538 333.578 189.839 333.411 189.206 333.089C188.574 332.767 188.027 332.3 187.609 331.726C187.192 331.152 186.916 330.488 186.804 329.787C186.692 329.086 186.748 328.369 186.966 327.694L205.203 271.318C205.496 270.413 206.068 269.624 206.837 269.065C207.606 268.505 208.533 268.204 209.484 268.204H236.893C237.389 268.203 237.878 268.316 238.324 268.532C238.77 268.749 239.161 269.063 239.468 269.453C239.775 269.843 239.989 270.297 240.094 270.781C240.2 271.266 240.194 271.768 240.077 272.25L226.035 330.139C225.796 331.121 225.235 331.993 224.441 332.617C223.647 333.241 222.667 333.579 221.657 333.578Z" fill="#292A2E"/>
<path d="M248.1 328.476H193.885C192.476 328.476 191.334 329.618 191.334 331.027C191.334 332.436 192.476 333.579 193.885 333.579H248.1C249.509 333.579 250.651 332.436 250.651 331.027C250.651 329.618 249.509 328.476 248.1 328.476Z" fill="#292A2E"/>
<path opacity="0.2" d="M248.098 328.475H226.438L240.082 272.25C240.199 271.768 240.205 271.266 240.1 270.781C239.994 270.297 239.78 269.843 239.473 269.453C239.167 269.064 238.776 268.749 238.33 268.532C237.884 268.316 237.395 268.203 236.899 268.204H209.484C208.533 268.204 207.606 268.505 206.837 269.065C206.068 269.624 205.496 270.413 205.203 271.318L186.966 327.694C186.748 328.369 186.692 329.086 186.804 329.787C186.916 330.488 187.192 331.152 187.609 331.726C188.026 332.3 188.574 332.767 189.206 333.088C189.838 333.41 190.538 333.578 191.247 333.578H248.098C248.775 333.578 249.424 333.31 249.903 332.831C250.381 332.353 250.65 331.704 250.65 331.027C250.65 330.35 250.381 329.701 249.903 329.223C249.424 328.744 248.775 328.475 248.098 328.475Z" fill="white"/>
<path d="M219.691 290.731C224.033 290.731 227.553 287.211 227.553 282.87C227.553 278.528 224.033 275.008 219.691 275.008C215.35 275.008 211.83 278.528 211.83 282.87C211.83 287.211 215.35 290.731 219.691 290.731Z" fill="#292A2E"/>
<path d="M281.671 328.475H284.705C284.785 328.068 285.004 327.7 285.325 327.436C285.646 327.172 286.048 327.028 286.464 327.027H288.877C289.293 327.027 289.695 327.172 290.016 327.436C290.337 327.7 290.556 328.068 290.635 328.475H292.524C292.604 328.068 292.823 327.7 293.144 327.436C293.464 327.172 293.867 327.028 294.282 327.027H296.696C297.111 327.028 297.514 327.172 297.835 327.436C298.155 327.7 298.374 328.068 298.454 328.475H300.343C300.423 328.068 300.641 327.7 300.962 327.436C301.283 327.172 301.685 327.028 302.101 327.027H304.515C304.93 327.028 305.332 327.172 305.653 327.436C305.974 327.7 306.193 328.068 306.273 328.475H308.161C308.241 328.068 308.46 327.7 308.781 327.436C309.101 327.172 309.504 327.028 309.919 327.027H312.335C312.75 327.028 313.153 327.172 313.474 327.436C313.794 327.7 314.014 328.068 314.093 328.475H315.982C316.062 328.068 316.281 327.7 316.602 327.436C316.922 327.172 317.325 327.028 317.74 327.027H320.154C320.569 327.028 320.972 327.172 321.292 327.436C321.613 327.7 321.832 328.068 321.912 328.475H323.277C323.356 328.068 323.575 327.7 323.896 327.436C324.217 327.172 324.619 327.028 325.035 327.027H346.463C346.879 327.027 347.281 327.172 347.602 327.436C347.923 327.7 348.142 328.068 348.222 328.475H349.97C350.05 328.068 350.269 327.7 350.59 327.436C350.911 327.172 351.313 327.028 351.729 327.027H354.142C354.558 327.028 354.96 327.172 355.281 327.436C355.602 327.7 355.821 328.068 355.901 328.475H357.789C357.869 328.068 358.088 327.7 358.409 327.436C358.73 327.172 359.132 327.028 359.548 327.027H361.961C362.376 327.028 362.779 327.172 363.1 327.436C363.42 327.7 363.639 328.068 363.719 328.475H365.604C365.684 328.068 365.903 327.7 366.224 327.436C366.544 327.172 366.947 327.028 367.362 327.027H369.776C370.192 327.028 370.594 327.172 370.915 327.436C371.236 327.7 371.455 328.068 371.535 328.475H373.423C373.502 328.068 373.722 327.7 374.042 327.436C374.363 327.172 374.766 327.028 375.181 327.027H377.594C378.01 327.028 378.412 327.172 378.733 327.436C379.054 327.7 379.273 328.068 379.353 328.475H387.295C387.972 328.475 388.621 328.744 389.1 329.223C389.578 329.701 389.847 330.35 389.847 331.027C389.847 331.704 389.578 332.352 389.1 332.831C388.621 333.309 387.972 333.578 387.295 333.578H281.671C280.994 333.578 280.345 333.309 279.866 332.831C279.388 332.352 279.119 331.704 279.119 331.027C279.119 330.35 279.388 329.701 279.866 329.223C280.345 328.744 280.994 328.475 281.671 328.475Z" fill="#292A2E"/>
<path opacity="0.2" d="M281.671 328.475H284.705C284.785 328.068 285.004 327.7 285.325 327.436C285.646 327.172 286.048 327.028 286.464 327.027H288.877C289.293 327.027 289.695 327.172 290.016 327.436C290.337 327.7 290.556 328.068 290.635 328.475H292.524C292.604 328.068 292.823 327.7 293.144 327.436C293.464 327.172 293.867 327.028 294.282 327.027H296.696C297.111 327.028 297.514 327.172 297.835 327.436C298.155 327.7 298.374 328.068 298.454 328.475H300.343C300.423 328.068 300.641 327.7 300.962 327.436C301.283 327.172 301.685 327.028 302.101 327.027H304.515C304.93 327.028 305.332 327.172 305.653 327.436C305.974 327.7 306.193 328.068 306.273 328.475H308.161C308.241 328.068 308.46 327.7 308.781 327.436C309.101 327.172 309.504 327.028 309.919 327.027H312.335C312.75 327.028 313.153 327.172 313.474 327.436C313.794 327.7 314.014 328.068 314.093 328.475H315.982C316.062 328.068 316.281 327.7 316.602 327.436C316.922 327.172 317.325 327.028 317.74 327.027H320.154C320.569 327.028 320.972 327.172 321.292 327.436C321.613 327.7 321.832 328.068 321.912 328.475H323.277C323.356 328.068 323.575 327.7 323.896 327.436C324.217 327.172 324.619 327.028 325.035 327.027H346.463C346.879 327.027 347.281 327.172 347.602 327.436C347.923 327.7 348.142 328.068 348.222 328.475H349.97C350.05 328.068 350.269 327.7 350.59 327.436C350.911 327.172 351.313 327.028 351.729 327.027H354.142C354.558 327.028 354.96 327.172 355.281 327.436C355.602 327.7 355.821 328.068 355.901 328.475H357.789C357.869 328.068 358.088 327.7 358.409 327.436C358.73 327.172 359.132 327.028 359.548 327.027H361.961C362.376 327.028 362.779 327.172 363.1 327.436C363.42 327.7 363.639 328.068 363.719 328.475H365.604C365.684 328.068 365.903 327.7 366.224 327.436C366.544 327.172 366.947 327.028 367.362 327.027H369.776C370.192 327.028 370.594 327.172 370.915 327.436C371.236 327.7 371.455 328.068 371.535 328.475H373.423C373.502 328.068 373.722 327.7 374.042 327.436C374.363 327.172 374.766 327.028 375.181 327.027H377.594C378.01 327.028 378.412 327.172 378.733 327.436C379.054 327.7 379.273 328.068 379.353 328.475H387.295C387.972 328.475 388.621 328.744 389.1 329.223C389.578 329.701 389.847 330.35 389.847 331.027C389.847 331.704 389.578 332.352 389.1 332.831C388.621 333.309 387.972 333.578 387.295 333.578H281.671C280.994 333.578 280.345 333.309 279.866 332.831C279.388 332.352 279.119 331.704 279.119 331.027C279.119 330.35 279.388 329.701 279.866 329.223C280.345 328.744 280.994 328.475 281.671 328.475Z" fill="white"/>
<path d="M86.0392 334.45H509.324C509.475 334.45 509.62 334.39 509.726 334.283C509.833 334.177 509.893 334.032 509.893 333.881C509.893 333.731 509.833 333.586 509.726 333.48C509.62 333.373 509.475 333.313 509.324 333.313H86.0392C85.8884 333.313 85.7438 333.373 85.6372 333.48C85.5306 333.586 85.4707 333.731 85.4707 333.881C85.4707 334.032 85.5306 334.177 85.6372 334.283C85.7438 334.39 85.8884 334.45 86.0392 334.45Z" fill="#292A2E"/>
</svg>
